<svg width="426" height="101" viewBox="0 0 426 101" fill="none" xmlns="http://www.w3.org/2000/svg">
<path d="M35.976 72.852C29.334 72.852 25.644 66.702 25.644 57.764C25.644 49.564 28.268 39.396 32.204 30.95C34.254 26.686 36.714 23.16 39.748 20.29C42.782 17.42 45.98 16.026 49.26 16.026C56.148 16.026 59.592 22.258 59.592 31.524C59.592 39.642 56.968 49.81 52.95 58.256C50.9 62.438 48.358 65.882 45.324 68.67C42.29 71.458 39.174 72.852 35.976 72.852ZM35.402 75.148C47.128 75.23 57.05 67.276 62.462 57.108C66.398 50.138 68.448 42.102 68.448 34.476C68.448 28.408 66.89 23.406 63.692 19.552C60.576 15.616 55.984 13.648 49.916 13.648C40.322 13.648 31.466 18.978 25.808 26.85C20.232 34.64 16.788 44.726 16.788 54.32C16.788 60.388 18.346 65.39 21.462 69.326C24.66 73.18 29.252 75.148 35.402 75.148ZM115.977 43.578C123.111 43.578 126.391 47.514 126.391 53.336C126.391 58.174 124.915 62.438 122.045 66.128C119.175 69.818 115.731 71.704 111.713 71.704H104.579C103.349 71.704 102.693 71.048 102.693 69.818C102.693 69.572 102.857 68.752 103.267 67.194L109.581 43.578H115.977ZM135.411 54.566C135.411 46.612 129.753 41.2 118.519 41.2H110.237L115.485 21.684C116.469 17.994 117.617 17.092 119.995 17.092H130.245C134.181 17.092 136.149 18.158 136.149 23.734C136.149 24.882 135.739 28.08 135.001 33.246H137.215L141.397 14.796H101.299L100.561 17.092H104.333C105.973 17.092 106.793 17.748 106.793 18.978C106.793 19.634 106.629 20.536 106.301 21.684L94.0826 67.194C93.0986 70.884 91.9506 71.704 89.5726 71.704H85.8826L85.2266 74H112.369C118.765 74 124.177 72.278 128.687 68.916C133.197 65.472 135.411 60.716 135.411 54.566ZM165.204 21.684C166.106 18.404 166.762 17.092 168.074 17.092H172.42C176.274 17.092 178.898 18.076 180.456 20.126C182.014 22.176 182.752 24.554 182.752 27.26C182.752 31.606 181.276 35.788 178.406 39.806C175.536 43.824 172.092 45.874 168.074 45.874H158.726L165.204 21.684ZM155.036 71.704C153.314 71.704 152.494 71.048 152.494 69.818C152.494 69.244 152.658 68.342 152.986 67.194L158.07 48.17H168.73C174.962 48.17 180.374 46.448 184.966 43.004C189.558 39.478 191.854 34.64 191.854 28.49C191.854 19.88 185.868 14.796 172.994 14.796H150.936L150.28 17.092H154.052C155.692 17.092 156.512 17.748 156.512 18.978C156.512 19.552 156.348 20.454 156.02 21.684L142.982 68.998C142.326 71.622 140.932 71.704 139.292 71.704H135.602L134.946 74H158.48L159.136 71.704H155.036ZM202.416 14.796L201.76 17.092H205.532C207.172 17.092 207.992 17.748 207.992 18.978C207.992 19.552 207.828 20.454 207.5 21.684L195.282 67.194C194.298 70.884 193.15 71.704 190.772 71.704H187.082L186.426 74H229.148L236.528 51.942H234.314C230.378 61.864 227.508 66.456 225.376 69.162C224.064 70.802 221.932 71.376 220.702 71.622C220.128 71.704 219.308 71.704 218.078 71.704H206.516C204.794 71.704 203.974 71.048 203.974 69.818C203.974 69.244 204.138 68.342 204.466 67.194L210.534 44.48H217.914C220.866 44.48 222.506 45.382 222.506 48.416C222.506 49.482 221.932 52.27 220.866 56.616H222.998L230.214 29.966H228.082C226.688 34.968 225.376 38.248 223.982 39.806C222.67 41.364 220.866 42.102 218.57 42.102H211.19L216.684 21.684C217.75 17.748 218.57 17.092 220.784 17.092H232.51C234.724 17.092 235.462 17.174 236.692 18.076C237.922 18.978 238.25 20.864 238.25 24.39C238.25 26.112 237.84 29.392 237.102 34.312H239.316L243.498 14.796H202.416ZM285.662 14.796L285.006 17.092H288.778C290.418 17.092 291.238 17.748 291.238 18.978C291.238 19.552 291.074 20.454 290.746 21.684L285.498 41.446H261.554L266.884 21.684C267.868 17.994 269.016 17.092 271.394 17.092H275.166L275.822 14.796H252.616L251.96 17.092H255.732C257.372 17.092 258.192 17.748 258.192 18.978C258.192 19.47 258.028 20.372 257.7 21.684L245.482 67.194C244.498 70.884 243.514 71.704 240.972 71.704H237.282L236.626 74H259.75L260.406 71.704H256.716C254.994 71.704 254.174 71.048 254.174 69.818C254.174 69.244 254.338 68.342 254.666 67.194L260.734 44.726H284.596L278.528 67.194C277.544 70.884 276.396 71.704 274.018 71.704H270.328L269.59 74H292.714L293.452 71.704H289.68C288.04 71.704 287.22 71.048 287.22 69.818C287.22 69.244 287.384 68.342 287.712 67.194L299.848 21.684C300.832 17.994 302.062 17.092 304.44 17.092H308.212L308.868 14.796H285.662ZM348.624 18.322C348.624 18.486 348.542 19.06 348.296 20.044L335.176 68.834C334.52 71.212 333.864 71.704 331.978 71.704H308.116C314.594 67.276 321.81 50.63 329.928 21.684C330.748 18.65 332.224 17.092 334.274 17.092H346.738C347.968 17.092 348.624 17.502 348.624 18.322ZM321.728 14.796L321.072 17.092H324.844C326.73 17.092 327.632 17.83 327.632 19.306C327.632 19.962 327.55 20.782 327.304 21.684C323.204 36.526 319.186 48.252 315.168 56.944C311.232 65.636 307.624 70.556 304.262 71.704H299.424L293.684 89.17H295.898C298.604 82.364 300.818 78.428 303.032 76.378C305.328 74.41 306.886 74 309.756 74H339.358C343.622 74 345.59 75.558 345.59 81.708C345.59 83.02 345.344 85.48 344.934 89.17H347.066L350.92 71.704H346.738C345.016 71.704 344.196 71.048 344.196 69.818C344.196 69.408 344.36 68.588 344.606 67.522L356.988 21.684C357.972 17.994 359.12 17.092 361.498 17.092H365.27L365.926 14.796H321.728ZM371.432 14.796L370.776 17.092H374.548C376.188 17.092 377.008 17.748 377.008 18.978C377.008 19.552 376.844 20.454 376.516 21.684L364.298 67.194C363.314 70.884 362.166 71.704 359.788 71.704H356.098L355.442 74H398.164L405.544 51.942H403.33C399.394 61.864 396.524 66.456 394.392 69.162C393.08 70.802 390.948 71.376 389.718 71.622C389.144 71.704 388.324 71.704 387.094 71.704H375.532C373.81 71.704 372.99 71.048 372.99 69.818C372.99 69.244 373.154 68.342 373.482 67.194L379.55 44.48H386.93C389.882 44.48 391.522 45.382 391.522 48.416C391.522 49.482 390.948 52.27 389.882 56.616H392.014L399.23 29.966H397.098C395.704 34.968 394.392 38.248 392.998 39.806C391.686 41.364 389.882 42.102 387.586 42.102H380.206L385.7 21.684C386.766 17.748 387.586 17.092 389.8 17.092H401.526C403.74 17.092 404.478 17.174 405.708 18.076C406.938 18.978 407.266 20.864 407.266 24.39C407.266 26.112 406.856 29.392 406.118 34.312H408.332L412.514 14.796H371.432Z" fill="#3C65F7"/>
<path d="M32.204 30.95L28.7356 29.2825L28.7255 29.3034L28.7157 29.3244L32.204 30.95ZM52.95 58.256L56.4056 59.9499L56.4155 59.9297L56.4252 59.9093L52.95 58.256ZM45.324 68.67L42.72 65.8363L42.72 65.8363L45.324 68.67ZM35.402 75.148L35.4289 71.2996L35.4155 71.2995H35.402V75.148ZM62.462 57.108L59.1109 55.2156L59.0873 55.2574L59.0648 55.2998L62.462 57.108ZM63.692 19.552L60.6746 21.9407L60.7021 21.9755L60.7304 22.0095L63.692 19.552ZM25.808 26.85L22.683 24.6039L22.6786 24.61L25.808 26.85ZM21.462 69.326L18.4446 71.7147L18.4721 71.7495L18.5004 71.7835L21.462 69.326ZM35.976 69.0035C34.0426 69.0035 32.6251 68.1968 31.5309 66.5393C30.3318 64.7232 29.4925 61.7769 29.4925 57.764H21.7955C21.7955 62.6891 22.8012 67.2868 25.1076 70.7802C27.5189 74.4322 31.2674 76.7005 35.976 76.7005V69.0035ZM29.4925 57.764C29.4925 50.2513 31.934 40.6402 35.6923 32.5756L28.7157 29.3244C24.602 38.1517 21.7955 48.8767 21.7955 57.764H29.4925ZM35.6724 32.6175C37.5578 28.6959 39.7593 25.5767 42.3927 23.0858L37.1033 17.4942C33.6687 20.7433 30.9502 24.6761 28.7356 29.2825L35.6724 32.6175ZM42.3927 23.0858C44.8806 20.7323 47.1735 19.8745 49.26 19.8745V12.1775C44.7865 12.1775 40.6834 14.1077 37.1033 17.4942L42.3927 23.0858ZM49.26 19.8745C51.3221 19.8745 52.7076 20.7029 53.7587 22.3608C54.9402 24.2245 55.7435 27.2785 55.7435 31.524H63.4405C63.4405 26.5035 62.5218 21.8085 60.2593 18.2397C57.8664 14.4651 54.0859 12.1775 49.26 12.1775V19.8745ZM55.7435 31.524C55.7435 38.9505 53.3042 48.5532 49.4748 56.6027L56.4252 59.9093C60.6318 51.0668 63.4405 40.3335 63.4405 31.524H55.7435ZM49.4944 56.5621C47.6345 60.3562 45.3691 63.402 42.72 65.8363L47.928 71.5037C51.3469 68.362 54.1655 64.5198 56.4056 59.9499L49.4944 56.5621ZM42.72 65.8363C40.1847 68.166 37.9564 69.0035 35.976 69.0035V76.7005C40.3916 76.7005 44.3953 74.75 47.928 71.5037L42.72 65.8363ZM35.3751 78.9964C48.9564 79.0913 59.9996 69.9252 65.8592 58.9162L59.0648 55.2998C54.1004 64.6268 45.2996 71.3687 35.4289 71.2996L35.3751 78.9964ZM65.8131 59.0004C70.0771 51.4494 72.2965 42.7611 72.2965 34.476H64.5995C64.5995 41.4429 62.7189 48.8266 59.1109 55.2156L65.8131 59.0004ZM72.2965 34.476C72.2965 27.7374 70.5547 21.7957 66.6536 17.0945L60.7304 22.0095C63.2253 25.0163 64.5995 29.0786 64.5995 34.476H72.2965ZM66.7094 17.1632C62.7095 12.1108 56.8874 9.79954 49.916 9.79954V17.4965C55.0806 17.4965 58.4425 19.1212 60.6746 21.9407L66.7094 17.1632ZM49.916 9.79954C38.8703 9.79954 28.9302 15.9122 22.683 24.6039L28.933 29.0961C34.0018 22.0438 41.7737 17.4965 49.916 17.4965V9.79954ZM22.6786 24.61C16.6663 33.0096 12.9395 43.8705 12.9395 54.32H20.6365C20.6365 45.5815 23.7977 36.2704 28.9374 29.09L22.6786 24.61ZM12.9395 54.32C12.9395 61.0682 14.6848 66.9655 18.4446 71.7147L24.4794 66.9373C22.0072 63.8145 20.6365 59.7078 20.6365 54.32H12.9395ZM18.5004 71.7835C22.5719 76.6902 28.3505 78.9965 35.402 78.9965V71.2995C30.1535 71.2995 26.7481 69.6698 24.4236 66.8685L18.5004 71.7835ZM122.045 66.128L125.082 68.4907L125.082 68.4907L122.045 66.128ZM103.267 67.194L99.5487 66.2L99.5468 66.2073L99.5449 66.2146L103.267 67.194ZM109.581 43.578V39.7295H106.626L105.863 42.584L109.581 43.578ZM110.237 41.2L106.52 40.2006L105.217 45.0485H110.237V41.2ZM115.485 21.684L119.201 22.6834L119.203 22.6756L115.485 21.684ZM135.001 33.246L131.191 32.7017L130.563 37.0945H135.001V33.246ZM137.215 33.246V37.0945H140.288L140.968 34.0967L137.215 33.246ZM141.397 14.796L145.15 15.6467L146.215 10.9475H141.397V14.796ZM101.299 14.796V10.9475H98.4932L97.6348 13.6183L101.299 14.796ZM100.561 17.092L96.8968 15.9143L95.2812 20.9405H100.561V17.092ZM106.301 21.684L102.6 20.6267L102.592 20.6564L102.584 20.6861L106.301 21.684ZM94.0826 67.194L90.3658 66.1961L90.3641 66.2024L94.0826 67.194ZM85.8826 71.704V67.8555H82.9797L82.1822 70.6467L85.8826 71.704ZM85.2266 74L81.5262 72.9427L80.1246 77.8485H85.2266V74ZM128.687 68.916L130.987 72.0015L131.005 71.9882L131.022 71.9746L128.687 68.916ZM115.977 47.4265C118.85 47.4265 120.35 48.2072 121.138 48.995C121.931 49.7883 122.542 51.129 122.542 53.336H130.239C130.239 49.721 129.21 46.1827 126.58 43.5525C123.944 40.9168 120.237 39.7295 115.977 39.7295V47.4265ZM122.542 53.336C122.542 57.3268 121.346 60.7575 119.007 63.7653L125.082 68.4907C128.483 64.1185 130.239 59.0212 130.239 53.336H122.542ZM119.007 63.7653C116.714 66.7131 114.316 67.8555 111.713 67.8555V75.5525C117.145 75.5525 121.635 72.9229 125.082 68.4907L119.007 63.7653ZM111.713 67.8555H104.579V75.5525H111.713V67.8555ZM104.579 67.8555C104.62 67.8555 105.269 67.8747 105.896 68.501C106.522 69.1272 106.541 69.7768 106.541 69.818H98.8442C98.8442 71.0892 99.1913 72.6818 100.453 73.9435C101.715 75.2053 103.307 75.5525 104.579 75.5525V67.8555ZM106.541 69.818C106.541 69.9782 106.529 70.0887 106.527 70.1112C106.523 70.1458 106.521 70.1558 106.525 70.1327C106.532 70.0855 106.551 69.9814 106.589 69.8044C106.664 69.4532 106.792 68.9209 106.988 68.1734L99.5449 66.2146C99.3316 67.0251 99.1721 67.6818 99.0628 68.1916C98.9862 68.5494 98.8442 69.2178 98.8442 69.818H106.541ZM106.984 68.188L113.298 44.572L105.863 42.584L99.5487 66.2L106.984 68.188ZM109.581 47.4265H115.977V39.7295H109.581V47.4265ZM139.259 54.566C139.259 49.6132 137.457 45.1218 133.64 41.9429C129.912 38.8385 124.704 37.3515 118.519 37.3515V45.0485C123.567 45.0485 126.805 46.2675 128.715 47.8576C130.535 49.3732 131.562 51.5648 131.562 54.566H139.259ZM118.519 37.3515H110.237V45.0485H118.519V37.3515ZM113.953 42.1994L119.201 22.6834L111.768 20.6846L106.52 40.2006L113.953 42.1994ZM119.203 22.6756C119.416 21.8768 119.603 21.3664 119.754 21.0445C119.902 20.7294 119.969 20.6964 119.898 20.7652C119.797 20.8634 119.659 20.937 119.568 20.9655C119.524 20.9789 119.622 20.9405 119.995 20.9405V13.2435C118.317 13.2435 116.26 13.5693 114.536 15.2433C113.038 16.6982 112.291 18.7234 111.766 20.6924L119.203 22.6756ZM119.995 20.9405H130.245V13.2435H119.995V20.9405ZM130.245 20.9405C131.092 20.9405 131.591 21.0023 131.882 21.0762C132.128 21.1384 132.083 21.1726 131.98 21.0718C131.881 20.9751 131.962 20.9819 132.072 21.3755C132.191 21.8028 132.3 22.536 132.3 23.734H139.997C139.997 20.7198 139.515 17.6771 137.365 15.5722C135.206 13.4584 132.319 13.2435 130.245 13.2435V20.9405ZM132.3 23.734C132.3 24.5317 131.954 27.363 131.191 32.7017L138.81 33.7903C139.524 28.797 139.997 25.2323 139.997 23.734H132.3ZM135.001 37.0945H137.215V29.3975H135.001V37.0945ZM140.968 34.0967L145.15 15.6467L137.643 13.9453L133.461 32.3953L140.968 34.0967ZM141.397 10.9475H101.299V18.6445H141.397V10.9475ZM97.6348 13.6183L96.8968 15.9143L104.224 18.2697L104.962 15.9737L97.6348 13.6183ZM100.561 20.9405H104.333V13.2435H100.561V20.9405ZM104.333 20.9405C104.737 20.9405 104.364 21.037 103.82 20.6156C103.52 20.383 103.27 20.066 103.113 19.7059C102.964 19.3656 102.944 19.0949 102.944 18.978H110.641C110.641 17.4333 110.074 15.7244 108.535 14.5319C107.171 13.475 105.569 13.2435 104.333 13.2435V20.9405ZM102.944 18.978C102.944 19.0962 102.896 19.5904 102.6 20.6267L110.001 22.7413C110.361 21.4816 110.641 20.1718 110.641 18.978H102.944ZM102.584 20.6861L90.3658 66.1961L97.7994 68.1919L110.017 22.6819L102.584 20.6861ZM90.3641 66.2024C90.1518 66.9987 89.967 67.497 89.8213 67.8034C89.6797 68.1014 89.6234 68.1145 89.7115 68.0315C89.8296 67.9202 89.9759 67.8498 90.0562 67.8261C90.0849 67.8177 89.9709 67.8555 89.5726 67.8555V75.5525C91.1784 75.5525 93.2425 75.2795 94.9892 73.634C96.5226 72.1895 97.2754 70.157 97.8011 68.1856L90.3641 66.2024ZM89.5726 67.8555H85.8826V75.5525H89.5726V67.8555ZM82.1822 70.6467L81.5262 72.9427L88.927 75.0573L89.583 72.7613L82.1822 70.6467ZM85.2266 77.8485H112.369V70.1515H85.2266V77.8485ZM112.369 77.8485C119.501 77.8485 125.741 75.9117 130.987 72.0015L126.387 65.8305C122.612 68.6443 118.029 70.1515 112.369 70.1515V77.8485ZM131.022 71.9746C136.582 67.7287 139.259 61.7884 139.259 54.566H131.562C131.562 59.6436 129.811 63.2153 126.351 65.8574L131.022 71.9746ZM165.204 21.684L161.493 20.6636L161.489 20.676L161.486 20.6885L165.204 21.684ZM180.456 20.126L177.392 22.4546L177.392 22.4546L180.456 20.126ZM178.406 39.806L175.274 37.5691L175.274 37.5691L178.406 39.806ZM158.726 45.874L155.008 44.8785L153.711 49.7225H158.726V45.874ZM152.986 67.194L156.686 68.2513L156.695 68.2195L156.703 68.1876L152.986 67.194ZM158.07 48.17V44.3215H155.114L154.352 47.1764L158.07 48.17ZM184.966 43.004L187.275 46.0828L187.292 46.0697L187.309 46.0564L184.966 43.004ZM150.936 14.796V10.9475H148.033L147.235 13.7387L150.936 14.796ZM150.28 17.092L146.579 16.0347L145.178 20.9405H150.28V17.092ZM156.02 21.684L159.73 22.7064L159.734 22.691L159.738 22.6756L156.02 21.684ZM142.982 68.998L139.271 67.9756L139.259 68.02L139.248 68.0646L142.982 68.998ZM135.602 71.704V67.8555H132.699L131.901 70.6467L135.602 71.704ZM134.946 74L131.245 72.9427L129.844 77.8485H134.946V74ZM158.48 74V77.8485H161.382L162.18 75.0573L158.48 74ZM159.136 71.704L162.836 72.7613L164.238 67.8555H159.136V71.704ZM168.914 22.7044C169.129 21.9246 169.31 21.332 169.472 20.8781C169.639 20.4114 169.748 20.1991 169.789 20.1313C169.828 20.0656 169.705 20.3011 169.34 20.5455C168.915 20.8306 168.443 20.9405 168.074 20.9405V13.2435C167.048 13.2435 166.002 13.5174 165.056 14.151C164.171 14.7439 163.582 15.5124 163.181 16.1847C162.438 17.4284 161.935 19.0551 161.493 20.6636L168.914 22.7044ZM168.074 20.9405H172.42V13.2435H168.074V20.9405ZM172.42 20.9405C175.7 20.9405 176.872 21.7715 177.392 22.4546L183.52 17.7974C180.923 14.3804 176.847 13.2435 172.42 13.2435V20.9405ZM177.392 22.4546C178.389 23.767 178.903 25.3054 178.903 27.26H186.6C186.6 23.8026 185.638 20.585 183.52 17.7974L177.392 22.4546ZM178.903 27.26C178.903 30.6754 177.758 34.0909 175.274 37.5691L181.537 42.0429C184.793 37.4851 186.6 32.5366 186.6 27.26H178.903ZM175.274 37.5691C172.924 40.8593 170.537 42.0255 168.074 42.0255V49.7225C173.646 49.7225 178.147 46.7887 181.537 42.0429L175.274 37.5691ZM168.074 42.0255H158.726V49.7225H168.074V42.0255ZM162.443 46.8695L168.921 22.6795L161.486 20.6885L155.008 44.8785L162.443 46.8695ZM155.036 67.8555C154.556 67.8555 154.901 67.7455 155.44 68.1525C155.744 68.3823 156.003 68.7026 156.168 69.0739C156.322 69.4236 156.342 69.7018 156.342 69.818H148.645C148.645 71.3696 149.219 73.0984 150.798 74.292C152.177 75.3345 153.793 75.5525 155.036 75.5525V67.8555ZM156.342 69.818C156.342 69.8568 156.341 69.7427 156.4 69.4252C156.455 69.1299 156.547 68.7379 156.686 68.2513L149.285 66.1367C148.933 67.3698 148.645 68.6915 148.645 69.818H156.342ZM156.703 68.1876L161.787 49.1636L154.352 47.1764L149.268 66.2004L156.703 68.1876ZM158.07 52.0185H168.73V44.3215H158.07V52.0185ZM168.73 52.0185C175.719 52.0185 181.958 50.0699 187.275 46.0828L182.656 39.9252C178.789 42.8261 174.204 44.3215 168.73 44.3215V52.0185ZM187.309 46.0564C192.916 41.751 195.702 35.7496 195.702 28.49H188.005C188.005 33.5304 186.199 37.205 182.622 39.9516L187.309 46.0564ZM195.702 28.49C195.702 23.2014 193.805 18.5432 189.572 15.344C185.523 12.2838 179.841 10.9475 172.994 10.9475V18.6445C179.02 18.6445 182.768 19.8502 184.931 21.4845C186.909 22.9798 188.005 25.1686 188.005 28.49H195.702ZM172.994 10.9475H150.936V18.6445H172.994V10.9475ZM147.235 13.7387L146.579 16.0347L153.98 18.1492L154.636 15.8532L147.235 13.7387ZM150.28 20.9405H154.052V13.2435H150.28V20.9405ZM154.052 20.9405C154.455 20.9405 154.083 21.037 153.539 20.6156C153.239 20.383 152.989 20.066 152.832 19.7059C152.683 19.3656 152.663 19.0949 152.663 18.978H160.36C160.36 17.4333 159.793 15.7244 158.254 14.5319C156.89 13.475 155.288 13.2435 154.052 13.2435V20.9405ZM152.663 18.978C152.663 18.9396 152.664 19.0556 152.602 19.3966C152.544 19.7151 152.448 20.1422 152.301 20.6924L159.738 22.6756C160.074 21.4166 160.36 20.0946 160.36 18.978H152.663ZM152.309 20.6616L139.271 67.9756L146.692 70.0204L159.73 22.7064L152.309 20.6616ZM139.248 68.0646C139.204 68.2416 139.165 68.3495 139.142 68.4051C139.12 68.4597 139.117 68.4533 139.147 68.4082C139.178 68.3606 139.238 68.2818 139.333 68.1928C139.43 68.1027 139.54 68.0237 139.655 67.9606C139.883 67.8357 140.034 67.8257 139.968 67.8344C139.935 67.8387 139.868 67.8451 139.75 67.8496C139.629 67.8541 139.487 67.8555 139.292 67.8555V75.5525C139.972 75.5525 141.726 75.603 143.356 74.7094C145.263 73.6634 146.236 71.8494 146.715 69.9314L139.248 68.0646ZM139.292 67.8555H135.602V75.5525H139.292V67.8555ZM131.901 70.6467L131.245 72.9427L138.646 75.0573L139.302 72.7613L131.901 70.6467ZM134.946 77.8485H158.48V70.1515H134.946V77.8485ZM162.18 75.0573L162.836 72.7613L155.435 70.6467L154.779 72.9427L162.18 75.0573ZM159.136 67.8555H155.036V75.5525H159.136V67.8555ZM202.416 14.796V10.9475H199.513L198.716 13.7387L202.416 14.796ZM201.76 17.092L198.06 16.0347L196.658 20.9405H201.76V17.092ZM207.5 21.684L211.217 22.6819L211.219 22.6756L207.5 21.684ZM195.282 67.194L191.565 66.1961L191.564 66.2024L195.282 67.194ZM187.082 71.704V67.8555H184.179L183.382 70.6467L187.082 71.704ZM186.426 74L182.726 72.9427L181.324 77.8485H186.426V74ZM229.148 74V77.8485H231.919L232.798 75.2211L229.148 74ZM236.528 51.942L240.178 53.1631L241.874 48.0935H236.528V51.942ZM234.314 51.942V48.0935H231.701L230.737 50.5229L234.314 51.942ZM225.376 69.162L228.381 71.5661L228.39 71.5549L228.399 71.5437L225.376 69.162ZM220.702 71.622L221.246 75.4318L221.352 75.4167L221.457 75.3957L220.702 71.622ZM204.466 67.194L208.167 68.2513L208.176 68.2193L208.184 68.1873L204.466 67.194ZM210.534 44.48V40.6315H207.579L206.816 43.4867L210.534 44.48ZM220.866 56.616L217.128 55.6992L215.96 60.4645H220.866V56.616ZM222.998 56.616V60.4645H225.943L226.713 57.6218L222.998 56.616ZM230.214 29.966L233.929 30.9718L235.243 26.1175H230.214V29.966ZM228.082 29.966V26.1175H225.16L224.375 28.9328L228.082 29.966ZM223.982 39.806L221.114 37.2399L221.076 37.2829L221.038 37.3271L223.982 39.806ZM211.19 42.102L207.474 41.102L206.169 45.9505H211.19V42.102ZM216.684 21.684L212.97 20.678L212.968 20.684L216.684 21.684ZM236.692 18.076L238.968 14.9726L238.968 14.9726L236.692 18.076ZM237.102 34.312L233.296 33.7411L232.633 38.1605H237.102V34.312ZM239.316 34.312V38.1605H242.427L243.079 35.1184L239.316 34.312ZM243.498 14.796L247.261 15.6024L248.259 10.9475H243.498V14.796ZM198.716 13.7387L198.06 16.0347L205.461 18.1492L206.117 15.8532L198.716 13.7387ZM201.76 20.9405H205.532V13.2435H201.76V20.9405ZM205.532 20.9405C205.936 20.9405 205.563 21.037 205.02 20.6156C204.72 20.383 204.47 20.066 204.312 19.7059C204.163 19.3656 204.144 19.0949 204.144 18.978H211.841C211.841 17.4333 211.273 15.7244 209.735 14.5319C208.371 13.475 206.768 13.2435 205.532 13.2435V20.9405ZM204.144 18.978C204.144 18.9396 204.145 19.0556 204.083 19.3966C204.025 19.7151 203.928 20.1422 203.782 20.6924L211.219 22.6756C211.554 21.4166 211.841 20.0946 211.841 18.978H204.144ZM203.783 20.6861L191.565 66.1961L198.999 68.1919L211.217 22.6819L203.783 20.6861ZM191.564 66.2024C191.351 66.9987 191.167 67.497 191.021 67.8034C190.879 68.1014 190.823 68.1145 190.911 68.0315C191.029 67.9202 191.175 67.8498 191.256 67.8261C191.284 67.8177 191.17 67.8555 190.772 67.8555V75.5525C192.378 75.5525 194.442 75.2795 196.189 73.634C197.722 72.1895 198.475 70.157 199.001 68.1856L191.564 66.2024ZM190.772 67.8555H187.082V75.5525H190.772V67.8555ZM183.382 70.6467L182.726 72.9427L190.127 75.0573L190.783 72.7613L183.382 70.6467ZM186.426 77.8485H229.148V70.1515H186.426V77.8485ZM232.798 75.2211L240.178 53.1631L232.879 50.7209L225.499 72.7789L232.798 75.2211ZM236.528 48.0935H234.314V55.7905H236.528V48.0935ZM230.737 50.5229C226.883 60.2371 224.178 64.4641 222.353 66.7803L228.399 71.5437C230.838 68.4479 233.873 63.4909 237.891 53.3611L230.737 50.5229ZM222.371 66.7579C222.213 66.9556 221.925 67.184 221.441 67.3997C220.96 67.6143 220.431 67.7515 219.947 67.8483L221.457 75.3957C222.775 75.132 226.146 74.3601 228.381 71.5661L222.371 66.7579ZM220.158 67.8122C219.925 67.8456 219.449 67.8555 218.078 67.8555V75.5525C219.167 75.5525 220.332 75.5624 221.246 75.4318L220.158 67.8122ZM218.078 67.8555H206.516V75.5525H218.078V67.8555ZM206.516 67.8555C206.036 67.8555 206.382 67.7455 206.92 68.1525C207.224 68.3823 207.484 68.7026 207.648 69.0739C207.803 69.4236 207.823 69.7018 207.823 69.818H200.126C200.126 71.3696 200.7 73.0984 202.278 74.292C203.657 75.3345 205.274 75.5525 206.516 75.5525V67.8555ZM207.823 69.818C207.823 69.8568 207.822 69.7427 207.881 69.4252C207.936 69.1299 208.027 68.7379 208.167 68.2513L200.766 66.1367C200.413 67.3698 200.126 68.6915 200.126 69.818H207.823ZM208.184 68.1873L214.252 45.4733L206.816 43.4867L200.748 66.2007L208.184 68.1873ZM210.534 48.3285H217.914V40.6315H210.534V48.3285ZM217.914 48.3285C218.477 48.3285 218.819 48.3735 219.007 48.4172C219.186 48.4586 219.116 48.4732 218.957 48.3502C218.877 48.2881 218.799 48.2091 218.732 48.119C218.667 48.0302 218.633 47.9576 218.62 47.9224C218.597 47.8649 218.658 47.9856 218.658 48.416H226.355C226.355 46.2215 225.736 43.8688 223.677 42.2703C221.851 40.853 219.609 40.6315 217.914 40.6315V48.3285ZM218.658 48.416C218.658 48.3993 218.654 48.5539 218.592 48.9759C218.535 49.3644 218.444 49.877 218.313 50.5258C218.052 51.8227 217.656 53.5469 217.128 55.6992L224.604 57.5328C225.142 55.3391 225.566 53.4963 225.859 52.0462C226.127 50.7129 226.355 49.3884 226.355 48.416H218.658ZM220.866 60.4645H222.998V52.7675H220.866V60.4645ZM226.713 57.6218L233.929 30.9718L226.499 28.9602L219.283 55.6102L226.713 57.6218ZM230.214 26.1175H228.082V33.8145H230.214V26.1175ZM224.375 28.9328C223.698 31.3605 223.069 33.2685 222.474 34.71C221.857 36.2069 221.379 36.9437 221.114 37.2399L226.85 42.3721C227.979 41.1103 228.854 39.4281 229.59 37.645C230.348 35.8065 231.072 33.5735 231.789 30.9992L224.375 28.9328ZM221.038 37.3271C220.589 37.8612 219.951 38.2535 218.57 38.2535V45.9505C221.781 45.9505 224.752 44.8668 226.926 42.2849L221.038 37.3271ZM218.57 38.2535H211.19V45.9505H218.57V38.2535ZM214.906 43.102L220.4 22.684L212.968 20.684L207.474 41.102L214.906 43.102ZM220.399 22.69C220.646 21.7766 220.844 21.1908 221.005 20.8113C221.168 20.4274 221.225 20.4224 221.111 20.5441C221.045 20.6149 220.945 20.7031 220.812 20.7847C220.68 20.8658 220.561 20.9132 220.478 20.9383C220.35 20.9771 220.378 20.9405 220.784 20.9405V13.2435C219.333 13.2435 217.216 13.4452 215.496 15.2799C214.147 16.7189 213.488 18.7637 212.97 20.678L220.399 22.69ZM220.784 20.9405H232.51V13.2435H220.784V20.9405ZM232.51 20.9405C233.056 20.9405 233.428 20.946 233.715 20.9617C233.996 20.9769 234.116 20.9983 234.155 21.0069C234.171 21.0104 234.172 21.0113 234.162 21.008C234.152 21.0046 234.146 21.0018 234.149 21.0029C234.156 21.0065 234.231 21.0435 234.416 21.1794L238.968 14.9726C238.051 14.2998 237.068 13.7626 235.785 13.4846C234.703 13.2502 233.556 13.2435 232.51 13.2435V20.9405ZM234.416 21.1794C234.023 20.891 234.065 20.6056 234.182 21.1116C234.314 21.6866 234.402 22.6716 234.402 24.39H242.099C242.099 22.5824 242.022 20.8614 241.683 19.3864C241.328 17.8424 240.591 16.163 238.968 14.9726L234.416 21.1794ZM234.402 24.39C234.402 25.7634 234.048 28.7281 233.296 33.7411L240.908 34.8829C241.632 30.0559 242.099 26.4606 242.099 24.39H234.402ZM237.102 38.1605H239.316V30.4635H237.102V38.1605ZM243.079 35.1184L247.261 15.6024L239.735 13.9896L235.553 33.5056L243.079 35.1184ZM243.498 10.9475H202.416V18.6445H243.498V10.9475ZM285.662 14.796V10.9475H282.759L281.961 13.7387L285.662 14.796ZM285.006 17.092L281.305 16.0347L279.904 20.9405H285.006V17.092ZM290.746 21.684L287.027 20.6924L287.026 20.6962L290.746 21.684ZM285.498 41.446V45.2945H288.457L289.217 42.4338L285.498 41.446ZM261.554 41.446L257.838 40.4438L256.53 45.2945H261.554V41.446ZM266.884 21.684L270.599 22.6862L270.602 22.6756L266.884 21.684ZM275.166 17.092V20.9405H278.068L278.866 18.1493L275.166 17.092ZM275.822 14.796L279.522 15.8532L280.924 10.9475H275.822V14.796ZM252.616 14.796V10.9475H249.713L248.915 13.7387L252.616 14.796ZM251.96 17.092L248.259 16.0347L246.858 20.9405H251.96V17.092ZM257.7 21.684L261.416 22.6819L261.425 22.6497L261.433 22.6174L257.7 21.684ZM245.482 67.194L241.765 66.1961L241.763 66.2024L245.482 67.194ZM237.282 71.704V67.8555H234.379L233.581 70.6467L237.282 71.704ZM236.626 74L232.925 72.9427L231.524 77.8485H236.626V74ZM259.75 74V77.8485H262.652L263.45 75.0573L259.75 74ZM260.406 71.704L264.106 72.7613L265.508 67.8555H260.406V71.704ZM254.666 67.194L258.366 68.2513L258.374 68.2244L258.381 68.1974L254.666 67.194ZM260.734 44.726V40.8775H257.787L257.018 43.7226L260.734 44.726ZM284.596 44.726L288.311 45.7294L289.621 40.8775H284.596V44.726ZM278.528 67.194L274.812 66.1906L274.809 66.2024L278.528 67.194ZM270.328 71.704V67.8555H267.522L266.664 70.5263L270.328 71.704ZM269.59 74L265.926 72.8223L264.31 77.8485H269.59V74ZM292.714 74V77.8485H295.519L296.377 75.1777L292.714 74ZM293.452 71.704L297.115 72.8817L298.731 67.8555H293.452V71.704ZM287.712 67.194L291.412 68.2513L291.421 68.2185L291.43 68.1856L287.712 67.194ZM299.848 21.684L296.129 20.6924L296.129 20.6924L299.848 21.684ZM308.212 17.092V20.9405H311.114L311.912 18.1492L308.212 17.092ZM308.868 14.796L312.568 15.8532L313.97 10.9475H308.868V14.796ZM281.961 13.7387L281.305 16.0347L288.706 18.1493L289.362 15.8532L281.961 13.7387ZM285.006 20.9405H288.778V13.2435H285.006V20.9405ZM288.778 20.9405C289.181 20.9405 288.809 21.037 288.265 20.6156C287.965 20.383 287.715 20.066 287.558 19.7059C287.409 19.3656 287.389 19.0949 287.389 18.978H295.086C295.086 17.4333 294.519 15.7244 292.98 14.5319C291.616 13.475 290.014 13.2435 288.778 13.2435V20.9405ZM287.389 18.978C287.389 18.9396 287.39 19.0556 287.328 19.3966C287.27 19.7151 287.174 20.1422 287.027 20.6924L294.464 22.6756C294.8 21.4167 295.086 20.0946 295.086 18.978H287.389ZM287.026 20.6962L281.778 40.4582L289.217 42.4338L294.465 22.6718L287.026 20.6962ZM285.498 37.5975H261.554V45.2945H285.498V37.5975ZM265.269 42.4482L270.599 22.6862L263.168 20.6818L257.838 40.4438L265.269 42.4482ZM270.602 22.6756C270.815 21.8768 271.002 21.3664 271.153 21.0445C271.301 20.7294 271.368 20.6964 271.297 20.7652C271.196 20.8634 271.058 20.937 270.967 20.9655C270.923 20.9789 271.021 20.9405 271.394 20.9405V13.2435C269.715 13.2435 267.659 13.5693 265.935 15.2433C264.436 16.6982 263.69 18.7234 263.165 20.6924L270.602 22.6756ZM271.394 20.9405H275.166V13.2435H271.394V20.9405ZM278.866 18.1493L279.522 15.8532L272.121 13.7387L271.465 16.0347L278.866 18.1493ZM275.822 10.9475H252.616V18.6445H275.822V10.9475ZM248.915 13.7387L248.259 16.0347L255.66 18.1492L256.316 15.8532L248.915 13.7387ZM251.96 20.9405H255.732V13.2435H251.96V20.9405ZM255.732 20.9405C256.135 20.9405 255.763 21.037 255.219 20.6156C254.919 20.383 254.669 20.066 254.512 19.7059C254.363 19.3656 254.343 19.0949 254.343 18.978H262.04C262.04 17.4333 261.473 15.7244 259.934 14.5319C258.57 13.475 256.968 13.2435 255.732 13.2435V20.9405ZM254.343 18.978C254.343 18.8742 254.352 18.9527 254.282 19.3351C254.22 19.6753 254.118 20.1415 253.966 20.7506L261.433 22.6174C261.749 21.3547 262.04 20.012 262.04 18.978H254.343ZM253.983 20.6861L241.765 66.1961L249.198 68.1919L261.416 22.6819L253.983 20.6861ZM241.763 66.2024C241.543 67.0282 241.361 67.5433 241.215 67.8652C241.072 68.1795 241.023 68.1754 241.131 68.0706C241.277 67.929 241.452 67.8469 241.541 67.8213C241.566 67.8141 241.432 67.8555 240.972 67.8555V75.5525C242.597 75.5525 244.727 75.3054 246.49 73.5949C248.001 72.1296 248.699 70.0653 249.2 68.1856L241.763 66.2024ZM240.972 67.8555H237.282V75.5525H240.972V67.8555ZM233.581 70.6467L232.925 72.9427L240.326 75.0573L240.982 72.7613L233.581 70.6467ZM236.626 77.8485H259.75V70.1515H236.626V77.8485ZM263.45 75.0573L264.106 72.7613L256.705 70.6467L256.049 72.9427L263.45 75.0573ZM260.406 67.8555H256.716V75.5525H260.406V67.8555ZM256.716 67.8555C256.236 67.8555 256.581 67.7455 257.12 68.1525C257.424 68.3823 257.683 68.7026 257.848 69.0739C258.002 69.4236 258.022 69.7018 258.022 69.818H250.325C250.325 71.3696 250.899 73.0984 252.478 74.292C253.857 75.3345 255.473 75.5525 256.716 75.5525V67.8555ZM258.022 69.818C258.022 69.8568 258.021 69.7427 258.08 69.4252C258.135 69.1299 258.227 68.7379 258.366 68.2513L250.965 66.1367C250.613 67.3698 250.325 68.6915 250.325 69.818H258.022ZM258.381 68.1974L264.449 45.7294L257.018 43.7226L250.95 66.1906L258.381 68.1974ZM260.734 48.5745H284.596V40.8775H260.734V48.5745ZM280.88 43.7226L274.812 66.1906L282.243 68.1974L288.311 45.7294L280.88 43.7226ZM274.809 66.2024C274.597 66.9987 274.412 67.497 274.266 67.8034C274.125 68.1014 274.068 68.1145 274.156 68.0315C274.275 67.9202 274.421 67.8498 274.501 67.8261C274.53 67.8177 274.416 67.8555 274.018 67.8555V75.5525C275.623 75.5525 277.687 75.2795 279.434 73.634C280.968 72.1895 281.72 70.157 282.246 68.1856L274.809 66.2024ZM274.018 67.8555H270.328V75.5525H274.018V67.8555ZM266.664 70.5263L265.926 72.8223L273.253 75.1777L273.991 72.8817L266.664 70.5263ZM269.59 77.8485H292.714V70.1515H269.59V77.8485ZM296.377 75.1777L297.115 72.8817L289.788 70.5263L289.05 72.8223L296.377 75.1777ZM293.452 67.8555H289.68V75.5525H293.452V67.8555ZM289.68 67.8555C289.276 67.8555 289.648 67.759 290.192 68.1804C290.492 68.413 290.742 68.73 290.899 69.0901C291.048 69.4304 291.068 69.7011 291.068 69.818H283.371C283.371 71.3627 283.938 73.0716 285.477 74.2641C286.841 75.321 288.443 75.5525 289.68 75.5525V67.8555ZM291.068 69.818C291.068 69.8568 291.067 69.7427 291.126 69.4252C291.181 69.1299 291.273 68.7379 291.412 68.2513L284.011 66.1367C283.659 67.3698 283.371 68.6915 283.371 69.818H291.068ZM291.43 68.1856L303.566 22.6756L296.129 20.6924L283.993 66.2024L291.43 68.1856ZM303.566 22.6756C303.775 21.8907 303.963 21.3917 304.113 21.0806C304.259 20.7777 304.327 20.7422 304.262 20.8032C304.171 20.889 304.051 20.9498 303.983 20.9708C303.958 20.9784 304.068 20.9405 304.44 20.9405V13.2435C302.764 13.2435 300.715 13.5678 298.979 15.2053C297.443 16.6556 296.665 18.6823 296.129 20.6924L303.566 22.6756ZM304.44 20.9405H308.212V13.2435H304.44V20.9405ZM311.912 18.1492L312.568 15.8532L305.167 13.7388L304.511 16.0348L311.912 18.1492ZM308.868 10.9475H285.662V18.6445H308.868V10.9475ZM348.296 20.044L352.013 21.0434L352.021 21.0104L352.03 20.9774L348.296 20.044ZM335.176 68.834L338.886 69.8574L338.889 69.8454L338.893 69.8334L335.176 68.834ZM308.116 71.704L305.944 68.5269L295.666 75.5525H308.116V71.704ZM329.928 21.684L333.634 22.7232L333.638 22.7057L333.643 22.6881L329.928 21.684ZM321.728 14.796V10.9475H318.825L318.028 13.7387L321.728 14.796ZM321.072 17.092L317.372 16.0347L315.97 20.9405H321.072V17.092ZM327.304 21.684L331.014 22.7087L331.017 22.6966L327.304 21.684ZM315.168 56.944L311.675 55.3292L311.668 55.3428L311.662 55.3565L315.168 56.944ZM304.262 71.704V75.5525H304.901L305.506 75.346L304.262 71.704ZM299.424 71.704V67.8555H296.638L295.768 70.5025L299.424 71.704ZM293.684 89.17L290.028 87.9685L288.368 93.0185H293.684V89.17ZM295.898 89.17V93.0185H298.509L299.474 90.5918L295.898 89.17ZM303.032 76.378L300.528 73.456L300.472 73.504L300.417 73.5542L303.032 76.378ZM344.934 89.17L341.109 88.745L340.634 93.0185H344.934V89.17ZM347.066 89.17V93.0185H350.158L350.824 89.9992L347.066 89.17ZM350.92 71.704L354.678 72.5332L355.71 67.8555H350.92V71.704ZM344.606 67.522L340.891 66.5184L340.872 66.5872L340.856 66.6566L344.606 67.522ZM356.988 21.684L360.703 22.6876L360.707 22.6756L356.988 21.684ZM365.27 17.092V20.9405H368.173L368.97 18.1493L365.27 17.092ZM365.926 14.796L369.626 15.8532L371.028 10.9475H365.926V14.796ZM344.776 18.322C344.776 18.1996 344.782 18.1134 344.784 18.0892C344.787 18.0558 344.789 18.0394 344.789 18.0445C344.787 18.0551 344.781 18.1048 344.764 18.199C344.73 18.3855 344.668 18.6883 344.563 19.1106L352.03 20.9774C352.269 20.0198 352.473 19.0191 352.473 18.322H344.776ZM344.58 19.0446L331.46 67.8346L338.893 69.8334L352.013 21.0434L344.58 19.0446ZM331.466 67.8106C331.401 68.048 331.344 68.2295 331.295 68.3682C331.247 68.5076 331.213 68.584 331.197 68.6161C331.166 68.6815 331.246 68.49 331.508 68.2607C331.64 68.1462 331.785 68.0503 331.932 67.9769C332.076 67.9054 332.193 67.8701 332.258 67.8539C332.319 67.8388 332.335 67.8407 332.283 67.8455C332.23 67.8502 332.135 67.8555 331.978 67.8555V75.5525C333.116 75.5525 334.981 75.4458 336.568 74.0608C337.988 72.8227 338.547 71.085 338.886 69.8574L331.466 67.8106ZM331.978 67.8555H308.116V75.5525H331.978V67.8555ZM310.288 74.8811C312.503 73.3667 314.498 71.0236 316.342 68.1893C318.211 65.3152 320.07 61.708 321.936 57.4246C325.665 48.8587 329.554 37.2695 333.634 22.7232L326.223 20.6448C322.184 35.0444 318.406 46.2513 314.879 54.3519C313.115 58.4018 311.449 61.5954 309.889 63.9924C308.304 66.4292 306.968 67.8273 305.944 68.5269L310.288 74.8811ZM333.643 22.6881C333.96 21.5162 334.303 21.0346 334.435 20.896C334.483 20.8449 334.472 20.8716 334.396 20.9051C334.317 20.9399 334.262 20.9405 334.274 20.9405V13.2435C332.146 13.2435 330.267 14.102 328.845 15.6045C327.521 17.0034 326.716 18.8178 326.213 20.6799L333.643 22.6881ZM334.274 20.9405H346.738V13.2435H334.274V20.9405ZM346.738 20.9405C347.04 20.9405 346.642 21.0111 346.056 20.6333C345.714 20.413 345.353 20.0639 345.095 19.5728C344.842 19.0905 344.776 18.6376 344.776 18.322H352.473C352.473 16.6964 351.72 15.1277 350.229 14.1657C349.008 13.3779 347.666 13.2435 346.738 13.2435V20.9405ZM318.028 13.7387L317.372 16.0347L324.772 18.1492L325.428 15.8532L318.028 13.7387ZM321.072 20.9405H324.844V13.2435H321.072V20.9405ZM324.844 20.9405C325.394 20.9405 325.061 21.0667 324.541 20.6506C324.252 20.4195 324.032 20.1163 323.903 19.8035C323.785 19.5165 323.784 19.3209 323.784 19.306H331.481C331.481 17.7437 330.963 15.9309 329.349 14.6404C327.907 13.4862 326.18 13.2435 324.844 13.2435V20.9405ZM323.784 19.306C323.784 19.6496 323.74 20.1269 323.591 20.6714L331.017 22.6966C331.36 21.4371 331.481 20.2744 331.481 19.306H323.784ZM323.595 20.6593C319.519 35.4111 315.567 46.9101 311.675 55.3292L318.661 58.5588C322.806 49.5939 326.889 37.6409 331.014 22.7087L323.595 20.6593ZM311.662 55.3565C309.75 59.5803 307.992 62.7133 306.403 64.8688C304.752 67.1065 303.59 67.8667 303.018 68.062L305.506 75.346C308.296 74.3933 310.619 72.1195 312.597 69.4372C314.636 66.6727 316.651 62.9997 318.674 58.5315L311.662 55.3565ZM304.262 67.8555H299.424V75.5525H304.262V67.8555ZM295.768 70.5025L290.028 87.9685L297.34 90.3715L303.08 72.9055L295.768 70.5025ZM293.684 93.0185H295.898V85.3215H293.684V93.0185ZM299.474 90.5918C302.182 83.7817 304.135 80.6014 305.647 79.2018L300.417 73.5542C297.501 76.2546 295.026 80.9463 292.322 87.7482L299.474 90.5918ZM305.537 79.3C306.454 78.5133 306.992 78.2381 307.407 78.0983C307.856 77.9471 308.474 77.8485 309.756 77.8485V70.1515C308.168 70.1515 306.572 70.2579 304.951 70.8037C303.296 71.3609 301.906 72.2747 300.528 73.456L305.537 79.3ZM309.756 77.8485H339.358V70.1515H309.756V77.8485ZM339.358 77.8485C340.223 77.8485 340.721 77.932 340.995 78.0166C341.119 78.0547 341.172 78.0859 341.185 78.0935C341.193 78.0985 341.19 78.0971 341.191 78.0982C341.23 78.1424 341.742 78.8207 341.742 81.708H349.439C349.439 78.4453 348.966 75.2696 346.955 72.9973C344.803 70.5653 341.803 70.1515 339.358 70.1515V77.8485ZM341.742 81.708C341.742 82.7544 341.53 84.9582 341.109 88.745L348.759 89.595C349.158 86.0018 349.439 83.2856 349.439 81.708H341.742ZM344.934 93.0185H347.066V85.3215H344.934V93.0185ZM350.824 89.9992L354.678 72.5332L347.162 70.8748L343.308 88.3408L350.824 89.9992ZM350.92 67.8555H346.738V75.5525H350.92V67.8555ZM346.738 67.8555C346.258 67.8555 346.604 67.7455 347.142 68.1525C347.446 68.3823 347.706 68.7026 347.87 69.0739C348.025 69.4236 348.045 69.7018 348.045 69.818H340.348C340.348 71.3696 340.922 73.0984 342.5 74.292C343.879 75.3345 345.496 75.5525 346.738 75.5525V67.8555ZM348.045 69.818C348.045 69.9438 348.034 69.9942 348.043 69.9215C348.051 69.8638 348.066 69.7643 348.094 69.6132C348.15 69.3084 348.237 68.9025 348.356 68.3874L340.856 66.6566C340.729 67.2075 340.611 67.7446 340.524 68.2188C340.449 68.6245 340.348 69.2323 340.348 69.818H348.045ZM348.321 68.5256L360.703 22.6876L353.273 20.6804L340.891 66.5184L348.321 68.5256ZM360.707 22.6756C360.92 21.8768 361.106 21.3664 361.257 21.0445C361.405 20.7294 361.472 20.6964 361.401 20.7652C361.3 20.8634 361.163 20.937 361.071 20.9655C361.028 20.9789 361.125 20.9405 361.498 20.9405V13.2435C359.82 13.2435 357.763 13.5693 356.039 15.2433C354.541 16.6982 353.795 18.7234 353.27 20.6924L360.707 22.6756ZM361.498 20.9405H365.27V13.2435H361.498V20.9405ZM368.97 18.1493L369.626 15.8532L362.226 13.7387L361.57 16.0347L368.97 18.1493ZM365.926 10.9475H321.728V18.6445H365.926V10.9475ZM371.432 14.796V10.9475H368.529L367.732 13.7387L371.432 14.796ZM370.776 17.092L367.076 16.0347L365.674 20.9405H370.776V17.092ZM376.516 21.684L380.233 22.6819L380.235 22.6756L376.516 21.684ZM364.298 67.194L360.581 66.1961L360.58 66.2024L364.298 67.194ZM356.098 71.704V67.8555H353.195L352.398 70.6467L356.098 71.704ZM355.442 74L351.742 72.9427L350.34 77.8485H355.442V74ZM398.164 74V77.8485H400.935L401.814 75.2211L398.164 74ZM405.544 51.942L409.194 53.1631L410.89 48.0935H405.544V51.942ZM403.33 51.942V48.0935H400.717L399.753 50.5229L403.33 51.942ZM394.392 69.162L397.397 71.5661L397.406 71.5549L397.415 71.5437L394.392 69.162ZM389.718 71.622L390.262 75.4318L390.368 75.4167L390.473 75.3957L389.718 71.622ZM373.482 67.194L377.183 68.2513L377.192 68.2193L377.2 68.1873L373.482 67.194ZM379.55 44.48V40.6315H376.595L375.832 43.4867L379.55 44.48ZM389.882 56.616L386.145 55.6992L384.976 60.4645H389.882V56.616ZM392.014 56.616V60.4645H394.959L395.729 57.6218L392.014 56.616ZM399.23 29.966L402.945 30.9718L404.259 26.1175H399.23V29.966ZM397.098 29.966V26.1175H394.176L393.391 28.9328L397.098 29.966ZM392.998 39.806L390.13 37.2399L390.092 37.2829L390.055 37.3271L392.998 39.806ZM380.206 42.102L376.49 41.102L375.185 45.9505H380.206V42.102ZM385.7 21.684L381.986 20.678L381.984 20.684L385.7 21.684ZM405.708 18.076L407.984 14.9726L407.984 14.9726L405.708 18.076ZM406.118 34.312L402.312 33.7411L401.649 38.1605H406.118V34.312ZM408.332 34.312V38.1605H411.443L412.095 35.1184L408.332 34.312ZM412.514 14.796L416.277 15.6024L417.275 10.9475H412.514V14.796ZM367.732 13.7387L367.076 16.0347L374.477 18.1492L375.133 15.8532L367.732 13.7387ZM370.776 20.9405H374.548V13.2435H370.776V20.9405ZM374.548 20.9405C374.952 20.9405 374.58 21.037 374.036 20.6156C373.736 20.383 373.486 20.066 373.328 19.7059C373.179 19.3656 373.16 19.0949 373.16 18.978H380.857C380.857 17.4333 380.289 15.7244 378.751 14.5319C377.387 13.475 375.784 13.2435 374.548 13.2435V20.9405ZM373.16 18.978C373.16 18.9396 373.161 19.0556 373.099 19.3966C373.041 19.7151 372.944 20.1422 372.798 20.6924L380.235 22.6756C380.57 21.4166 380.857 20.0946 380.857 18.978H373.16ZM372.799 20.6861L360.581 66.1961L368.015 68.1919L380.233 22.6819L372.799 20.6861ZM360.58 66.2024C360.367 66.9987 360.183 67.497 360.037 67.8034C359.895 68.1014 359.839 68.1145 359.927 68.0315C360.045 67.9202 360.192 67.8498 360.272 67.8261C360.301 67.8177 360.187 67.8555 359.788 67.8555V75.5525C361.394 75.5525 363.458 75.2795 365.205 73.634C366.738 72.1895 367.491 70.157 368.017 68.1856L360.58 66.2024ZM359.788 67.8555H356.098V75.5525H359.788V67.8555ZM352.398 70.6467L351.742 72.9427L359.143 75.0573L359.799 72.7613L352.398 70.6467ZM355.442 77.8485H398.164V70.1515H355.442V77.8485ZM401.814 75.2211L409.194 53.1631L401.895 50.7209L394.515 72.7789L401.814 75.2211ZM405.544 48.0935H403.33V55.7905H405.544V48.0935ZM399.753 50.5229C395.899 60.2371 393.194 64.4641 391.369 66.7803L397.415 71.5437C399.854 68.4479 402.889 63.4909 406.908 53.3611L399.753 50.5229ZM391.387 66.7579C391.229 66.9556 390.942 67.184 390.458 67.3997C389.976 67.6143 389.447 67.7515 388.963 67.8483L390.473 75.3957C391.791 75.132 395.162 74.3601 397.397 71.5661L391.387 66.7579ZM389.174 67.8122C388.941 67.8456 388.465 67.8555 387.094 67.8555V75.5525C388.183 75.5525 389.348 75.5624 390.262 75.4318L389.174 67.8122ZM387.094 67.8555H375.532V75.5525H387.094V67.8555ZM375.532 67.8555C375.052 67.8555 375.398 67.7455 375.937 68.1525C376.24 68.3823 376.5 68.7026 376.664 69.0739C376.819 69.4236 376.839 69.7018 376.839 69.818H369.142C369.142 71.3696 369.716 73.0984 371.294 74.292C372.673 75.3345 374.29 75.5525 375.532 75.5525V67.8555ZM376.839 69.818C376.839 69.8568 376.838 69.7427 376.897 69.4252C376.952 69.1299 377.044 68.7379 377.183 68.2513L369.782 66.1367C369.43 67.3698 369.142 68.6915 369.142 69.818H376.839ZM377.2 68.1873L383.268 45.4733L375.832 43.4867L369.764 66.2007L377.2 68.1873ZM379.55 48.3285H386.93V40.6315H379.55V48.3285ZM386.93 48.3285C387.493 48.3285 387.835 48.3735 388.023 48.4172C388.202 48.4586 388.132 48.4732 387.973 48.3502C387.893 48.2881 387.815 48.2091 387.749 48.119C387.683 48.0302 387.649 47.9576 387.636 47.9224C387.613 47.8649 387.674 47.9856 387.674 48.416H395.371C395.371 46.2215 394.752 43.8688 392.693 42.2703C390.868 40.853 388.625 40.6315 386.93 40.6315V48.3285ZM387.674 48.416C387.674 48.3993 387.67 48.5539 387.608 48.9759C387.551 49.3644 387.46 49.877 387.329 50.5258C387.068 51.8227 386.673 53.5469 386.145 55.6992L393.62 57.5328C394.158 55.3391 394.582 53.4963 394.875 52.0462C395.143 50.7129 395.371 49.3884 395.371 48.416H387.674ZM389.882 60.4645H392.014V52.7675H389.882V60.4645ZM395.729 57.6218L402.945 30.9718L395.516 28.9602L388.3 55.6102L395.729 57.6218ZM399.23 26.1175H397.098V33.8145H399.23V26.1175ZM393.391 28.9328C392.715 31.3605 392.085 33.2685 391.491 34.71C390.873 36.2069 390.395 36.9437 390.13 37.2399L395.866 42.3721C396.995 41.1103 397.87 39.4281 398.606 37.645C399.364 35.8065 400.088 33.5735 400.805 30.9992L393.391 28.9328ZM390.055 37.3271C389.605 37.8612 388.967 38.2535 387.586 38.2535V45.9505C390.797 45.9505 393.768 44.8668 395.942 42.2849L390.055 37.3271ZM387.586 38.2535H380.206V45.9505H387.586V38.2535ZM383.923 43.102L389.417 22.684L381.984 20.684L376.49 41.102L383.923 43.102ZM389.415 22.69C389.662 21.7766 389.86 21.1908 390.021 20.8113C390.184 20.4274 390.241 20.4224 390.127 20.5441C390.061 20.6149 389.961 20.7031 389.828 20.7847C389.696 20.8658 389.577 20.9132 389.494 20.9383C389.366 20.9771 389.394 20.9405 389.8 20.9405V13.2435C388.349 13.2435 386.232 13.4452 384.512 15.2799C383.163 16.7189 382.504 18.7637 381.986 20.678L389.415 22.69ZM389.8 20.9405H401.526V13.2435H389.8V20.9405ZM401.526 20.9405C402.072 20.9405 402.444 20.946 402.731 20.9617C403.012 20.9769 403.132 20.9983 403.171 21.0069C403.188 21.0104 403.188 21.0113 403.178 21.008C403.168 21.0046 403.162 21.0018 403.165 21.0029C403.172 21.0065 403.247 21.0435 403.432 21.1794L407.984 14.9726C407.067 14.2998 406.084 13.7626 404.801 13.4846C403.719 13.2502 402.572 13.2435 401.526 13.2435V20.9405ZM403.432 21.1794C403.039 20.891 403.082 20.6056 403.198 21.1116C403.33 21.6866 403.418 22.6716 403.418 24.39H411.115C411.115 22.5824 411.038 20.8614 410.699 19.3864C410.344 17.8424 409.607 16.163 407.984 14.9726L403.432 21.1794ZM403.418 24.39C403.418 25.7634 403.064 28.7281 402.312 33.7411L409.924 34.8829C410.648 30.0559 411.115 26.4606 411.115 24.39H403.418ZM406.118 38.1605H408.332V30.4635H406.118V38.1605ZM412.095 35.1184L416.277 15.6024L408.751 13.9896L404.569 33.5056L412.095 35.1184ZM412.514 10.9475H371.432V18.6445H412.514V10.9475Z" fill="#FEFF8B"/>
</svg>
