<svg width="97" height="97" viewBox="0 0 97 97" fill="none" xmlns="http://www.w3.org/2000/svg">
<path d="M61.208 95.766C61.596 95.5215 61.936 95.1792 62.324 95.0814C66.1796 94.1523 69.1379 91.7806 71.9266 89.1399C79.1043 82.3428 83.8086 74.0787 85.2151 64.2253C85.9911 58.7241 85.6516 53.1494 84.6089 47.6481C82.7902 38.0147 79.4439 28.9927 73.8666 20.8997C67.7801 12.0487 59.8259 5.74055 49.1805 3.41779C45.6159 2.63538 42.076 2.73324 38.7538 4.4692C31.4063 8.25897 25.9741 13.7113 23.816 22.0244C23.5007 23.2224 23.2582 24.4694 23.1855 25.7164C22.555 36.0343 23.9129 45.9855 28.6415 55.301C28.981 55.9611 29.3691 56.5969 29.9268 57.5504C30.436 56.1812 30.7513 55.1298 31.2121 54.1763C32.2548 52.098 33.3705 50.0442 34.5102 47.9904C35.3347 46.5234 36.7165 45.6921 38.3169 45.6432C41.0086 45.5699 43.7005 45.741 46.4164 45.8633C46.6589 45.8633 46.9011 46.1811 47.3133 46.4745C45.1066 48.8462 43.5789 51.5112 42.4877 54.4697C40.96 58.5773 40.0142 62.8561 39.3838 67.1838C38.8018 71.2425 39.1416 71.1202 34.8737 71.4626C33.8795 71.5603 32.8611 71.487 31.8669 71.6337C28.2295 72.1716 25.0284 71.1936 21.9487 69.2376C17.6566 66.5236 13.7769 63.2962 9.99404 59.9466C6.96289 57.257 3.90749 54.6164 0.900587 51.9024C0.488351 51.5112 -0.0454159 50.9 0.00308253 50.4599C0.0515809 50.0687 0.827674 49.653 1.33691 49.4818C2.13713 49.2129 2.98592 49.0662 3.83464 49.0417C5.70183 48.9928 7.54489 49.0173 9.41208 49.1151C11.1338 49.2129 12.7098 49.5797 13.5101 51.5357C13.8495 52.367 14.8922 52.9293 15.9107 53.4183C15.7895 52.9293 15.6926 52.4403 15.4987 51.9758C11.837 43.0026 11.0855 33.6382 12.0555 24.1271C12.5647 19.0903 14.9164 14.7138 18.2871 10.9973C24.3009 4.34691 31.7211 0.630506 40.7418 0.165953C45.8584 -0.102998 50.9752 -0.103016 56.0432 0.606038C63.124 1.60849 69.3805 4.49362 75.0305 8.87019C81.1656 13.638 85.6998 19.7016 89.1674 26.621C94.1628 36.6211 96.9756 47.1347 96.9999 58.4062C97.0241 68.1129 93.7505 76.6215 87.9792 84.201C84.4146 88.871 80.2683 92.9542 74.9334 95.5703C73.7695 96.1327 72.4599 96.5239 71.199 96.6462C68.6528 96.8907 66.1069 96.9396 63.5364 96.9885C62.6392 97.0129 61.596 97.1107 61.208 95.766Z" fill="#231F1C"/>
</svg>
