<svg width="94" height="61" viewBox="0 0 94 61" fill="none" xmlns="http://www.w3.org/2000/svg">
<path d="M16.2718 31.0946C18.5901 30.8781 20.9084 30.6949 23.2182 30.4452C31.5927 29.5128 39.9587 28.5638 48.3331 27.5981C55.8507 26.7323 63.3852 26.1162 70.9448 25.8332C76.8833 25.6167 82.8302 25.6584 88.7688 25.7333C89.9531 25.7499 91.1291 26.4076 92.2882 26.8072C92.4562 26.8655 92.6158 27.1235 92.6662 27.315C92.7922 27.7729 92.9266 28.2557 92.935 28.7302C92.9518 29.6959 92.9182 30.6617 92.8594 31.6274C92.767 32.9594 92.3134 33.4339 91.0619 33.8668C88.3824 34.7992 85.6105 35.2903 82.8135 35.6483C77.0765 36.3892 71.3228 37.0969 65.5691 37.6962C58.0514 38.4788 50.517 39.1365 42.9993 39.8774C36.9348 40.4768 30.8787 41.1178 24.8226 41.7422C23.6382 41.867 22.4539 42.0335 21.2863 42.3749C21.6811 42.3749 22.0759 42.3749 22.4707 42.3749C38.9507 42.3749 55.4307 42.3582 71.9108 42.3915C74.8422 42.3999 77.7821 42.5497 80.7052 42.7745C82.1919 42.891 83.6618 43.2906 85.1318 43.5986C85.8457 43.7485 86.2237 44.3146 86.3497 44.939C86.5345 45.8797 86.5765 46.8454 86.6773 47.8028C86.6857 47.911 86.6605 48.0275 86.6437 48.1357C86.5177 48.8184 86.6185 49.7425 86.2069 50.1254C85.5937 50.6998 84.6446 51.0578 83.7878 51.2243C81.7299 51.6322 79.6468 51.9902 77.5469 52.1817C71.8184 52.7145 66.0814 53.1474 60.3445 53.6302C60.2773 53.6386 60.2017 53.6718 59.9665 53.7551C61.5037 53.7551 62.8728 53.805 64.2335 53.7467C68.2569 53.5636 72.2719 53.2556 76.2954 53.1474C81.4107 53.0142 86.5261 53.0308 91.6414 52.9809C91.717 52.9809 91.7926 52.9809 91.8682 52.9809C93.2206 53.0225 93.9093 53.5969 93.9765 54.9123C94.0353 56.0278 93.9681 57.1434 93.9429 58.2672C93.9261 58.7584 93.6909 59.1164 93.1702 59.2246C92.4814 59.3744 91.7926 59.6325 91.0955 59.6575C81.8055 59.9905 72.5155 59.9073 63.2256 59.5576C61.3525 59.491 59.4626 59.5659 57.5894 59.6658C50.1894 60.0571 42.7977 60.5815 35.3893 60.8812C30.6519 61.0727 25.9061 60.9812 21.1687 60.9562C18.4977 60.9395 15.8266 60.8563 13.1639 60.6814C12.0132 60.6065 10.8708 60.2902 9.75367 59.9739C9.05651 59.7741 8.69533 59.133 8.62813 58.442C8.50213 57.1433 8.43492 55.8446 8.40132 54.5376C8.37612 53.4221 8.9809 52.6562 10.0645 52.2982C11.7864 51.7238 13.5419 51.3409 15.3478 51.1827C20.5892 50.7082 25.8305 50.167 31.0803 49.8174C39.8663 49.243 48.6523 48.7934 57.4466 48.2939C58.4798 48.2356 59.5214 48.1774 60.5545 48.1191C60.5545 48.0275 60.5545 47.9443 60.5545 47.8527C60.0925 47.8527 59.6305 47.8527 59.1686 47.8527C46.0904 47.8527 33.0206 47.861 19.9424 47.8527C17.3889 47.8527 14.827 47.836 12.2735 47.7611C10.9632 47.7195 9.64448 47.5863 8.34254 47.4198C7.83857 47.3532 7.35138 47.1034 6.8558 46.9369C6.11664 46.6872 5.79746 46.1211 5.73866 45.4052C5.63786 44.1065 5.57068 42.8078 5.51188 41.5008C5.46989 40.6433 5.77227 39.9689 6.66263 39.6609C7.57818 39.3362 8.46852 38.9117 9.40088 38.6786C14.1551 37.5048 19.01 36.9054 23.865 36.3643C29.9211 35.69 35.9773 35.0489 42.0418 34.4412C47.0899 33.9333 52.1549 33.5005 57.2115 33.0176C61.9656 32.5681 66.7198 32.0936 71.474 31.6274C71.9612 31.5774 72.4315 31.4692 72.9187 31.2527C72.4399 31.2527 71.9612 31.2278 71.4824 31.2611C64.3931 31.7522 57.287 32.1102 50.223 32.9343C41.5966 33.9417 32.9618 34.8741 24.3354 35.8647C17.9769 36.5973 11.5932 36.8721 5.19269 36.7805C4.06714 36.7639 2.95 36.5474 1.83285 36.3976C0.950888 36.281 0.329314 35.6649 0.253722 34.8075C0.161322 33.7335 0.161337 32.6513 0.026938 31.5774C-0.166246 29.9957 0.698905 29.3463 1.99245 28.6886C2.62242 28.3723 3.33638 28.2224 4.00835 27.9893C4.32753 27.8811 4.63832 27.7563 5.0079 27.6231C4.9323 26.4825 4.8567 25.3753 4.7811 24.2681C4.7643 23.9684 4.7559 23.6687 4.7559 23.3773C4.7559 21.8788 4.9575 21.5625 6.42744 21.1962C7.84697 20.8382 9.2833 20.4969 10.728 20.2804C16.339 19.4313 21.9583 18.6321 27.5776 17.8162C27.754 17.7913 27.9304 17.7579 28.0984 17.5415C27.6196 17.5415 27.1409 17.5415 26.6621 17.5415C23.0503 17.5415 19.4384 17.5665 15.8266 17.5332C14.0963 17.5165 12.3744 17.375 10.644 17.2918C10.4928 17.2834 10.3416 17.2668 10.1989 17.2335C8.13254 16.7257 8.00655 16.5259 7.93935 14.6611C7.90575 13.6538 7.81338 12.6548 7.79658 11.6475C7.78818 11.1729 7.85536 10.7234 8.30054 10.3488C8.51893 10.1656 8.55253 9.69941 8.56933 9.34976C8.59453 8.83362 8.50214 8.31743 8.51894 7.80128C8.53574 7.03539 8.72053 6.81061 9.50169 6.71071C10.3921 6.59417 11.2992 6.50259 12.198 6.45264C15.3898 6.27782 18.5901 6.14466 21.7819 5.96983C28.804 5.58688 35.8344 5.27886 42.8481 4.77104C46.4012 4.51296 49.9374 3.88855 53.4736 3.38073C61.848 2.16529 70.2141 0.883281 78.6473 0.19231C81.0411 -0.00748923 83.4602 0.0757259 85.8625 0.000801391C86.5009 -0.0158485 86.8201 0.225584 86.9713 0.841631C87.3324 2.32347 87.2149 3.81366 86.9797 5.27885C86.8453 6.13632 85.6861 6.92719 84.7538 7.04374C84.317 7.09369 83.8886 7.21023 83.4434 7.30181C83.351 7.77633 83.267 8.17594 83.183 8.61717C83.8382 9.06671 84.0734 9.75766 84.0818 10.5152C84.0986 11.5226 84.0482 12.5299 84.0398 13.5289C84.0398 14.0367 83.8382 14.3697 83.3426 14.5445C82.3515 14.8775 81.3687 15.2272 80.3776 15.5685C80.134 15.6517 79.882 15.7267 79.5628 15.8182C79.5292 16.4509 79.4704 17.0836 79.4704 17.708C79.4704 18.8152 78.9916 19.4396 77.8829 19.8225C73.7083 21.2627 69.4161 22.1868 65.0735 22.8944C53.65 24.7509 42.2098 26.5075 30.7779 28.339C26.0321 29.0966 21.2947 29.954 16.5574 30.7615C16.4566 30.7782 16.3557 30.8281 16.255 30.8614C16.2466 30.928 16.255 31.0113 16.2718 31.0946ZM32.3654 55.2119C34.4233 55.5616 49.8534 54.7291 50.811 54.2047C44.6624 54.546 38.5139 54.8789 32.3654 55.2119Z" fill="#231F1C"/>
</svg>
