<svg width="57" height="67" viewBox="0 0 57 67" fill="none" xmlns="http://www.w3.org/2000/svg">
<path d="M0 4.64459C1.70733 3.55319 3.37352 3.26493 5.14256 3.32671C6.78817 3.38849 8.43379 3.34732 10.2851 3.34732C10.244 2.66777 10.2236 1.98818 10.1824 1.30864C10.4293 1.10271 10.5731 0.896791 10.7994 0.793829C13.1649 -0.194604 15.6541 0.134864 18.1225 0.0113098C21.064 -0.132837 22.6068 1.1027 24.0673 3.61497C26.6592 8.04232 29.8063 12.1402 32.7067 16.3822C32.9535 16.7323 33.1181 17.1236 33.509 17.8649C37.6642 12.099 42.1278 8.22765 49.3274 8.94838C54.655 9.48378 55.2104 9.3191 57 11.0694C56.3623 12.0579 55.334 12.0372 54.3878 11.9755C51.7137 11.7695 49.8007 12.9433 48.2373 14.982C45.6043 18.4003 42.9917 21.798 40.3176 25.1752C39.5771 26.1224 39.6387 26.8638 40.2764 27.8522C46.5915 37.6542 51.0346 48.3828 55.4572 59.132C55.6424 59.585 55.8071 60.0586 55.91 60.5322C55.9717 60.8411 55.9306 61.1706 55.9306 61.7678C54.6141 61.8913 53.3181 62.0561 52.0428 62.159C49.9035 62.3032 47.7436 62.3855 45.6043 62.5091C44.658 62.5709 43.9792 62.2414 43.7941 61.2324C43.1564 57.9582 41.4285 56.352 37.911 57.1963C35.5455 57.7729 34.27 56.3726 33.1798 54.4987C31.3902 51.4304 29.4978 48.4239 27.3997 44.985C26.7003 46.0146 26.1653 46.6942 25.7334 47.4149C22.401 52.8513 19.0481 58.2877 15.7569 63.7652C14.6049 65.6803 13.2472 66.8129 10.7994 66.6688C8.4955 66.5452 6.17108 66.957 3.86721 66.9982C2.01589 67.0394 1.48105 66.3804 1.7896 64.5683C1.93359 63.6828 2.24225 62.7974 2.67423 61.9943C4.81353 57.9582 7.03496 53.9839 9.19483 49.9684C9.66794 49.1035 10.2851 48.5681 11.2724 48.4033C12.6712 48.1562 13.5763 47.3325 14.3168 46.1176C16.0858 43.2141 17.9167 40.3311 19.8503 37.5306C20.7965 36.1509 20.7759 35.1419 19.768 33.7828C14.4814 26.5343 9.27715 19.2446 4.09345 11.9343C2.90038 10.2457 1.76897 8.49537 0.699317 6.72443C0.329053 6.10666 0.226272 5.36532 0 4.64459Z" fill="#231F1C"/>
</svg>
