<svg width="403" height="288" viewBox="0 0 403 288" fill="none" xmlns="http://www.w3.org/2000/svg">
<path d="M364.86 57.0167C364.567 61.6069 362.657 65.6336 360.616 69.6159C360.071 70.6695 359.326 71.2028 358.146 71.0935C355.341 70.8223 352.531 70.5758 349.731 70.2677C348.331 70.1137 348.276 69.6272 348.893 68.4206C350.268 65.7258 351.855 63.0493 352.639 60.1801C353.896 55.5418 354.682 50.7593 353.871 45.8821C353.063 41.0683 350.942 37.0573 346.921 34.1539C346.215 33.6479 345.731 32.8219 345.138 32.1435C345.956 31.8853 346.77 31.3998 347.573 31.4164C349.194 31.439 350.828 31.6273 352.42 31.9352C360.265 33.4709 363.704 39.1473 365.071 46.2583C365.745 49.7434 365.308 53.4311 365.374 57.0288C365.198 57.0283 365.022 57.0277 364.86 57.0167Z" fill="#231F1C"/>
<path d="M384.152 55.5788C383.37 60.7648 380.328 64.6136 377.059 68.2909C376.546 68.8707 375.36 69.1507 374.498 69.1004C371.675 68.9526 368.868 68.6057 366.059 68.2711C365.625 68.2204 365.243 67.8246 364.834 67.6014C365.089 67.2357 365.334 66.856 365.611 66.5062C367.152 64.5783 368.877 62.7655 370.199 60.6925C372.403 57.2375 373.266 53.3978 372.417 49.2956C372.231 48.4124 372.578 48.0223 373.371 48.0248C375.145 48.032 376.92 48.0269 378.671 48.1944C379.95 48.3181 381.231 48.5933 382.456 48.9988C382.997 49.1784 383.714 49.7866 383.791 50.289C384.027 52.0356 384.045 53.8132 384.152 55.5788Z" fill="#231F1C"/>
<path d="M112.477 137.29C110.121 130.148 111.19 123.342 113.196 116.673C114.81 111.306 117.596 106.451 120.692 101.804C129.404 88.6987 139.66 76.9143 151.137 66.1642C156.111 61.5021 161.192 56.9689 166.042 52.2007C169.262 49.0325 172.107 45.4948 175.185 42.1799C176.125 41.1716 177.287 40.3718 178.348 39.4818C179.751 38.3269 181.482 38.1138 183.146 38.2687C185.356 38.4781 187.55 38.9746 189.74 39.4077C191.355 39.7315 191.636 40.5657 190.469 41.7425C188.055 44.1345 185.673 46.569 183.098 48.7738C179.314 52.0108 176.19 55.7343 174.143 60.2698C171.562 65.9611 169.041 71.6737 166.685 77.4608C165.955 79.2679 165.782 81.3198 165.483 83.2779C165.237 84.8786 165.611 85.2479 167.177 84.8722C172.644 83.5554 178.095 82.1734 183.535 80.7895C192.581 78.4972 201.721 76.7724 211.114 77.1114C217.852 77.3523 224.544 78.0776 230.823 80.7695C234.508 82.3524 237.435 84.8948 238.508 88.9289C239.494 92.6105 238.871 96.2712 237.375 99.7038C235.072 104.957 231.67 109.547 228.203 114.064C224.547 118.843 220.708 123.494 216.962 128.197C216.854 128.332 216.778 128.51 216.837 128.884C217.192 128.696 217.555 128.535 217.901 128.321C229.836 121.251 241.879 114.386 253.649 107.065C266.732 98.9415 278.762 89.4052 289.834 78.6715C291.082 77.4563 292.252 76.1667 293.456 74.9073C293.546 74.8071 293.567 74.6592 293.606 74.5642C290.325 74.274 287.072 74.0508 283.83 73.6656C282.109 73.4647 280.382 73.137 278.736 72.5946C276.55 71.8726 275.943 70.6005 276.297 68.3483C277.003 63.9444 279.454 60.4372 282.11 57.0735C286.909 51.0261 292.765 46.2663 299.761 42.9317C303.561 41.1323 307.523 40.4645 311.672 41.196C313.538 41.5189 315.408 41.8171 317.239 42.2984C321.918 43.5355 322.831 45.6453 321.749 49.9565C320.641 54.3522 318.145 58.0794 315.954 61.9643C314.174 65.1035 312.04 67.9898 309.749 70.7522C307.413 73.5585 306.002 76.7517 305.014 80.2457C303.078 87.0383 303.387 93.718 306.459 100.008C309.542 106.312 313.112 112.385 316.562 118.504C319.764 124.171 322.032 130.104 321.696 136.715C321.557 139.565 320.854 142.396 320.414 145.24C320.326 145.756 320.213 146.268 320.06 146.976C323.084 146.007 325.839 145.075 328.643 144.238C339.844 140.901 351.219 138.52 362.977 138.525C368.719 138.519 374.427 139.088 379.97 140.615C381.749 141.102 383.546 141.905 385.052 142.969C387.983 145.058 388.294 148.188 387.859 151.511C387.254 156.257 384.561 159.956 381.679 163.488C374.555 172.268 365.85 179.381 357.072 186.384C343.334 197.358 328.764 207.127 313.952 216.572C302.597 223.815 291.366 231.24 280.063 238.553C279.45 238.955 278.623 239.275 277.913 239.221C275.194 239.051 272.48 238.755 269.782 238.437C269.262 238.374 268.783 237.951 268.292 237.691C268.621 237.248 268.857 236.665 269.289 236.376C278.738 230.126 288.082 223.723 297.685 217.71C313.827 207.603 329.729 197.159 344.719 185.373C352.613 179.161 360.345 172.761 367.246 165.422C370.525 161.935 373.712 158.296 375.442 153.777C376.261 151.618 376.524 149.126 376.473 146.802C376.418 144.251 374.145 142.056 371.381 142.018C366.832 141.958 362.226 142.028 357.729 142.656C343.53 144.624 330.056 149.128 317.035 155.019C316.347 155.334 315.628 155.859 315.223 156.48C309.502 165.313 302.14 172.623 293.963 179.134C279.914 190.339 265.272 200.69 249.523 209.394C246.565 211.027 243.455 212.587 240.223 213.424C236.349 214.432 232.326 213.442 228.412 212.745C227.002 212.489 226.491 211.331 227.193 209.973C227.95 208.498 228.87 207.021 230.026 205.83C236.942 198.732 244.681 192.547 252.513 186.502C264.318 177.386 276.408 168.652 289.477 161.395C294.08 158.844 298.803 156.499 303.393 153.947C304.38 153.398 305.283 152.473 305.866 151.5C308.4 147.25 309.676 142.564 310.214 137.67C310.988 130.645 308.918 124.3 305.46 118.318C303.182 114.347 300.738 110.478 298.503 106.476C295.428 100.978 293.018 95.2382 292.428 88.8448C292.261 88.6945 292.082 88.5425 291.915 88.3922C291.685 88.7614 291.518 89.2155 291.202 89.484C277.224 101.493 261.868 111.475 245.929 120.617C232.328 128.413 218.696 136.155 205.674 144.892C201.236 147.87 196.949 151.02 193.829 155.487C193.592 155.818 193.173 156.273 192.874 156.254C191.132 156.113 190.014 157.133 188.89 158.191C184.63 162.189 180.622 166.363 177.6 171.448C174.531 176.602 172.964 182.165 172.378 188.072C171.635 195.58 172.525 202.848 175.857 209.692C178.374 214.869 182.083 219.212 185.925 223.424C192.753 230.892 201.165 236.224 210.016 240.878C210.718 241.245 212.004 241.055 212.793 240.654C219.501 237.303 226.235 233.955 232.826 230.372C238.104 227.505 243.184 224.268 248.424 221.319C249.343 220.799 250.646 220.674 251.738 220.783C253.911 220.987 256.063 221.427 258.202 221.866C258.716 221.966 259.167 222.409 259.653 222.707C259.309 223.16 259.07 223.767 258.614 224.041C256.14 225.555 253.667 227.058 251.113 228.422C241.856 233.365 232.579 238.268 223.294 243.144C221.999 243.823 220.593 244.311 219.198 244.9C219.319 245.107 219.368 245.29 219.463 245.329C226.085 248.084 232.726 250.803 239.932 251.629C241.382 251.79 242.883 251.594 244.348 251.392C245.183 251.275 246.002 250.5 246.771 250.575C249.665 250.846 252.558 251.294 255.432 251.789C256.254 251.934 256.528 252.642 255.711 253.152C254.7 253.785 253.584 254.616 252.481 254.669C248.967 254.849 245.433 254.912 241.921 254.651C232.579 253.967 223.541 251.804 214.868 248.259C213.335 247.632 212.023 247.654 210.455 248.219C196.919 253.066 182.912 255.528 168.563 256.114C152.897 256.748 137.479 254.912 122.199 251.523C113.055 249.483 104.354 246.299 96.3343 241.389C87.8516 236.198 80.982 229.53 77.2744 220.088C74.6611 213.411 74.1594 206.414 75.1342 199.393C76.1703 191.865 77.7119 184.41 78.9312 176.921C80.3497 168.24 82.006 159.569 81.6246 150.713C81.0621 137.148 75.1751 126.594 63.5414 119.444C57.0599 115.464 49.876 114.743 42.504 115.567C38.7679 115.979 35.0833 116.813 31.3833 117.494C27.2444 118.249 23.1753 117.491 19.1093 116.885C18.7025 116.826 18.1964 116.412 18.0496 116.038C17.9569 115.811 18.3779 115.255 18.6923 114.999C29.4441 106.459 41.3124 101.482 55.3978 103.136C75.337 105.48 91.7247 114.646 105.415 129.008C107.807 131.598 109.97 134.368 112.477 137.29ZM37.2161 111.862C37.2862 111.985 37.3545 112.121 37.4246 112.245C37.6642 112.242 37.9056 112.227 38.1575 112.226C48.2867 111.917 58.321 112.69 67.8623 116.236C79.3744 120.51 87.0921 128.699 91.0289 140.365C93.4433 147.541 93.5456 154.946 92.5433 162.328C91.332 171.228 89.6259 180.069 88.2032 188.951C87.1364 195.568 85.86 202.155 86.1668 208.935C86.6259 218.897 90.469 227.239 97.6622 234.105C104.492 240.616 112.625 244.926 121.499 247.783C132.513 251.33 143.89 252.991 155.445 253.091C171.928 253.244 187.924 250.431 203.377 244.617C203.696 244.5 203.98 244.277 204.42 244.026C202.546 243.061 200.856 242.222 199.197 241.338C188.379 235.591 178.559 228.606 170.864 218.884C166.25 213.061 162.612 206.852 161.343 199.415C160.243 192.985 160.666 186.639 162.017 180.315C162.21 179.424 162.328 178.786 161.118 178.622C160.761 178.57 160.424 178.03 160.179 177.642C159.746 176.987 159.544 176.126 158.987 175.63C156.201 173.158 153.529 170.502 150.456 168.442C143.817 163.985 136.878 159.951 130.209 155.528C126.536 153.09 123.142 150.215 119.632 147.525C119.145 147.152 118.734 146.689 118.281 146.258C118.897 148.072 119.754 149.708 120.582 151.365C124.95 160.161 127.604 169.575 130.525 178.889C133.642 188.837 137.536 198.47 142.529 207.646C144.165 210.667 146.098 213.467 148.679 215.796C148.956 216.05 149.039 216.515 149.211 216.893C148.855 217.005 148.512 217.194 148.142 217.228C147.709 217.265 147.253 217.199 146.818 217.161C145.285 217.05 143.75 216.876 142.222 216.817C140.056 216.74 137.97 216.536 136.516 214.599C135.651 213.453 134.523 212.47 133.81 211.233C131.593 207.359 129.38 203.46 127.41 199.446C122.114 188.639 118.906 177.067 115.221 165.664C110.717 151.763 104.098 139.063 93.8632 128.454C84.6997 118.958 74.0635 111.702 61.4534 107.532C58.3788 106.517 55.1911 105.586 51.9434 106.446C48.3817 107.386 44.8635 108.547 41.3873 109.764C39.9288 110.269 38.6048 111.146 37.2161 111.862ZM155.07 75.274C154.955 75.3705 154.633 75.588 154.367 75.8638C145.671 84.8923 137.721 94.5081 130.965 105.079C127.147 111.055 124.051 117.339 123.057 124.495C122.428 129.062 122.157 133.592 123.893 138C124.812 140.325 125.928 142.515 127.8 144.261C127.83 143.888 127.735 143.584 127.682 143.262C127.106 139.791 125.966 136.301 126.067 132.854C126.369 122.071 128.711 111.724 134.58 102.484C137.049 98.5898 139.934 94.9571 142.669 91.2271C142.89 90.9195 143.375 90.7008 143.775 90.6333C147.061 90.0303 150.171 91.0635 153.31 91.7232C154.116 91.8913 154.319 92.3993 153.757 93.1481C152.847 94.375 152.084 95.7239 151.108 96.8907C144.774 104.401 140.622 112.922 138.707 122.588C137.127 130.566 136.743 138.454 139.794 146.188C142.405 152.789 146.22 158.394 152.42 162.232C156.542 164.786 160.447 167.697 164.466 170.437C164.776 170.646 165.115 170.821 165.324 170.94C167.382 168.143 169.114 165.249 171.376 162.86C174.992 159.045 178.777 155.367 182.808 151.99C187.282 148.249 190.816 143.704 194.573 139.356C204.101 128.334 213.729 117.402 221.927 105.317C224.783 101.101 227.427 96.7909 227.507 91.4144C227.555 88.5006 226.679 86.0438 224.609 84.0167C221.812 81.2668 218.317 80.0263 214.53 80.3547C208.958 80.8379 203.368 81.4443 197.907 82.548C190.642 84.0178 183.52 86.1505 176.285 87.7631C170 89.162 163.715 88.408 157.525 86.9126C154.849 86.2701 153.783 84.5156 154.118 81.7948C154.397 79.6199 154.755 77.4311 155.07 75.274ZM287.592 71.0046C293.811 69.1933 299.751 67.2278 303.488 61.8942C306.927 56.9702 310.423 51.9036 310.764 45.2558C309.96 45.5916 309.496 45.7505 309.06 45.9764C301.386 49.9925 295.129 55.6002 290.473 62.9147C288.972 65.2638 287.645 67.7138 287.592 71.0046ZM248.155 201.175C248.227 201.286 248.297 201.409 248.369 201.521C248.82 201.272 249.281 201.049 249.713 200.76C255.885 196.6 262.141 192.553 268.208 188.252C276.225 182.574 284.141 176.73 291.201 169.855C291.48 169.581 291.703 169.261 291.949 168.957C276.426 178.525 261.906 189.334 248.155 201.175Z" fill="#231F1C"/>
<path d="M70.9731 169.98C69.6749 169.903 68.4595 169.864 67.2406 169.762C65.1641 169.585 63.1053 169.372 61.0305 169.183C60.0618 169.092 59.7566 168.682 59.7845 167.629C59.9601 159.786 58.6709 152.233 54.1988 145.612C52.6976 143.392 50.6493 141.468 48.5599 139.741C47.5601 138.915 45.9221 138.751 44.5328 138.523C42.4779 138.198 40.3975 138.134 38.3353 137.858C37.8546 137.788 37.4227 137.296 36.9638 136.99C37.3314 136.628 37.645 136.032 38.0734 135.944C39.7217 135.605 41.418 135.11 43.0454 135.26C46.795 135.618 50.5655 136.093 54.229 136.955C59.2446 138.128 62.5985 141.715 65.3501 145.805C69.8465 152.517 71.2025 160.13 71.2557 168.044C71.2468 168.622 71.0865 169.203 70.9731 169.98Z" fill="#231F1C"/>
</svg>
