<svg width="85" height="59" viewBox="0 0 85 59" fill="none" xmlns="http://www.w3.org/2000/svg">
<path d="M24.3879 25.4294H24.3876L24.1914 23.1113L24.3879 25.4294Z" fill="#231F1C"/>
<path d="M81.5755 18.0376C81.5486 16.0968 79.8018 14.7211 77.7034 13.9544C75.5777 13.1772 72.9972 12.8022 69.4463 12.7969C62.3288 12.7859 53.3389 14.0725 42.6651 16.9205C41.6896 17.1807 40.7228 17.4484 39.7646 17.7233H29.4242L29.1059 18.8024L28.86 19.6348L28.6191 20.4497L28.4664 19.0184L28.3237 17.6846H24.5286L24.0808 18.4075L20.0542 24.9135C18.3275 25.7082 16.7035 26.5137 15.1982 27.3208C11.6655 29.2163 8.7048 31.1659 6.60369 33.0708C4.57188 34.9124 3.13458 36.9094 3.08512 38.818H3.08008C3.08008 38.8505 3.08243 38.8847 3.08378 38.9179C3.08378 38.9299 3.08378 38.9416 3.08378 38.9536C3.21836 42.1556 5.37532 44.1969 7.73583 45.2099C10.1784 46.258 12.2493 46.8039 16.041 46.7434C23.6605 46.6223 33.4306 44.7997 44.6098 40.9087L44.5368 37.4836L44.4567 34.4423C42.8222 35.0112 41.211 35.5676 39.6229 36.1115L45.2012 27.4109C45.1401 27.7957 45.1083 28.1842 45.106 28.5735C45.106 30.1278 45.6659 31.4612 46.936 32.3288C48.0964 33.1216 49.6211 33.3594 51.1934 33.3594C52.4237 33.3594 53.744 33.1577 55.1456 32.7768L53.7662 37.8216V37.8245C53.7201 38.0052 53.6583 38.1818 53.5815 38.3525H53.531H53.4731L53.4153 38.3567L51.6896 38.4823L50.6214 38.5603L50.327 39.5561L50.0811 40.3886L49.5216 42.2818H51.5581L62.4997 42.2887H63.8633C63.951 42.2958 64.0401 42.2994 64.1308 42.2994C66.0034 42.2994 67.3607 40.791 67.3607 39.1186C67.3607 37.4709 66.0576 35.9085 64.194 35.9085C62.5414 35.9085 61.4267 37.076 61.0987 38.3772L60.2142 38.3629L64.733 22.0892C64.7819 21.8975 64.8467 21.7098 64.9268 21.5281H65.4557C65.3238 21.9185 65.2094 22.3264 65.1098 22.7473L65.1081 22.7538V22.7603C64.8726 23.8013 64.7892 24.5245 64.6916 25.3735C64.665 25.6032 64.6378 25.841 64.6058 26.1015C64.5136 26.8497 64.3986 27.6552 64.2721 28.5413L64.269 28.5631C64.1903 29.1161 64.1072 29.6958 64.0241 30.3035C63.8111 31.862 63.6042 33.0491 63.3778 33.9531L62.9169 35.7894H66.9021L67.1931 34.6635C67.5598 33.2433 68.1927 31.6193 69.1108 29.8165L69.1149 29.8081C69.4231 29.1929 69.701 28.6477 69.961 28.1366L69.9728 28.1142C70.5044 27.0703 70.9684 26.1598 71.4532 25.1191L71.4556 25.1142L71.4579 25.1094C72.2186 23.4454 72.6355 21.8976 72.6355 20.4657C72.6355 19.6247 72.2778 18.8928 71.6779 18.3905C71.106 17.912 70.3887 17.7009 69.7148 17.7009C69.5564 17.7008 69.3982 17.7103 69.2411 17.7295L67.2426 17.7253L66.0482 17.723L58.321 17.7081L57.1592 17.7058L56.84 18.7858L56.59 19.6156L56.0392 21.4787L58.0428 21.5112L58.2944 21.5151L56.3767 28.4603C54.6991 28.9889 53.6239 29.1978 53.0684 29.1978C52.2044 29.1978 51.8743 29.0436 51.7768 28.9701C51.7677 28.9636 51.6233 28.893 51.6233 28.3647C51.6233 27.9545 51.7101 27.4128 51.908 26.7024C51.908 26.7024 51.908 26.7024 51.908 26.7001L53.1986 22.0948L53.2016 22.0844L53.2043 22.0736C53.2503 21.8879 53.31 21.7056 53.383 21.5281H53.4274L54.215 21.5187L55.3589 21.505L55.6735 20.4406L55.9194 19.6085L56.4799 17.7113L54.4394 17.7136L48.9102 17.7204C56.9641 15.8525 64.2788 14.7439 69.6808 14.752C73.0715 14.7572 75.1787 14.5832 77.6546 15.5305C79.0727 16.0734 80.4585 16.9257 80.4929 18.3515H80.4969C80.4969 20.1524 79.7665 22.1032 78.0146 24.1709C76.2432 26.2619 73.6509 28.4057 70.4129 30.4671L70.7329 31.1542C74.03 29.0546 76.728 26.8367 78.6024 24.624C80.4767 22.4113 81.5924 20.1647 81.5779 18.0552V18.0512C81.5779 18.047 81.5779 18.0428 81.5779 18.0382L81.5755 18.0376ZM64.191 37.3977C65.0826 37.3977 65.8204 38.1703 65.8204 39.1218C65.8204 40.0434 65.0826 40.8163 64.1294 40.8163C63.2378 40.8163 62.5306 40.1029 62.5306 39.1814C62.5306 38.2298 63.2378 37.3977 64.191 37.3977ZM40.2905 21.5284L40.6091 20.4504L40.8045 19.7893C41.4276 19.6159 42.0549 19.4444 42.6863 19.275L43.1442 19.1534L43.0022 19.6342L42.4424 21.5284H44.2107L39.6266 28.89L38.0554 21.5284H40.2905ZM9.1331 39.479L8.91811 40.3111L8.75695 40.9341C8.69661 40.9124 8.63841 40.8891 8.58233 40.8641C6.89034 40.1384 6.05494 38.9927 6.02264 37.8421C6.01217 37.8505 6.00091 37.8579 5.989 37.8642C6.00549 36.5926 6.54717 35.738 8.19004 34.2488C9.93956 32.6632 12.7149 31.1402 16.0898 29.3299C16.6752 29.0156 17.2808 28.7011 17.9066 28.3865L12.5975 36.9647L12.5924 36.9725L12.5877 36.9803C12.1194 37.7588 11.8294 38.0727 11.6403 38.211C11.5279 38.2929 11.4102 38.3522 11.0572 38.3522H9.42412L9.1331 39.479ZM21.44 39.2236L21.1412 40.3661L20.901 41.2838C19.7855 41.452 18.6609 41.5588 17.5328 41.6036L17.6805 41.0323L17.8959 40.1999L18.3733 38.3531H16.2594L18.2014 35.2022H23.7157L23.9539 38.1017H21.7341L21.44 39.2236ZM32.9078 37.5883C32.9078 37.6014 32.9051 37.6144 32.9031 37.6271C32.9011 37.6397 32.8987 37.6622 32.8957 37.6798C32.8927 37.6973 32.8916 37.7061 32.8893 37.7191C32.8869 37.7321 32.8829 37.7516 32.8792 37.7692C32.8772 37.779 32.8752 37.7887 32.8728 37.7982L32.8698 37.8112C32.8674 37.8219 32.8644 37.833 32.8617 37.8437C32.859 37.8544 32.856 37.8655 32.853 37.8762C32.8471 37.8979 32.8407 37.9196 32.8338 37.9413V37.9445C32.8277 37.9637 32.821 37.9829 32.8143 38.0018L32.8112 38.0103C32.8042 38.0291 32.7971 38.048 32.7894 38.0669C32.7816 38.0857 32.7746 38.103 32.7665 38.1209C32.7628 38.1293 32.7587 38.1381 32.7547 38.1466C32.7376 38.1836 32.7211 38.2201 32.6995 38.2555C32.6911 38.2715 32.682 38.2881 32.6726 38.303L32.6689 38.3095C32.6588 38.3268 32.6481 38.3421 32.6373 38.3606C32.6299 38.372 32.6225 38.3834 32.6148 38.3931C32.607 38.4029 32.6057 38.4071 32.601 38.414C29.5255 39.3658 26.6199 40.1683 23.9516 40.7321L22.6324 40.7298L22.9315 39.587H24.4495C25.2768 39.587 25.5366 39.587 25.5366 38.7981C25.5366 38.7568 25.5298 38.6518 25.5228 38.5379C25.5187 38.4728 25.5147 38.4049 25.5113 38.3456C25.508 38.2864 25.506 38.235 25.506 38.2032L25.1359 33.714H17.3266L14.8369 37.7568C14.4372 38.44 14.2222 38.9159 14.2222 39.2428C14.2222 39.6293 14.4988 39.8375 15.0828 39.8375H16.4051L16.1894 40.6696H10.4092L10.6242 39.8375H11.0549C12.2536 39.8375 12.9302 39.3619 13.9147 37.7269L20.4589 27.1542L22.5274 23.8121L25.4013 19.1713H26.9386L27.2303 21.9002L27.4752 24.192L28.8947 37.4719C29.0124 36.6053 29.656 35.8297 30.5126 35.6502C30.7933 35.5719 31.0889 35.5578 31.3761 35.609C31.6633 35.6601 31.9343 35.7751 32.1677 35.9449C32.401 36.1147 32.5904 36.3346 32.7208 36.5873C32.8511 36.84 32.919 37.1186 32.9189 37.401C32.9185 37.4636 32.9148 37.5261 32.9078 37.5883ZM34.4151 36.8964C34.3411 36.4362 34.1676 35.9963 33.9058 35.6054C33.6441 35.2145 33.2999 34.8814 32.8959 34.6279C32.4919 34.3744 32.0372 34.2061 31.5613 34.1341C31.0855 34.0621 30.5993 34.088 30.1345 34.2101L30.0914 34.2201L28.9593 23.6296C29.8257 23.3073 30.7078 22.9894 31.6054 22.6758L34.8555 36.2217C34.7014 36.4722 34.555 36.6964 34.4151 36.8964ZM69.7114 19.1853C70.4179 19.1853 71.0949 19.6312 71.0949 20.4637C71.0949 21.6228 70.7567 22.9604 70.0495 24.5063C69.5765 25.5202 69.124 26.409 68.591 27.4555C68.3269 27.9737 68.0433 28.529 67.7277 29.1604C66.7749 31.0328 66.0983 32.7569 65.6983 34.3028H64.8666C65.1125 33.322 65.3278 32.0735 65.5432 30.4967C65.6263 29.8858 65.7097 29.3019 65.7898 28.743C65.8526 28.3017 65.9128 27.8756 65.9705 27.4649C66.0281 27.0541 66.0804 26.6577 66.1272 26.2756C66.1609 26.0088 66.1881 25.7655 66.2144 25.5362C66.3113 24.6923 66.387 24.0359 66.6047 23.0775C67.1881 20.612 68.2034 19.1853 69.7114 19.1853ZM54.4411 19.2002L54.1951 20.0327L53.4075 20.0421C52.5159 20.0421 52.0856 20.3095 51.7165 21.7067L50.4252 26.3143C50.2103 27.0872 50.0868 27.7707 50.0868 28.3653C50.0868 30.0299 51.1018 30.6838 53.0694 30.6838C53.9916 30.6838 55.5288 30.3259 57.6501 29.6138L59.833 21.7067C60.1405 20.4582 60.0483 20.0421 59.1873 20.0421L58.0687 20.0245L58.3146 19.1924L66.0414 19.2074L67.2358 19.2097L66.9899 20.0421H64.9376C64.046 20.0421 63.6157 20.3674 63.2466 21.7067L58.6658 38.2045C58.5427 38.6209 58.4811 38.9475 58.4811 39.1557C58.4811 39.6016 58.7887 39.8388 59.4037 39.8388L61.5381 39.8713L61.1818 40.801L51.5594 40.7952L51.8054 39.9627L53.5313 39.8372C54.4226 39.8372 54.8838 39.5398 55.2529 38.2022L57.3725 30.4437C55.0053 31.3953 52.9455 31.871 51.193 31.8708C48.2723 31.8708 46.6429 30.9492 46.6429 28.5712C46.6429 27.947 46.7657 27.205 47.013 26.312L48.2737 21.7044C48.3659 21.318 48.4274 20.991 48.4274 20.7236C48.4326 20.5844 48.393 20.4471 48.314 20.3307C47.843 20.6377 47.3666 21.2181 46.7257 22.2099L37.4101 36.7458L37.3213 36.886C37.3204 36.8872 37.3196 36.8885 37.319 36.8899C36.8587 37.0435 36.4015 37.1953 35.9473 37.3453C36.1267 37.0706 36.307 36.772 36.4883 36.4498L33.0632 22.1751L32.9509 21.7067C32.9448 21.68 32.9387 21.654 32.9324 21.6283C32.9209 21.5798 32.9088 21.533 32.8964 21.4871C32.8923 21.4718 32.8883 21.4572 32.8839 21.4422C32.8689 21.3882 32.8531 21.3359 32.8365 21.2854C32.8322 21.2711 32.8275 21.2568 32.8223 21.2425C32.8059 21.1937 32.7887 21.1449 32.7709 21.1006C32.7662 21.088 32.7611 21.0753 32.7561 21.0629C32.7437 21.0323 32.7309 21.0024 32.7177 20.9731C32.7127 20.9614 32.7076 20.95 32.7022 20.939C32.679 20.8885 32.6545 20.8414 32.6292 20.7952C32.6211 20.7809 32.6134 20.7669 32.605 20.7532C32.6036 20.7504 32.6021 20.7477 32.6003 20.7451C32.5915 20.7305 32.5821 20.7158 32.5734 20.7015L32.5461 20.6599C32.5356 20.6442 32.5244 20.629 32.5125 20.614L32.502 20.5997L32.4812 20.572C32.4697 20.5571 32.458 20.5428 32.4475 20.5288L32.4199 20.4962C32.4058 20.4806 32.392 20.4657 32.3779 20.4513C32.3638 20.437 32.355 20.4282 32.3442 20.4188C32.3335 20.4094 32.32 20.396 32.3079 20.3863C32.2958 20.3765 32.2827 20.3648 32.2702 20.3537C32.2578 20.3427 32.2484 20.3362 32.2366 20.3281C32.2248 20.3199 32.2231 20.318 32.2164 20.3134C32.2097 20.3089 32.1996 20.3011 32.1912 20.2952C32.1828 20.2893 32.1642 20.277 32.1505 20.2682C32.1367 20.2594 32.1168 20.248 32.101 20.2386L32.0768 20.2253L32.0593 20.2158C32.0327 20.2022 32.0054 20.1891 31.9772 20.1771L31.9402 20.1615C31.8257 20.1168 31.7061 20.0856 31.5839 20.0685L31.5502 20.0639C31.5166 20.0594 31.4829 20.0554 31.4459 20.0528H31.4254L31.3894 20.0506C31.3736 20.0506 31.3578 20.0486 31.342 20.0483H31.3336C31.3174 20.0483 31.2999 20.0483 31.2848 20.0483C31.2696 20.0483 31.2491 20.0483 31.2309 20.0483H30.3394L30.5826 19.2097H39.3753L39.1294 20.0421H37.7456C36.854 20.0421 36.3934 20.3674 36.3934 21.0229C36.3934 21.0252 36.3934 21.0284 36.3934 21.0327C36.3934 21.0369 36.3934 21.0395 36.3934 21.0437C36.3947 21.0554 36.3968 21.0714 36.3994 21.0915C36.4025 21.1146 36.4068 21.1433 36.4122 21.1768C36.4142 21.1888 36.4163 21.2018 36.4186 21.2152C36.4317 21.2919 36.4523 21.3898 36.4762 21.5079C36.4825 21.5405 36.4899 21.573 36.498 21.6055C36.5034 21.6293 36.5088 21.6533 36.5148 21.6781L38.913 32.9144L46.0763 21.4103C46.2917 21.085 46.3839 20.7861 46.3839 20.5483C46.3839 20.223 46.1991 20.0431 45.7998 20.0431H44.4775L44.7235 19.2106H46.6412L54.4411 19.2002Z" fill="#231F1C"/>
<path d="M32.0587 20.2135C32.0321 20.1999 32.0048 20.1868 31.9766 20.1748C32.0048 20.1868 32.0321 20.2012 32.0587 20.2135Z" fill="#231F1C"/>
<path d="M24.1523 22.6578L23.7637 23.288C23.9054 23.2288 24.0477 23.1697 24.1906 23.1107L24.1523 22.6578ZM24.1523 22.6578L23.7637 23.288C23.9054 23.2288 24.0477 23.1697 24.1906 23.1107L24.1523 22.6578ZM24.1523 22.6578L23.7637 23.288C23.9054 23.2288 24.0477 23.1697 24.1906 23.1107L24.1523 22.6578ZM24.1523 22.6578L23.7637 23.288C23.9054 23.2288 24.0477 23.1697 24.1906 23.1107L24.1523 22.6578ZM24.1523 22.6578L23.7637 23.288C23.9054 23.2288 24.0477 23.1697 24.1906 23.1107L24.1523 22.6578ZM31.977 20.1748C32.0053 20.1868 32.0325 20.1999 32.0591 20.2135C32.0325 20.2012 32.0053 20.1868 31.977 20.1748ZM24.1523 22.6578L23.7637 23.288C23.9054 23.2288 24.0477 23.1697 24.1906 23.1107L24.1523 22.6578ZM31.977 20.1748C32.0053 20.1868 32.0325 20.1999 32.0591 20.2135C32.0325 20.2012 32.0053 20.1868 31.977 20.1748ZM24.1523 22.6578L23.7637 23.288C23.9054 23.2288 24.0477 23.1697 24.1906 23.1107L24.1523 22.6578ZM31.977 20.1748C32.0053 20.1868 32.0325 20.1999 32.0591 20.2135C32.0325 20.2012 32.0053 20.1868 31.977 20.1748ZM24.1523 22.6578L23.7637 23.288C23.9054 23.2288 24.0477 23.1697 24.1906 23.1107L24.1523 22.6578ZM31.977 20.1748C32.0053 20.1868 32.0325 20.1999 32.0591 20.2135C32.0325 20.2012 32.0053 20.1868 31.977 20.1748ZM24.1523 22.6578L23.7637 23.288C23.9054 23.2288 24.0477 23.1697 24.1906 23.1107L24.1523 22.6578ZM31.977 20.1748C32.0053 20.1868 32.0325 20.1999 32.0591 20.2135C32.0325 20.2012 32.0053 20.1868 31.977 20.1748ZM24.1523 22.6578L23.7637 23.288C23.9054 23.2288 24.0477 23.1697 24.1906 23.1107L24.1523 22.6578ZM31.977 20.1748C32.0053 20.1868 32.0325 20.1999 32.0591 20.2135C32.0325 20.2012 32.0053 20.1868 31.977 20.1748ZM24.1523 22.6578L23.7637 23.288C23.9054 23.2288 24.0477 23.1697 24.1906 23.1107L24.1523 22.6578ZM31.977 20.1748C32.0053 20.1868 32.0325 20.1999 32.0591 20.2135C32.0325 20.2012 32.0053 20.1868 31.977 20.1748ZM24.1523 22.6578L23.7637 23.288C23.9054 23.2288 24.0477 23.1697 24.1906 23.1107L24.1523 22.6578ZM24.1523 22.6578L23.7637 23.288C23.9054 23.2288 24.0477 23.1697 24.1906 23.1107L24.1523 22.6578ZM24.1523 22.6578L23.7637 23.288C23.9054 23.2288 24.0477 23.1697 24.1906 23.1107L24.1523 22.6578ZM24.1523 22.6578L23.7637 23.288C23.9054 23.2288 24.0477 23.1697 24.1906 23.1107L24.1523 22.6578ZM24.1523 22.6578L23.7637 23.288C23.9054 23.2288 24.0477 23.1697 24.1906 23.1107L24.1523 22.6578ZM24.1523 22.6578L23.7637 23.288C23.9054 23.2288 24.0477 23.1697 24.1906 23.1107L24.1523 22.6578ZM24.1523 22.6578L23.7637 23.288C23.9054 23.2288 24.0477 23.1697 24.1906 23.1107L24.1523 22.6578Z" fill="#231F1C"/>
<path fill-rule="evenodd" clip-rule="evenodd" d="M24.3874 25.4294L24.1909 23.1113C24.048 23.1701 23.9057 23.2292 23.764 23.2886L21.7379 26.5742L17.8809 32.8236H25.0135L24.3874 25.4294ZM20.5876 31.3386L23.0134 27.4079L23.3458 31.3386H20.5876Z" fill="#231F1C"/>
</svg>
