<svg width="620" height="129" viewBox="0 0 620 129" fill="none" xmlns="http://www.w3.org/2000/svg">
<path d="M65.5669 28.4667L60.8008 37.9988C57.8601 32.2187 51.1673 28.3653 44.6773 28.3653C33.2185 28.3653 22.8751 34.6525 16.4866 43.9818C10.3008 53.2097 6.54883 64.7699 6.54883 75.8232C6.54883 84.4426 8.77975 91.4396 13.1402 96.6113C17.5006 101.783 23.3822 104.42 30.582 104.42C36.3621 104.42 42.1422 102.189 47.8209 97.8282C53.4996 93.4677 57.5559 87.0792 59.9896 78.6625L57.5559 77.6485C52.7898 91.8452 43.8661 100.566 33.6241 100.566C28.8581 100.566 25.1061 98.4366 22.1653 94.279C19.3259 90.0199 17.9063 84.3412 17.9063 77.3442C17.9063 64.2629 20.6442 53.4125 26.2215 44.5902C31.7988 35.7679 38.2888 31.3061 45.4886 31.3061C49.0378 31.3061 52.3842 32.8272 55.3249 35.7679C58.3671 38.7087 59.8882 43.4747 59.8882 49.9647C59.8882 52.297 59.7868 54.528 59.4826 56.7589H62.2205L68.0006 28.4667H65.5669Z" fill="#FEFF8B"/>
<path d="M78.6815 29.785L69.555 55.9476H72.293C81.3181 34.8553 83.549 32.8272 89.7347 32.6243H96.3261C98.05 32.6243 98.9626 33.3342 98.9626 34.6525C98.9626 35.3623 98.7598 36.5792 98.2528 38.3031L83.1434 94.5832C81.9265 99.1464 80.5068 100.161 77.5661 100.161H72.9014L72.0901 103H100.788L101.599 100.161H96.9345C94.9064 100.161 93.8924 99.3493 93.8924 97.8282C93.8924 97.1183 94.0952 96.0029 94.5008 94.5832L109.61 38.3031C110.827 33.537 111.943 32.6243 114.681 32.6243H121.373C125.43 32.6243 127.356 34.5511 127.356 41.8523C127.356 44.3874 126.951 49.1535 126.038 55.9476H128.776L134.049 29.785H78.6815Z" fill="#FEFF8B"/>
<path d="M179.742 100.161C176.801 100.161 175.077 98.3352 174.773 94.5832L168.587 28.3653H163.517L125.287 92.9607C122.042 98.538 119.811 100.161 115.856 100.161H114.437L113.727 103H132.791L133.501 100.161H129.14C127.214 100.161 126.301 99.4507 126.301 98.1324C126.301 97.0169 127.011 95.3944 128.329 93.0621L136.543 79.2709H162.3L163.517 94.5832C163.517 94.9888 163.618 96.3071 163.618 96.6113C163.618 99.3493 162.503 100.161 159.663 100.161H154.796L154.086 103H180.553L181.263 100.161H179.742ZM138.368 76.2288L159.055 41.548L161.894 76.2288H138.368Z" fill="#FEFF8B"/>
<path d="M244.643 29.785L243.832 32.6243H248.395C250.423 32.6243 251.437 33.4356 251.437 34.9567C251.437 35.8693 251.234 36.9848 250.93 38.3031L250.322 40.4326L207.021 85.4567L219.596 38.3031C220.813 33.7398 222.334 32.6243 225.173 32.6243H229.838L230.649 29.785H201.951L201.14 32.6243H205.805C207.833 32.6243 208.847 33.4356 208.847 34.9567C208.847 35.7679 208.644 36.8834 208.238 38.3031L193.129 94.5832C191.912 99.1464 190.695 100.161 187.552 100.161H182.988L182.177 103H210.773L211.585 100.161H207.021C204.892 100.161 203.878 99.3493 203.878 97.8282C203.878 96.8141 204.081 95.6987 204.385 94.5832L205.298 91.3382L248.598 46.3141L235.821 94.5832C234.604 99.1464 233.083 100.161 230.142 100.161H225.579L224.666 103H253.364L254.175 100.161H249.612C247.482 100.161 246.468 99.3493 246.468 97.8282C246.468 97.1183 246.671 96.0029 247.077 94.5832L262.186 38.3031C263.403 33.537 264.823 32.6243 267.763 32.6243H272.428L273.239 29.785H244.643ZM258.333 12.546C258.333 10.0109 256.305 7.57715 253.871 7.57715C250.727 7.57715 248.598 10.0109 248.598 13.2559C248.598 15.284 250.017 17.3121 251.741 17.3121C252.857 17.3121 253.972 17.0079 255.088 16.298C254.378 18.2247 252.553 19.7458 249.409 21.0641C246.367 22.3824 243.223 22.9908 240.08 22.9908C233.995 22.9908 229.838 21.1655 227.708 17.5149C228.114 17.6163 228.621 17.7177 229.128 17.7177C232.271 17.7177 235.212 15.0812 235.212 11.9376C235.212 9.50386 233.488 7.57715 231.359 7.57715C227.303 7.57715 225.072 10.7207 225.072 15.284C225.072 21.6725 230.75 25.6274 239.268 25.6274C244.643 25.6274 249.206 24.5119 252.857 22.281C256.507 19.9486 258.333 16.7037 258.333 12.546Z" fill="#FEFF8B"/>
<path d="M290.419 29.785L289.608 32.6243H294.272C296.605 32.6243 297.72 33.537 297.72 35.3623C297.72 35.8693 297.517 36.782 297.213 38.3031C291.129 60.9165 285.551 77.3442 281.597 85.9637C279.67 90.3242 277.845 93.6705 275.918 96.1043C272.267 100.972 270.341 101.479 267.501 101.479C269.834 100.363 271.659 97.1183 271.659 93.8734C271.659 90.7298 269.326 88.1946 266.183 88.1946C262.532 88.1946 259.896 91.7438 259.896 95.6987C259.896 100.668 262.735 104.217 267.501 104.217C270.848 104.217 273.991 102.898 276.932 99.5521C279.873 96.0029 282.104 93.1635 284.842 86.6736C286.261 83.4286 287.478 80.4878 288.492 77.9527C289.506 75.4175 290.723 71.8683 292.143 67.3051C293.562 62.7418 294.779 58.9898 295.692 55.8462C296.605 52.7027 297.923 48.4436 299.444 42.9677C300.559 39.0129 300.762 38.1002 301.878 35.7679C302.993 33.3342 304.109 32.6243 305.833 32.6243H320.536C322.159 32.6243 322.97 33.2328 322.97 34.3482C322.97 34.7539 322.767 35.6665 322.463 36.9848L306.847 94.5832C305.63 99.1464 304.21 100.161 300.965 100.161H296.706L295.793 103H324.491L325.404 100.161H320.739C318.61 100.161 317.697 99.7549 317.697 97.8282C317.697 96.8141 317.9 95.6987 318.204 94.5832L333.313 38.9115C334.632 34.044 336.051 32.6243 339.195 32.6243H343.657L344.468 29.785H290.419Z" fill="#FEFF8B"/>
<path d="M351.164 29.785L350.353 32.6243H355.017C357.046 32.6243 358.06 33.4356 358.06 34.9567C358.06 35.7679 357.857 36.8834 357.451 38.3031L342.342 94.5832C341.125 99.1464 339.908 100.161 336.764 100.161H332.201L331.39 103H360.493L361.305 100.161H356.234C354.105 100.161 353.091 99.3493 353.091 97.8282C353.091 97.1183 353.294 96.0029 353.699 94.5832L368.809 38.3031C370.127 33.4356 371.04 32.6243 373.879 32.6243H387.569C392.335 32.6243 394.363 34.1454 394.363 41.548C394.363 43.8804 393.856 48.545 392.74 55.4406H395.377L401.36 29.785H351.164Z" fill="#FEFF8B"/>
<path d="M446.874 100.161C443.934 100.161 442.21 98.3352 441.905 94.5832L435.72 28.3653H430.649L392.419 92.9607C389.175 98.538 386.944 100.161 382.989 100.161H381.569L380.859 103H399.923L400.633 100.161H396.273C394.346 100.161 393.434 99.4507 393.434 98.1324C393.434 97.0169 394.143 95.3944 395.462 93.0621L403.676 79.2709H429.433L430.649 94.5832C430.649 94.9888 430.751 96.3071 430.751 96.6113C430.751 99.3493 429.635 100.161 426.796 100.161H421.929L421.219 103H447.686L448.395 100.161H446.874ZM405.501 76.2288L426.188 41.548L429.027 76.2288H405.501Z" fill="#FEFF8B"/>
<path d="M511.775 29.785L510.964 32.6243H515.528C517.556 32.6243 518.57 33.4356 518.57 34.9567C518.57 35.8693 518.367 36.9848 518.063 38.3031L517.454 40.4326L474.154 85.4567L486.728 38.3031C487.945 33.7398 489.466 32.6243 492.306 32.6243H496.97L497.782 29.785H469.084L468.272 32.6243H472.937C474.965 32.6243 475.979 33.4356 475.979 34.9567C475.979 35.7679 475.777 36.8834 475.371 38.3031L460.261 94.5832C459.045 99.1464 457.828 100.161 454.684 100.161H450.121L449.31 103H477.906L478.717 100.161H474.154C472.024 100.161 471.01 99.3493 471.01 97.8282C471.01 96.8141 471.213 95.6987 471.517 94.5832L472.43 91.3382L515.73 46.3141L502.953 94.5832C501.736 99.1464 500.215 100.161 497.274 100.161H492.711L491.799 103H520.496L521.308 100.161H516.744C514.615 100.161 513.601 99.3493 513.601 97.8282C513.601 97.1183 513.804 96.0029 514.209 94.5832L529.319 38.3031C530.536 33.537 531.955 32.6243 534.896 32.6243H539.561L540.372 29.785H511.775ZM525.465 12.546C525.465 10.0109 523.437 7.57715 521.003 7.57715C517.86 7.57715 515.73 10.0109 515.73 13.2559C515.73 15.284 517.15 17.3121 518.874 17.3121C519.989 17.3121 521.105 17.0079 522.22 16.298C521.51 18.2247 519.685 19.7458 516.542 21.0641C513.499 22.3824 510.356 22.9908 507.212 22.9908C501.128 22.9908 496.97 21.1655 494.841 17.5149C495.246 17.6163 495.753 17.7177 496.26 17.7177C499.404 17.7177 502.345 15.0812 502.345 11.9376C502.345 9.50386 500.621 7.57715 498.491 7.57715C494.435 7.57715 492.204 10.7207 492.204 15.284C492.204 21.6725 497.883 25.6274 506.401 25.6274C511.776 25.6274 516.339 24.5119 519.989 22.281C523.64 19.9486 525.465 16.7037 525.465 12.546Z" fill="#FEFF8B"/>
<path d="M589.596 34.1454C589.596 34.3482 589.494 35.0581 589.19 36.2749L572.965 96.6113C572.154 99.5521 571.343 100.161 569.01 100.161H539.501C547.512 94.6846 556.436 74.0993 566.475 38.3031C567.489 34.5511 569.315 32.6243 571.85 32.6243H587.263C588.784 32.6243 589.596 33.1314 589.596 34.1454ZM556.335 29.785L555.523 32.6243H560.188C562.52 32.6243 563.636 33.537 563.636 35.3623C563.636 36.1735 563.534 37.1876 563.23 38.3031C558.16 56.6575 553.191 71.1585 548.222 81.9075C543.355 92.6565 538.893 98.7408 534.735 100.161H528.752L521.654 121.76H524.392C527.738 113.343 530.476 108.476 533.214 105.941C536.053 103.507 537.98 103 541.529 103H578.137C583.41 103 585.844 104.927 585.844 112.532C585.844 114.154 585.539 117.197 585.032 121.76H587.669L592.435 100.161H587.263C585.134 100.161 584.12 99.3493 584.12 97.8282C584.12 97.3212 584.323 96.3071 584.627 94.9888L599.939 38.3031C601.156 33.7398 602.576 32.6243 605.516 32.6243H610.181L610.992 29.785H556.335Z" fill="#FEFF8B"/>
<path fill-rule="evenodd" clip-rule="evenodd" d="M61.6763 22.1725H75.7106L75.4413 23.4908H141.738L133.928 62.2423H118.841L119.799 55.1099C120.707 48.3532 121.061 43.9397 121.061 41.8525C121.061 40.5203 120.985 39.5747 120.882 38.9191H115.965C115.887 39.1851 115.801 39.4965 115.709 39.8605L115.699 39.898L101.21 93.8663H115.856C116.419 93.8663 116.676 93.8076 116.77 93.78C116.832 93.762 116.9 93.7385 117.04 93.6326C117.462 93.313 118.32 92.4188 119.846 89.7955L119.858 89.7753L159.927 22.0711H163.343L163.723 21.4342L163.775 22.0711H174.32L181.027 93.8663H186.786C186.865 93.6164 186.952 93.3177 187.046 92.9616L187.049 92.9514L201.555 38.9191H192.795L197.203 23.4908H221.075C219.599 21.1274 218.777 18.3483 218.777 15.2842C218.777 15.094 218.779 14.9029 218.785 14.7113L214.746 7.78654L219.892 9.07317C220.345 7.93471 220.951 6.84062 221.743 5.83282C224.078 2.85767 227.527 1.28298 231.358 1.28298C237.652 1.28298 241.506 6.75783 241.506 11.9379C241.506 13.6558 241.137 15.2555 240.488 16.692C241.261 16.6744 242.03 16.6067 242.794 16.4862C242.475 15.4523 242.303 14.3614 242.303 13.2561C242.303 7.08968 246.72 1.28298 253.87 1.28298C257.126 1.28298 259.785 2.83862 261.539 4.73151L267.44 0.976562L264.246 9.6476C264.492 10.5758 264.627 11.5487 264.627 12.5463C264.627 16.7761 263.316 20.477 260.883 23.4908H281.584L277.176 38.9191H268.549C268.469 39.1757 268.38 39.4863 268.284 39.8605L268.275 39.898L254.937 89.5774C256.791 85.4143 260.56 81.9005 266.182 81.9005C269.721 81.9005 272.72 83.3815 274.805 85.6741C275.14 84.9722 275.484 84.2219 275.839 83.42L275.857 83.3794L275.875 83.3391C279.478 75.4862 284.706 60.2667 290.525 38.9191H281.262L285.671 23.4908H409.291L400.372 61.7353H385.345L386.526 54.4357C387.643 47.5294 388.068 43.318 388.068 41.5483C388.068 40.3527 388.005 39.5076 387.921 38.9234C387.813 38.9206 387.696 38.9191 387.568 38.9191H375.177C375.089 39.2093 374.992 39.5489 374.884 39.9467C374.884 39.9474 374.884 39.9481 374.884 39.9488L360.409 93.8663H369.649L365.241 109.295H287.158L292.117 93.8663H300.499C300.581 93.6161 300.669 93.3175 300.764 92.9616L300.768 92.949L315.417 38.9191H307.35C306.766 40.1819 306.588 40.815 305.8 43.6176C305.71 43.9377 305.612 44.2862 305.504 44.6671C304.45 48.4617 303.47 51.7534 302.679 54.4131C302.323 55.6072 302.006 56.6738 301.736 57.6015C301.094 59.8143 300.296 62.3503 299.409 65.1662C299.007 66.4461 298.585 67.7838 298.153 69.1752C296.714 73.7984 295.44 77.5293 294.336 80.2906C293.304 82.8697 292.067 85.8599 290.624 89.1591C287.572 96.3835 284.944 99.7477 281.778 103.568L281.72 103.639L281.66 103.707C277.643 108.278 272.831 110.511 267.501 110.511C264.166 110.511 261.081 109.451 258.648 107.415L258.111 109.295H216.031L220.99 93.8663H229.471C229.551 93.6249 229.64 93.3285 229.737 92.9672C229.737 92.9653 229.738 92.9635 229.738 92.9616L236.297 68.1853L211.599 93.8663H219.929L215.521 109.295H146.024L149.881 93.8663H157.145L156.485 85.5656H140.12L135.176 93.8663H141.562L137.705 109.295H105.664L106.568 105.681L105.535 109.295H63.7449L68.153 93.8663H76.7961C76.8761 93.6205 76.9649 93.322 77.061 92.9616L77.0637 92.9514L91.5697 38.9191H89.8444C88.6489 38.964 88.3424 39.0875 88.2484 39.1298L88.2459 39.1308C88.2043 39.1488 87.8265 39.3121 87.0509 40.3116C85.1843 42.717 82.6753 47.6831 78.0794 58.4241L76.4456 62.2423H67.5243L67.3585 63.0536H52.2711L53.2454 55.9087C53.4991 54.0483 53.5933 52.1192 53.5933 49.965C53.5933 44.2674 52.2348 41.5361 50.9497 40.2938L50.9113 40.2567L50.8736 40.219C48.8905 38.2359 47.0772 37.6008 45.4881 37.6008C41.3149 37.6008 36.5214 40.0766 31.5415 47.954C26.7482 55.536 24.2002 65.1432 24.2002 77.3445C24.2002 83.5017 25.4461 87.8136 27.3546 90.716C29.2548 93.3705 31.1782 94.272 33.6236 94.272C39.8341 94.272 47.167 88.8151 51.5882 75.6455L53.7388 69.2395L67.5966 75.0136L66.0358 80.4112C63.3143 89.8233 58.6171 97.4741 51.6539 102.821C45.1622 107.806 38.0704 110.714 30.5815 110.714C21.6588 110.714 13.9668 107.357 8.32747 100.669C2.77785 94.0868 0.253906 85.5232 0.253906 75.8234C0.253906 63.4335 4.42801 50.6658 11.2577 40.4773L11.275 40.4514L11.2926 40.4257C18.6796 29.6383 30.8495 22.0711 44.6769 22.0711C49.814 22.0711 55.0399 23.8306 59.2994 26.9263L61.6763 22.1725ZM26.2776 34.1726C22.4682 36.7642 19.1367 40.1113 16.4861 43.982C10.3004 53.21 6.54834 64.7702 6.54834 75.8234C6.54834 84.4429 8.77927 91.4399 13.1397 96.6116C15.5234 99.4388 18.3618 101.508 21.6215 102.804C24.3247 103.878 27.3176 104.42 30.5815 104.42C31.5957 104.42 32.61 104.351 33.6236 104.214C38.387 103.571 43.1382 101.424 47.8204 97.8284C53.4992 93.468 57.5554 87.0794 59.9891 78.6628L57.5554 77.6487C57.5237 77.7432 57.4918 77.8374 57.4597 77.9314C56.7896 79.8945 56.0395 81.7514 55.2171 83.4934C52.781 88.6534 49.7102 92.805 46.2029 95.7219C42.4323 98.8577 38.1571 100.566 33.6236 100.566C32.5598 100.566 31.5465 100.46 30.5815 100.249C28.4202 99.7765 26.501 98.7773 24.7985 97.2642C23.8555 96.4262 22.9791 95.4305 22.1648 94.2792C19.3255 90.0202 17.9058 84.3415 17.9058 77.3445C17.9058 64.2632 20.6437 53.4128 26.221 44.5905C27.5583 42.4752 28.948 40.6106 30.3874 38.998C34.725 34.1386 39.5136 31.5683 44.6769 31.3254C44.9463 31.3127 45.2167 31.3063 45.4881 31.3063C49.0373 31.3063 52.3837 32.8274 55.3245 35.7682C56.374 36.7828 57.2425 38.0146 57.93 39.4595C58.2816 40.1986 58.5859 40.9936 58.8428 41.8437C59.5394 44.1486 59.8877 46.8594 59.8877 49.965C59.8877 50.0054 59.8877 50.0457 59.8876 50.0861C59.8874 50.2126 59.8869 50.3388 59.8861 50.4647C59.8734 52.4282 59.7827 54.3241 59.5524 56.2142C59.5303 56.3959 59.5069 56.5775 59.4821 56.7592H62.22L68.0002 28.467H65.5664L60.8004 37.9991C60.5397 37.4868 60.2496 36.9896 59.9327 36.5089C59.2382 35.4553 58.4153 34.4808 57.4931 33.5996C57.4805 33.5876 57.468 33.5757 57.4554 33.5637C57.1263 33.251 56.7846 32.9502 56.4316 32.6618C53.3499 30.1439 49.4121 28.5771 45.4881 28.3855C45.2175 28.3723 44.947 28.3656 44.6769 28.3656C37.9723 28.3656 31.6497 30.5179 26.2776 34.1726ZM98.8008 36.0797C98.6868 36.6916 98.5083 37.4328 98.2523 38.3033L83.1429 94.5835C82.9252 95.3996 82.7011 96.1021 82.463 96.7057C81.3696 99.477 79.9804 100.161 77.5656 100.161H72.9009L72.0897 103H100.787L101.599 100.161H96.934C96.2054 100.161 95.6077 100.056 95.1408 99.8513C94.3082 99.4862 93.8919 98.803 93.8919 97.8284C93.8919 97.5255 93.9288 97.1486 94.0027 96.7057C94.102 96.111 94.2678 95.3972 94.5003 94.5835L109.61 38.3033C109.83 37.4421 110.046 36.7066 110.27 36.0797C111.283 33.2372 112.437 32.6246 114.68 32.6246H121.373C123.847 32.6246 125.529 33.3414 126.464 35.5571C126.534 35.7228 126.6 35.8969 126.662 36.0797C127.127 37.4602 127.356 39.3375 127.356 41.8525C127.356 43.5138 127.182 46.1332 126.805 49.6535C126.622 51.3624 126.391 53.2836 126.109 55.4105C126.086 55.5882 126.062 55.7673 126.037 55.9479H128.775L134.049 29.7853H78.681L69.5545 55.9479H72.2925C76.9881 44.9738 79.8446 39.1604 82.3758 36.0797C82.7938 35.571 83.2029 35.1368 83.6099 34.7662C85.4757 33.0674 87.2983 32.7045 89.7342 32.6246H96.3256C98.0495 32.6246 98.9622 33.3345 98.9622 34.6527C98.9622 35.0041 98.9125 35.4798 98.8008 36.0797ZM96.8609 93.8634C96.8614 93.8628 96.8775 93.8631 96.9074 93.8661C96.8752 93.8655 96.8603 93.8641 96.8609 93.8634ZM163.516 94.5835C163.516 94.8008 163.545 95.2803 163.573 95.7254C163.596 96.1108 163.618 96.4704 163.618 96.6116C163.618 96.6432 163.618 96.6746 163.617 96.7057C163.592 99.3682 162.469 100.161 159.663 100.161H154.795L154.086 103H180.553L181.262 100.161H179.741C178.517 100.161 177.503 99.8442 176.715 99.2037C176.619 99.1254 176.526 99.0422 176.436 98.9542C175.871 98.399 175.441 97.6506 175.154 96.7057C174.964 96.0838 174.837 95.3767 174.772 94.5835L168.587 28.3656H163.516L125.286 92.961C124.396 94.4907 123.583 95.7229 122.789 96.7057C122.343 97.257 121.904 97.7298 121.461 98.1327C121.004 98.5484 120.543 98.8896 120.068 99.1656C118.829 99.8839 117.49 100.161 115.856 100.161H114.436L113.726 103H132.79L133.5 100.161H129.14C128.769 100.161 128.435 100.134 128.138 100.082C127.73 100.011 127.392 99.8908 127.121 99.724C126.569 99.3832 126.3 98.8473 126.3 98.1327C126.3 97.7272 126.394 97.2548 126.577 96.7057C126.799 96.0385 127.152 95.258 127.628 94.3467C127.631 94.3407 127.634 94.3347 127.637 94.3287C127.845 93.9318 128.075 93.5102 128.329 93.0624L136.542 79.2712H162.299L163.516 94.5835ZM161.894 76.229L159.055 41.5483L138.368 76.229H161.894ZM149.452 69.9346H155.063L154.386 61.6624L149.452 69.9346ZM157.323 96.6778C157.321 96.6507 157.32 96.615 157.317 96.5693C157.31 96.44 157.301 96.2873 157.29 96.1063L157.284 96.0163C157.272 95.809 157.257 95.5695 157.246 95.3511C157.24 95.2374 157.232 95.0729 157.227 94.8959M210.773 103L211.584 100.161H207.021C206.243 100.161 205.614 100.053 205.129 99.8411C204.286 99.4736 203.877 98.794 203.877 97.8284C203.877 97.4656 203.903 97.0898 203.951 96.7057C204.035 96.0162 204.189 95.2998 204.384 94.5835L205.297 91.3385L248.597 46.3144L235.82 94.5835C235.603 95.3996 235.375 96.1021 235.132 96.7057C234.014 99.477 232.556 100.161 230.141 100.161H225.578L224.666 103H253.363L254.175 100.161H249.611C248.834 100.161 248.205 100.053 247.72 99.8411C246.876 99.4736 246.468 98.794 246.468 97.8284C246.468 97.5255 246.505 97.1486 246.579 96.7057C246.678 96.111 246.844 95.3972 247.076 94.5835L262.186 38.3033C262.406 37.4421 262.632 36.7066 262.873 36.0797C263.965 33.2372 265.354 32.6246 267.763 32.6246H272.428L273.239 29.7853H244.642L243.831 32.6246H248.394C249.171 32.6246 249.798 32.7434 250.277 32.9753C250.871 33.2625 251.236 33.7232 251.374 34.3465C251.416 34.5351 251.437 34.7387 251.437 34.9569C251.437 35.3022 251.408 35.6764 251.355 36.0797C251.269 36.7425 251.119 37.4837 250.93 38.3033L250.321 40.4328L207.021 85.457L219.595 38.3033C219.824 37.4454 220.064 36.7094 220.321 36.0797C221.431 33.3601 222.867 32.6246 225.173 32.6246H229.837L230.648 29.7853H201.951L201.139 32.6246H205.804C206.533 32.6246 207.13 32.7293 207.597 32.934C208.43 33.2991 208.846 33.9823 208.846 34.9569C208.846 35.2823 208.814 35.6565 208.748 36.0797C208.651 36.7118 208.481 37.453 208.238 38.3033L193.128 94.5835C192.911 95.3996 192.693 96.1021 192.464 96.7057C191.442 99.4045 190.199 100.124 187.751 100.159C187.685 100.16 187.619 100.161 187.551 100.161H182.988L182.177 103H210.773ZM205.877 38.922C205.877 38.9226 205.861 38.9223 205.831 38.9193C205.863 38.9198 205.878 38.9213 205.877 38.922ZM236.615 31.8134C236.909 31.8379 237.204 31.8582 237.499 31.8743L235.486 38.9191H243.044L219.385 63.5198L225.677 39.9252C225.786 39.5154 225.888 39.1843 225.978 38.9191H234.585L236.615 31.8134ZM250.474 23.5228C250.479 23.5208 250.483 23.5187 250.488 23.5166C250.507 23.5081 250.527 23.4994 250.546 23.4908C250.954 23.3098 251.352 23.1174 251.741 22.9134C252.122 22.7137 252.493 22.503 252.856 22.2812C254.457 21.2583 255.708 20.0597 256.606 18.6856C256.924 18.1994 257.199 17.6912 257.429 17.161C258.031 15.7733 258.332 14.2351 258.332 12.5463C258.332 10.819 257.391 9.13876 256.021 8.24332C255.38 7.82454 254.646 7.57742 253.87 7.57742C250.727 7.57742 248.597 10.0112 248.597 13.2561C248.597 13.6297 248.645 14.0034 248.735 14.3643C248.953 15.2442 249.416 16.0488 250.022 16.5943C250.518 17.0397 251.109 17.3124 251.741 17.3124C252.856 17.3124 253.972 17.0081 255.087 16.2983C254.576 17.6862 253.486 18.8637 251.741 19.9065C251.66 19.9549 251.577 20.0031 251.493 20.051C251.478 20.0596 251.463 20.0682 251.448 20.0768C250.842 20.4196 250.163 20.7478 249.409 21.0644C248.536 21.4426 247.654 21.7624 246.767 22.0262C244.562 22.6817 242.321 22.9911 240.079 22.9911C239.805 22.9911 239.534 22.9874 239.268 22.9799C237.723 22.9369 236.31 22.7692 235.031 22.4767C232.559 21.9117 230.587 20.8811 229.127 19.3849C228.583 18.8265 228.109 18.2033 227.708 17.5152C228.113 17.6166 228.62 17.718 229.127 17.718C230.096 17.718 231.044 17.4679 231.894 17.03C232.711 16.6089 233.436 16.0143 233.999 15.3013C234.751 14.3478 235.212 13.1826 235.212 11.9379C235.212 9.50412 233.488 7.57742 231.358 7.57742C228.914 7.57742 227.132 8.71929 226.102 10.6256C225.423 11.8823 225.071 13.4712 225.071 15.2842C225.071 16.5155 225.282 17.6563 225.684 18.6959C225.981 19.4645 226.382 20.1778 226.879 20.8313C227.489 21.6333 228.243 22.3453 229.127 22.9592C229.396 23.1455 229.676 23.3228 229.968 23.4908C230.188 23.6177 230.415 23.7393 230.648 23.8555C230.678 23.8705 230.709 23.8853 230.739 23.9001C232.829 24.9214 235.421 25.5155 238.387 25.6132C238.677 25.6228 238.971 25.6276 239.268 25.6276C239.273 25.6276 239.279 25.6276 239.284 25.6276C239.551 25.6275 239.816 25.6246 240.079 25.619C241.675 25.5849 243.198 25.4493 244.642 25.2122C246.742 24.8676 248.679 24.3087 250.445 23.5356C250.454 23.5313 250.464 23.5271 250.474 23.5228ZM260.087 93.8663C259.961 94.4588 259.895 95.0738 259.895 95.6989C259.895 97.3122 260.195 98.7758 260.762 100.017C261.84 102.375 263.886 103.93 266.686 104.181C266.951 104.205 267.222 104.217 267.501 104.217C267.93 104.217 268.356 104.195 268.778 104.15C271.616 103.849 274.302 102.502 276.839 99.657C276.87 99.6224 276.901 99.5875 276.931 99.5523C277.384 99.0056 277.821 98.4757 278.244 97.9467C278.261 97.9265 278.277 97.9063 278.293 97.8861C280.505 95.1187 282.383 92.3593 284.563 87.3251C284.569 87.3111 284.575 87.297 284.581 87.2829C284.667 87.0835 284.754 86.8805 284.841 86.6738C286.261 83.4288 287.478 80.4881 288.492 77.9529C289.506 75.4178 290.723 71.8686 292.142 67.3053C292.594 65.8548 293.024 64.4862 293.431 63.1931C294.305 60.4182 295.069 57.9908 295.691 55.8465C295.98 54.8541 296.308 53.7505 296.671 52.5325C297.457 49.8925 298.403 46.7151 299.443 42.968C299.559 42.5591 299.664 42.1827 299.762 41.834C300.072 40.7295 300.304 39.9017 300.523 39.194C300.545 39.1211 300.568 39.0494 300.59 38.9788C300.914 37.9546 301.222 37.1629 301.73 36.0797C301.777 35.9785 301.826 35.8748 301.877 35.7682C301.942 35.6273 302.006 35.4921 302.071 35.3626C302.608 34.2883 303.152 33.5978 303.772 33.1791C304.369 32.7761 305.036 32.6246 305.832 32.6246H320.536C322.158 32.6246 322.97 33.233 322.97 34.3485C322.97 34.6534 322.855 35.2448 322.669 36.0797C322.607 36.3554 322.538 36.6577 322.463 36.9851L306.846 94.5835C306.628 95.3996 306.404 96.1021 306.164 96.7057C305.063 99.477 303.629 100.161 300.965 100.161H296.706L295.793 103H324.491L325.403 100.161H320.739C319.953 100.161 319.333 100.106 318.863 99.939C318.06 99.6543 317.697 99.0442 317.697 97.8284C317.697 97.4656 317.722 97.0898 317.77 96.7057C317.855 96.0162 318.008 95.2998 318.204 94.5835L333.313 38.9118C333.616 37.7942 333.924 36.8583 334.257 36.0797C335.374 33.4672 336.773 32.6246 339.195 32.6246H343.656L344.468 29.7853H290.418L289.607 32.6246H294.272C294.988 32.6246 295.59 32.7107 296.08 32.883C296.137 32.9032 296.193 32.9246 296.247 32.9471C296.558 33.076 296.818 33.2436 297.03 33.4497C297.084 33.5028 297.135 33.5584 297.183 33.6166C297.543 34.054 297.72 34.636 297.72 35.3626C297.72 35.5456 297.693 35.7814 297.645 36.0797C297.58 36.4823 297.476 36.9987 297.344 37.6522C297.303 37.8557 297.259 38.0725 297.213 38.3033C296.871 39.5722 296.531 40.8216 296.193 42.0513C296.192 42.0556 296.191 42.0599 296.19 42.0642C294.935 46.6276 293.705 50.9187 292.51 54.923C291.286 59.0267 290.098 62.8291 288.957 66.3143C287.694 70.1716 286.49 73.6405 285.358 76.6995C284.096 80.1093 282.925 83.01 281.865 85.3717C281.859 85.3848 281.853 85.3978 281.847 85.4108C281.763 85.5986 281.679 85.783 281.596 85.964C280.351 88.782 279.148 91.1764 277.933 93.1747C277.788 93.4133 277.643 93.6463 277.497 93.8736C276.975 94.6885 276.45 95.4314 275.917 96.1045C275.499 96.6629 275.102 97.164 274.725 97.6134C274.707 97.6353 274.688 97.657 274.67 97.6787C271.79 101.087 269.999 101.479 267.501 101.479C269.245 100.645 270.705 98.6199 271.331 96.2945C271.542 95.5103 271.658 94.692 271.658 93.8736C271.658 93.5228 271.629 93.1795 271.573 92.8465C271.561 92.7752 271.548 92.7044 271.534 92.6341C271.474 92.3439 271.394 92.0622 271.294 91.7908C270.522 89.6821 268.59 88.1949 266.182 88.1949C263.109 88.1949 260.754 90.7107 260.087 93.8663ZM339.899 38.9191C339.753 39.3119 339.582 39.8431 339.389 40.5572L339.388 40.5604L324.92 93.8663H335.999C336.078 93.6164 336.164 93.3177 336.259 92.9616L336.262 92.9514L350.768 38.9191H339.899ZM355.09 38.9219C355.09 38.9226 355.073 38.9223 355.044 38.9193C355.076 38.9198 355.091 38.9213 355.09 38.9219ZM357.961 36.0797C357.864 36.7118 357.694 37.453 357.451 38.3033L342.341 94.5835C342.124 95.3996 341.906 96.1021 341.677 96.7057C340.628 99.477 339.345 100.161 336.764 100.161H332.201L331.389 103H360.493L361.304 100.161H356.234C355.683 100.161 355.207 100.107 354.804 99.9998C353.648 99.6937 353.09 98.9562 353.09 97.8284C353.09 97.5255 353.127 97.1486 353.201 96.7057C353.3 96.111 353.466 95.3972 353.699 94.5835L368.808 38.3033C369.042 37.4408 369.263 36.7056 369.484 36.0797C370.51 33.1738 371.542 32.6246 373.878 32.6246H387.568C390.612 32.6246 392.54 33.2452 393.535 35.6225C393.596 35.7682 393.653 35.9205 393.707 36.0797C394.152 37.3894 394.362 39.1637 394.362 41.5483C394.362 43.082 394.143 45.6244 393.676 49.1464C393.453 50.8254 393.174 52.7271 392.835 54.8482C392.804 55.0439 392.772 55.2415 392.74 55.4409H395.376L401.359 29.7853H351.164L350.352 32.6246H355.017C355.746 32.6246 356.343 32.7293 356.81 32.934C357.643 33.2991 358.059 33.9823 358.059 34.9569C358.059 35.2823 358.027 35.6565 357.961 36.0797ZM356.112 93.8609C356.112 93.86 356.133 93.8607 356.17 93.8654C356.129 93.8641 356.111 93.8617 356.112 93.8609ZM320.536 38.9191C320.576 38.9191 320.568 38.9219 320.519 38.9191H320.536ZM249.547 93.8654C249.507 93.8641 249.488 93.8617 249.489 93.8609C249.49 93.86 249.51 93.8607 249.547 93.8654ZM206.899 93.8609C206.9 93.86 206.92 93.8607 206.957 93.8654C206.917 93.8641 206.898 93.8617 206.899 93.8609ZM442.286 96.7057C442.097 96.0838 441.969 95.3767 441.905 94.5835L435.719 28.3656H430.649L392.419 92.961C391.529 94.4907 390.715 95.7229 389.921 96.7057C389.476 97.257 389.037 97.7298 388.594 98.1327C388.137 98.5484 387.676 98.8896 387.2 99.1656C385.962 99.8839 384.622 100.161 382.988 100.161H381.569L380.859 103H399.923L400.633 100.161H396.272C395.901 100.161 395.568 100.134 395.271 100.082C394.863 100.011 394.524 99.8908 394.254 99.724C393.701 99.3832 393.433 98.8473 393.433 98.1327C393.433 97.7272 393.527 97.2548 393.71 96.7057C393.931 96.0385 394.285 95.258 394.76 94.3467C394.764 94.3407 394.767 94.3347 394.77 94.3287C394.977 93.9318 395.208 93.5102 395.461 93.0624L403.675 79.2712H429.432L430.649 94.5835C430.649 94.8008 430.678 95.2803 430.705 95.7254C430.728 96.1108 430.75 96.4704 430.75 96.6116C430.75 96.6432 430.75 96.6746 430.75 96.7057C430.724 99.3682 429.602 100.161 426.796 100.161H421.928L421.218 103H447.685L448.395 100.161H446.874C445.649 100.161 444.635 99.8442 443.848 99.2037C443.751 99.1254 443.658 99.0422 443.569 98.9542C443.004 98.399 442.574 97.6506 442.286 96.7057ZM413.156 109.295L417.013 93.8663H424.278L423.618 85.5656H407.252L402.309 93.8663H408.695L404.838 109.295H372.797L376.654 93.8663H382.988C383.552 93.8663 383.809 93.8076 383.903 93.78C383.964 93.762 384.032 93.7385 384.172 93.6326C384.595 93.313 385.452 92.4188 386.978 89.7955L386.99 89.7753L427.06 22.0711H430.476L430.856 21.4342L430.908 22.0711H441.453L448.16 93.8663H453.919C453.997 93.6164 454.084 93.3177 454.179 92.9616L454.182 92.9514L468.688 38.9191H459.927L464.335 23.4908H488.207C486.731 21.1274 485.909 18.3483 485.909 15.2842C485.909 15.094 485.912 14.9029 485.918 14.7113L481.878 7.78654L487.025 9.07317C487.477 7.93471 488.084 6.84062 488.875 5.83282C491.211 2.85767 494.66 1.28298 498.491 1.28298C504.784 1.28298 508.639 6.75783 508.639 11.9379C508.639 13.6558 508.269 15.2555 507.62 16.692C508.393 16.6744 509.162 16.6067 509.927 16.4862C509.607 15.4523 509.435 14.3614 509.435 13.2561C509.435 7.08968 513.853 1.28298 521.003 1.28298C524.258 1.28298 526.917 2.83861 528.672 4.73151L534.573 0.976562L531.378 9.64759C531.625 10.5758 531.759 11.5487 531.759 12.5463C531.759 16.7761 530.448 20.477 528.015 23.4908H548.716L544.308 38.9191H535.681C535.601 39.1757 535.513 39.4863 535.417 39.8605L535.407 39.898L520.919 93.8663H533.286C533.869 93.4482 534.839 92.5692 536.146 90.7967C538.022 88.2527 540.144 84.486 542.488 79.3112L542.498 79.2889L542.508 79.2666C547.069 69.4004 551.721 56.0244 556.524 38.9191H547.178L551.586 23.4908H619.336L614.928 38.9191H606.318C606.229 39.1871 606.129 39.5183 606.02 39.9252L606.018 39.935L606.015 39.9448L591.45 93.8663H600.269L592.725 128.055H577.999L578.776 121.065C579.301 116.343 579.549 113.72 579.549 112.532C579.549 110.924 579.415 109.931 579.272 109.352C579.018 109.321 578.651 109.295 578.136 109.295H541.529C540.005 109.295 539.435 109.415 539.113 109.523C538.856 109.61 538.385 109.812 537.41 110.635C535.824 112.153 533.534 115.803 530.24 124.086L528.662 128.055H512.959L519.124 109.295H483.163L488.122 93.8663H496.603C496.683 93.6249 496.773 93.3285 496.869 92.9672C496.87 92.9653 496.87 92.9635 496.871 92.9616L503.429 68.1853L478.731 93.8663H487.061L482.653 109.295H413.156ZM477.906 103L478.717 100.161H474.154C473.376 100.161 472.747 100.053 472.262 99.8411C471.419 99.4736 471.01 98.794 471.01 97.8284C471.01 97.4656 471.036 97.0898 471.083 96.7057C471.168 96.0162 471.322 95.2998 471.517 94.5835L472.43 91.3385L515.73 46.3144L502.953 94.5835C502.735 95.3996 502.508 96.1021 502.264 96.7057C501.146 99.477 499.689 100.161 497.274 100.161H492.711L491.798 103H520.496L521.307 100.161H516.744C515.966 100.161 515.337 100.053 514.852 99.8411C514.009 99.4736 513.6 98.794 513.6 97.8284C513.6 97.5255 513.637 97.1486 513.711 96.7057C513.81 96.111 513.976 95.3972 514.209 94.5835L529.318 38.3033C529.538 37.4421 529.765 36.7066 530.005 36.0797C531.098 33.2372 532.486 32.6246 534.896 32.6246H539.56L540.371 29.7853H511.775L510.964 32.6246H515.527C516.303 32.6246 516.931 32.7434 517.41 32.9753C518.003 33.2625 518.369 33.7232 518.507 34.3465C518.548 34.5352 518.569 34.7388 518.569 34.9569C518.569 35.3022 518.54 35.6764 518.488 36.0797C518.401 36.7425 518.251 37.4837 518.062 38.3033L517.454 40.4328L474.154 85.457L486.728 38.3033C486.957 37.4454 487.196 36.7094 487.453 36.0797C488.563 33.3601 490 32.6246 492.305 32.6246H496.97L497.781 29.7853H469.083L468.272 32.6246H472.937C473.665 32.6246 474.263 32.7293 474.73 32.934C475.562 33.2991 475.979 33.9823 475.979 34.9569C475.979 35.2823 475.946 35.6565 475.881 36.0797C475.784 36.7118 475.613 37.453 475.37 38.3033L460.261 94.5835C460.043 95.3996 459.826 96.1021 459.597 96.7057C458.575 99.4045 457.332 100.124 454.883 100.159C454.818 100.16 454.751 100.161 454.684 100.161H450.12L449.309 103H477.906ZM473.01 38.9219C473.009 38.9226 472.993 38.9223 472.963 38.9193C472.995 38.9198 473.01 38.9213 473.01 38.9219ZM503.748 31.8134C504.041 31.8379 504.336 31.8582 504.632 31.8743L502.619 38.9191H510.177L486.518 63.5198L492.81 39.9252C492.919 39.5154 493.02 39.1843 493.11 38.9191H501.718L503.748 31.8134ZM517.606 23.5228C517.611 23.5208 517.616 23.5187 517.62 23.5166C517.64 23.5081 517.659 23.4994 517.679 23.4908C518.086 23.3098 518.484 23.1174 518.873 22.9134C519.254 22.7137 519.626 22.503 519.989 22.2812C521.59 21.2583 522.84 20.0597 523.739 18.6856C524.057 18.1994 524.331 17.6912 524.561 17.161C525.164 15.7733 525.465 14.2351 525.465 12.5463C525.465 10.819 524.523 9.13875 523.153 8.24332C522.513 7.82454 521.778 7.57742 521.003 7.57742C517.859 7.57742 515.73 10.0112 515.73 13.2561C515.73 13.6298 515.778 14.0034 515.867 14.3643C516.085 15.2443 516.548 16.0488 517.155 16.5943C517.65 17.0397 518.241 17.3124 518.873 17.3124C519.989 17.3124 521.104 17.0081 522.22 16.2983C521.708 17.6862 520.618 18.8637 518.873 19.9065C518.792 19.9549 518.71 20.0031 518.626 20.051C518.611 20.0596 518.596 20.0682 518.58 20.0768C517.975 20.4196 517.296 20.7478 516.541 21.0644C515.668 21.4426 514.787 21.7624 513.9 22.0262C511.695 22.6817 509.453 22.9911 507.212 22.9911C506.937 22.9911 506.667 22.9874 506.401 22.9799C504.856 22.9369 503.443 22.7692 502.163 22.4767C499.692 21.9117 497.72 20.8811 496.26 19.3849C495.715 18.8265 495.242 18.2033 494.84 17.5152C495.246 17.6166 495.753 17.718 496.26 17.718C497.228 17.718 498.177 17.4679 499.027 17.03C499.844 16.6089 500.569 16.0143 501.131 15.3013C501.883 14.3478 502.344 13.1826 502.344 11.9379C502.344 9.50412 500.62 7.57742 498.491 7.57742C496.046 7.57742 494.265 8.71929 493.235 10.6256C492.556 11.8823 492.204 13.4712 492.204 15.2842C492.204 16.5155 492.415 17.6563 492.816 18.6959C493.113 19.4645 493.514 20.1778 494.011 20.8313C494.621 21.6333 495.376 22.3453 496.26 22.9592C496.528 23.1455 496.809 23.3228 497.1 23.4908C497.321 23.6177 497.548 23.7393 497.781 23.8555C497.811 23.8705 497.841 23.8853 497.871 23.9001C499.961 24.9214 502.553 25.5155 505.519 25.6132C505.81 25.6228 506.103 25.6276 506.401 25.6276C506.406 25.6276 506.411 25.6276 506.417 25.6276C506.684 25.6275 506.949 25.6246 507.212 25.619C508.808 25.5849 510.33 25.4493 511.775 25.2122C513.875 24.8676 515.812 24.3088 517.577 23.5356C517.587 23.5313 517.597 23.5271 517.606 23.5228ZM516.622 93.8609C516.622 93.86 516.643 93.8607 516.68 93.8654C516.639 93.8641 516.621 93.8617 516.622 93.8609ZM578.136 103C578.631 103 579.1 103.017 579.545 103.054C581.989 103.257 583.69 104.065 584.702 105.991C584.742 106.066 584.781 106.144 584.819 106.223C585.509 107.673 585.843 109.712 585.843 112.532C585.843 113.238 585.786 114.213 585.679 115.466C585.55 116.97 585.351 118.874 585.095 121.192C585.074 121.379 585.053 121.568 585.032 121.76H587.668L592.435 100.161H587.263C586.793 100.161 586.377 100.121 586.015 100.043C584.735 99.768 584.119 99.0138 584.119 97.8284C584.119 97.773 584.122 97.7116 584.126 97.6443C584.165 97.0961 584.355 96.1633 584.626 94.9891L599.939 38.3033C600.167 37.4454 600.403 36.7094 600.655 36.0797C601.743 33.3601 603.128 32.6246 605.516 32.6246H610.18L610.992 29.7853H556.334L555.523 32.6246H560.188C560.834 32.6246 561.387 32.6947 561.849 32.835C561.899 32.8502 561.948 32.8662 561.995 32.883C563.1 33.2714 563.635 34.098 563.635 35.3626C563.635 35.5868 563.628 35.8266 563.61 36.0797C563.58 36.5023 563.523 36.9621 563.429 37.4491C563.427 37.4589 563.425 37.4688 563.423 37.4786C563.37 37.7459 563.307 38.0214 563.23 38.3033C558.159 56.6577 553.19 71.1588 548.222 81.9078C545.961 86.9002 543.788 90.8864 541.692 93.8663C540.952 94.9182 540.222 95.8447 539.501 96.6459C539.462 96.6887 539.424 96.7311 539.385 96.7732C538.945 97.2544 538.509 97.6888 538.076 98.0764C536.94 99.093 535.827 99.7878 534.735 100.161H528.752L521.653 121.76H524.391C527.524 113.881 530.124 109.112 532.689 106.455C532.864 106.274 533.039 106.103 533.214 105.941C533.337 105.835 533.458 105.733 533.578 105.635C533.978 105.307 534.361 105.018 534.735 104.763C535.18 104.461 535.612 104.207 536.044 103.995C537.128 103.464 538.212 103.197 539.501 103.079C540.097 103.024 540.737 103.002 541.442 103C541.471 103 541.5 103 541.529 103H578.136ZM569.01 100.161C571.317 100.161 572.136 99.5654 572.938 96.7057C572.947 96.6746 572.956 96.6432 572.965 96.6116L589.19 36.2752C589.206 36.2085 589.222 36.1433 589.238 36.0797C589.505 34.9821 589.595 34.3374 589.595 34.1457C589.595 33.1316 588.784 32.6246 587.263 32.6246H571.849C571.059 32.6246 570.338 32.8117 569.689 33.1828C568.896 33.6364 568.21 34.3648 567.637 35.3626C567.508 35.5879 567.385 35.827 567.267 36.0797C566.964 36.7306 566.699 37.4722 566.475 38.3033C566.398 38.5782 566.321 38.8522 566.244 39.1253C566.243 39.1286 566.242 39.1319 566.241 39.1351C560.874 58.1794 555.826 72.8612 551.066 83.1959C551.063 83.2033 551.06 83.2107 551.056 83.218C549.073 87.5219 547.14 91.0709 545.255 93.8663C544.544 94.9198 543.841 95.8662 543.144 96.7057C542.601 97.3588 542.063 97.9472 541.529 98.4708C540.846 99.1398 540.17 99.7031 539.501 100.161H569.01ZM552.666 93.8663C554.457 90.7718 556.231 87.1743 557.998 83.115C562.651 72.4291 567.482 58.0211 572.535 40.003L572.543 39.9744L572.551 39.9456C572.669 39.5092 572.787 39.1722 572.893 38.9191H581.961L567.185 93.8663H552.666ZM587.263 38.9191C587.328 38.9191 587.318 38.9243 587.248 38.9191H587.263ZM587.141 93.8609C587.141 93.86 587.162 93.8607 587.199 93.8654C587.158 93.8641 587.14 93.8617 587.141 93.8609ZM474.031 93.8609C474.032 93.86 474.052 93.8606 474.089 93.8654C474.05 93.8641 474.031 93.8618 474.031 93.8609ZM426.187 41.5483L405.5 76.229H429.026L426.187 41.5483ZM422.196 69.9346L421.518 61.6624L416.584 69.9346H422.196Z" fill="#3C65F7"/>
</svg>
