<svg width="213" height="219" viewBox="0 0 213 219" fill="none" xmlns="http://www.w3.org/2000/svg">
<path d="M66.7974 33.1844C67.1022 31.0501 67.2502 31.0121 69.0782 30.5422C69.1568 30.522 69.2384 30.501 69.3234 30.479C72.4371 29.6711 75.5297 30.0485 78.605 30.4239C79.1401 30.4892 79.6747 30.5544 80.2088 30.6133C82.8009 30.8921 85.3593 31.4358 87.9178 31.9795C88.3975 32.0814 88.8772 32.1834 89.3571 32.2836L92.5495 35.6429C92.6868 37.5218 92.96 39.3944 93.2302 41.2472C93.2928 41.6763 93.3552 42.1042 93.4157 42.531L92.6993 42.4165L92.5694 43.4412L92.5679 43.4528L93.5596 43.5786L93.5596 43.5787L93.539 43.7073M66.7974 33.1844C66.5668 34.8163 66.3673 36.4523 66.1677 38.0882C66.1574 38.1728 66.1471 38.2574 66.1368 38.342C66.141 38.3926 66.1452 38.4431 66.1494 38.4936L66.15 38.5018C66.1914 39.0548 66.2713 39.4523 66.6434 39.9143L65.8646 40.5415L64.8725 40.4157C64.9497 39.8069 65.0251 39.1948 65.1002 38.5809L64.1562 38.6593C64.1561 38.658 64.156 38.6566 64.1559 38.6553M66.7974 33.1844L67.7876 33.3243M66.7974 33.1844L67.7874 33.3258C67.7875 33.3253 67.7875 33.3248 67.7876 33.3243M64.1559 38.6553C64.1558 38.6539 64.1557 38.6526 64.1556 38.6512L65.1002 38.5804C65.1107 38.4945 65.1212 38.4085 65.1317 38.3224C65.0392 37.2055 64.9485 36.0888 64.858 34.9724C64.653 32.4461 64.4481 29.9215 64.2211 27.3996C64.005 24.9872 63.848 24.6351 61.5203 24.2806C59.9554 24.0406 58.3964 23.7362 56.8372 23.4317C52.1587 22.5181 47.4786 21.6041 42.6311 22.4312C42.4719 22.4578 42.2946 22.3848 42.0945 22.3025C41.99 22.2594 41.8792 22.2138 41.7615 22.1785C41.6362 21.6236 41.4926 21.0687 41.3486 20.5124C41.0298 19.2809 40.7093 18.0429 40.5829 16.7845M64.1559 38.6553C64.0557 37.4505 63.9582 36.2482 63.8607 35.0473C63.656 32.5236 63.4517 30.0067 63.2251 27.4892L63.2251 27.4888C63.1705 26.8787 63.1243 26.4638 63.0578 26.1552C62.9927 25.8537 62.9263 25.7473 62.8906 25.704C62.8638 25.6714 62.7982 25.604 62.5644 25.5224C62.3125 25.4345 61.9447 25.3567 61.3697 25.2692L61.3687 25.269C59.7837 25.026 58.208 24.7183 56.6554 24.4151L56.6448 24.413C55.082 24.1078 53.5424 23.8073 52 23.5708C48.9177 23.0982 45.8805 22.8912 42.7993 23.4169L42.7957 23.4176C42.3836 23.4863 42.0257 23.3498 41.8756 23.2922C41.7758 23.2539 41.7115 23.227 41.6608 23.2057C41.5918 23.1768 41.548 23.1585 41.4743 23.1364L40.9147 22.9686L40.786 22.3988C40.6753 21.9083 40.5413 21.39 40.4027 20.8537C40.0755 19.588 39.7224 18.2222 39.588 16.8854M64.1559 38.6553L39.588 16.8854M40.5829 16.7845C40.372 14.705 39.1035 13.8559 37.3731 13.3755C36.7998 13.2036 36.2009 13.1168 35.6 13.0297C35.2666 12.9813 34.9325 12.9329 34.6019 12.8698M40.5829 16.7845L39.5879 16.8845C39.5879 16.8847 39.588 16.885 39.588 16.8852L39.588 16.8854M40.5829 16.7845L39.588 16.8854M34.6019 12.8698C34.2562 12.8051 33.9106 12.7404 33.5651 12.6756C30.9687 12.1894 28.3728 11.7032 25.7133 11.2089C25.6985 10.6926 25.6804 10.1938 25.6627 9.70718C25.6229 8.61111 25.5853 7.57662 25.5932 6.54224M34.6019 12.8698L34.4144 13.8521C34.4151 13.8522 34.4157 13.8523 34.4163 13.8525M34.6019 12.8698L34.4178 13.8527C34.4173 13.8526 34.4168 13.8525 34.4163 13.8525M25.5932 6.54224C25.6109 3.96965 25.4843 3.75193 22.919 3.21307C22.2935 3.08167 21.6672 2.93959 21.04 2.79731C19.0951 2.3561 17.1416 1.91296 15.176 1.78035C14.0915 1.71048 13.0139 1.55817 11.9355 1.40574C9.60853 1.07685 7.27734 0.747352 4.86355 1.24396C4.26947 1.367 3.76221 1.44874 3.3298 1.51842C0.96887 1.89885 0.839157 1.91975 0.990378 6.34158M25.5932 6.54224L24.5932 6.53534M25.5932 6.54224L24.5932 6.53534M0.990378 6.34158C1.11619 9.98367 1.23386 13.6259 1.35152 17.2678C1.76596 30.0958 2.18029 42.9205 2.94978 55.7256C4.16312 75.9086 5.66405 96.0689 7.50081 116.2C9.1223 134.051 11.0907 151.87 13.0585 169.685C13.4343 173.086 13.81 176.487 14.1832 179.888C14.8434 185.982 15.6863 192.056 16.5294 198.131C16.7682 199.852 17.0071 201.573 17.2418 203.295C17.5097 205.299 17.9848 205.763 19.8588 205.953C23.9571 206.378 28.0613 206.756 32.1657 207.039C33.5707 207.134 34.9778 207.157 36.3855 207.18C37.5942 207.201 38.8033 207.221 40.0117 207.286C41.7326 207.374 42.343 206.395 42.6419 204.974C42.7628 204.372 42.8751 203.764 42.9857 203.167C43.0515 202.81 43.1168 202.457 43.1828 202.111C43.9706 202.158 44.7328 202.205 45.4763 202.251C47.4113 202.369 49.2202 202.48 51.0254 202.572C51.9485 202.616 52.8716 202.667 53.7948 202.718C56.3272 202.857 58.8608 202.997 61.3994 202.997C63.665 203 64.3891 202.154 64.8778 199.89M0.990378 6.34158L1.98978 6.30706M0.990378 6.34158L1.98978 6.30706M64.8778 199.89C64.9812 199.403 65.13 198.928 65.2745 198.466C65.3358 198.271 65.3962 198.077 65.4522 197.887C70.2141 198.184 74.8303 198.475 79.3924 198.763C81.19 198.876 82.9793 198.989 84.7658 199.102C85.0192 199.675 85.2495 200.247 85.4765 200.812C85.9763 202.054 86.4601 203.257 87.1388 204.339C87.9481 205.628 89.0577 207.169 90.3751 207.632C92.3214 208.327 94.4794 208.483 96.5923 208.637C96.8328 208.654 97.0726 208.672 97.3116 208.69C99.294 208.839 101.286 208.914 103.277 208.99C104.745 209.045 106.213 209.101 107.677 209.186C108.33 209.226 108.972 209.404 109.537 209.56C109.766 209.623 109.983 209.683 110.182 209.729C110.38 210.204 110.573 210.663 110.761 211.109C111.317 212.43 111.829 213.647 112.292 214.885C112.939 216.616 114.161 217.27 115.961 217.391C117.726 217.508 119.49 217.687 121.255 217.867C123.019 218.046 124.783 218.225 126.553 218.343C129.447 218.532 132.343 218.614 135.244 218.566C137.42 218.522 138.301 217.566 138.639 215.366C139.394 210.538 139.512 205.676 139.157 200.801C139.003 198.66 138.827 196.516 138.647 194.317C138.558 193.226 138.467 192.121 138.377 190.997C138.329 190.994 138.281 190.991 138.233 190.988L138.298 189.99L139.295 189.912C139.299 189.959 139.302 190.007 139.306 190.055C139.998 190.099 140.685 190.142 141.367 190.184C144.683 190.391 147.893 190.592 151.091 190.888M64.8778 199.89L63.8996 199.683C64.0134 199.147 64.186 198.595 64.3355 198.117C64.3928 197.934 64.4467 197.762 64.4926 197.605L64.7175 196.839L65.5145 196.889C70.2783 197.186 74.8964 197.478 79.46 197.765C81.2561 197.879 83.0438 197.991 84.8287 198.104L85.4349 198.142L85.6805 198.698C85.9388 199.282 86.183 199.889 86.4158 200.467C86.5506 200.802 86.6816 201.128 86.8094 201.434C87.171 202.301 87.5364 203.091 87.9858 203.807C88.3804 204.436 88.8243 205.086 89.3101 205.627C89.8053 206.178 90.2772 206.538 90.7071 206.689L90.711 206.691C92.5211 207.336 94.538 207.484 96.6744 207.64C96.9104 207.657 97.1477 207.675 97.3865 207.693C99.3684 207.842 101.311 207.915 103.275 207.989C104.742 208.044 106.22 208.099 107.735 208.187L107.739 208.188C108.29 208.222 108.814 208.335 109.262 208.45C109.49 208.509 109.675 208.56 109.84 208.606C110.041 208.662 110.215 208.71 110.406 208.754L110.908 208.869L111.105 209.344C111.299 209.81 111.49 210.263 111.676 210.707C112.234 212.032 112.758 213.276 113.229 214.534L113.229 214.535C113.491 215.235 113.836 215.643 114.237 215.902C114.655 216.172 115.225 216.339 116.028 216.393C117.811 216.511 119.589 216.692 121.348 216.871L121.353 216.871C123.121 217.051 124.869 217.228 126.619 217.345C129.488 217.532 132.356 217.614 135.226 217.567C136.179 217.547 136.652 217.331 136.934 217.058C137.237 216.763 137.494 216.234 137.651 215.214L137.651 215.212C138.392 210.469 138.51 205.684 138.16 200.874L138.16 200.873C138.006 198.735 137.831 196.601 137.651 194.408C137.535 192.991 137.417 191.55 137.301 190.068L137.211 188.917L138.363 188.992C139.392 189.059 140.41 189.122 141.42 189.185C144.738 189.393 147.968 189.594 151.181 189.892M64.8778 199.89L63.9003 199.679C63.6622 200.782 63.4082 201.294 63.1198 201.565C62.8672 201.803 62.4299 201.998 61.4005 201.997L61.3995 201.997C58.8907 201.997 56.3979 201.86 53.8746 201.72C52.9462 201.669 52.0137 201.618 51.0747 201.573C49.2756 201.482 47.4749 201.371 45.5427 201.253C44.798 201.207 44.0338 201.16 43.2426 201.113L42.3653 201.061L42.2006 201.924C42.1322 202.282 42.066 202.64 41.9999 202.998C41.8909 203.587 41.7819 204.177 41.6624 204.772C41.5256 205.421 41.3488 205.79 41.1475 205.994C40.9897 206.154 40.7122 206.32 40.0626 206.287C38.8355 206.221 37.6092 206.201 36.4051 206.181L36.1038 206.176C34.7952 206.154 33.5114 206.128 32.2346 206.041C28.1451 205.759 24.0529 205.382 19.9619 204.958L19.9597 204.958C19.0352 204.864 18.7751 204.718 18.6584 204.6C18.5283 204.469 18.3668 204.163 18.233 203.163L18.2326 203.16C17.9972 201.433 17.7578 199.708 17.5187 197.985C16.6759 191.912 15.8358 185.858 15.1774 179.78L15.1773 179.779C14.8038 176.376 14.428 172.974 14.0522 169.572C12.0844 151.758 10.1172 133.95 8.49671 116.11L8.49667 116.11C6.66092 95.9891 5.16075 75.8392 3.94798 55.6656C3.17941 42.8758 2.76566 30.0695 2.35128 17.2438C2.23355 13.5999 2.11577 9.95447 1.98979 6.3074L151.181 189.892M151.091 190.888C151.608 190.93 152.301 191.73 152.477 192.31C152.828 193.475 153.114 194.657 153.4 195.838C153.686 197.019 153.972 198.201 154.323 199.366C155.133 202.076 155.977 204.779 156.821 207.483C157.59 209.95 158.36 212.416 159.105 214.888M151.091 190.888L151.184 189.892C151.183 189.892 151.182 189.892 151.181 189.892M151.091 190.888L151.172 189.891C151.175 189.892 151.178 189.892 151.181 189.892M159.105 214.888C159.656 216.714 160.902 217.37 162.663 217.511M159.105 214.888L160.062 214.599C160.062 214.599 160.062 214.599 160.062 214.599L159.105 214.888ZM162.663 217.511C164.495 217.651 166.324 217.816 168.153 217.981C170.347 218.178 172.542 218.376 174.741 218.532M162.663 217.511L162.743 216.514C162.742 216.514 162.742 216.514 162.741 216.514C162.741 216.514 162.74 216.514 162.74 216.514L162.663 217.511ZM174.741 218.532C177.458 218.722 180.18 218.865 182.895 218.783C185.088 218.705 185.327 218.32 185.701 216.113M174.741 218.532L174.811 217.534C174.811 217.534 174.812 217.534 174.812 217.534C177.519 217.724 180.2 217.864 182.862 217.783C184.005 217.742 184.206 217.606 184.272 217.54C184.305 217.507 184.375 217.418 184.459 217.15C184.546 216.875 184.621 216.499 184.715 215.947M174.741 218.532L184.715 215.947M185.701 216.113C185.911 214.859 186.102 213.609 186.292 212.36C186.048 212.041 185.826 211.678 185.626 211.267L186.525 210.83L187.514 210.982C187.458 211.342 187.403 211.704 187.348 212.066C188.399 213.206 189.79 213.446 191.342 213.541C193.113 213.653 194.882 213.812 196.65 213.971C198.418 214.13 200.186 214.289 201.958 214.401M185.701 216.113L184.715 215.945C184.715 215.946 184.715 215.946 184.715 215.947M185.701 216.113L187.12 74.9127M201.958 214.401C204.854 214.578 207.75 214.661 210.636 214.635C212.227 214.623 212.505 213.923 211.933 212.45M201.958 214.401L202.019 213.403C202.019 213.403 202.019 213.403 202.02 213.403M201.958 214.401L202.021 213.403C202.02 213.403 202.02 213.403 202.02 213.403M211.933 212.45C211.493 211.322 211.042 210.196 210.59 209.07C209.378 206.049 208.164 203.024 207.173 199.933C203.811 189.398 202.086 178.488 200.658 167.58M211.933 212.45L211.001 212.812M211.933 212.45L211.001 212.813C211.001 212.813 211.001 212.813 211.001 212.812M200.658 167.58C197.932 146.818 196.306 125.947 194.681 105.085C194.493 102.668 194.305 100.251 194.115 97.835M200.658 167.58L199.666 167.71M200.658 167.58L199.666 167.71C199.666 167.71 199.666 167.71 199.666 167.71M194.115 97.835C193.79 93.7451 193.29 89.6726 192.789 85.5981C192.515 83.3676 192.241 81.1365 191.996 78.9016M194.115 97.835L193.118 97.9133C193.118 97.9136 193.118 97.9138 193.118 97.9141M194.115 97.835L193.118 97.9141M191.996 78.9016C191.674 76.0131 190.164 74.3503 187.265 73.9233M191.996 78.9016L191.002 79.0123M191.996 78.9016L191.002 79.0108C191.002 79.0113 191.002 79.0118 191.002 79.0123M187.265 73.9233C185.538 73.6712 183.817 73.3879 182.097 73.1047C178.896 72.5778 175.699 72.0515 172.477 71.7278C165.917 71.0622 163.969 72.5831 163.087 79.0686C162.364 84.3915 161.785 89.7326 161.205 95.0736C160.927 97.6449 160.648 100.216 160.353 102.785C160.341 102.906 160.318 103.024 160.288 103.146C160.296 103.16 160.307 103.177 160.319 103.197C160.337 103.225 160.359 103.258 160.383 103.296C160.477 103.44 160.615 103.651 160.766 103.918L159.897 104.413L158.936 104.137C159.017 103.855 159.1 103.6 159.167 103.396C159.173 103.378 159.179 103.36 159.185 103.342C159.203 103.287 159.22 103.235 159.235 103.189C159.242 103.165 159.249 103.142 159.256 103.12C158.982 101.331 158.717 99.5409 158.452 97.7506C158.113 95.4561 157.773 93.1613 157.415 90.8677M187.265 73.9233L187.119 74.9126L187.12 74.9127M187.265 73.9233L187.12 74.9128C187.12 74.9128 187.12 74.9128 187.12 74.9127M157.415 90.8677C156.564 85.4202 155.687 79.9814 154.75 74.5585L154.733 74.463C154.425 72.6579 154.093 70.712 151.8 70.3163C147.83 69.6231 143.86 68.9416 139.858 68.4105M157.415 90.8677L156.427 91.0221C156.427 91.0221 156.427 91.022 156.427 91.0219M157.415 90.8677L156.427 91.0219M139.858 68.4105C139.71 68.3917 139.573 68.3752 139.446 68.3599C137.828 68.1653 137.759 68.1569 137.46 66.1724C137.312 65.1802 137.185 64.1837 137.059 63.1877C136.857 61.5975 136.655 60.0084 136.365 58.4395M139.858 68.4105L139.726 69.4018C139.727 69.4019 139.728 69.402 139.729 69.4021M139.858 68.4105L139.732 69.4025C139.731 69.4024 139.73 69.4022 139.729 69.4021M136.365 58.4395C135.73 55.0248 134.796 54.1588 131.523 53.5895M136.365 58.4395L135.382 58.6211C135.382 58.6215 135.382 58.6219 135.382 58.6222M136.365 58.4395L135.382 58.6222M131.523 53.5895C130.617 53.4343 129.712 53.2724 128.808 53.1105C124.121 52.2721 119.436 51.4339 114.641 51.5319C114.565 51.3506 114.488 51.1851 114.415 51.029C114.262 50.6996 114.128 50.4121 114.063 50.1059C113.427 47.0708 113.118 46.6994 110.225 46.2257C106.708 45.6496 103.188 45.0929 99.5878 44.5234C97.8878 44.2545 96.1698 43.9828 94.4253 43.7048L93.539 43.7073M131.523 53.5895L131.354 54.5751C131.353 54.575 131.352 54.5748 131.351 54.5747M131.523 53.5895L131.351 54.5747M93.539 43.7073L92.5687 43.7101C92.4698 42.9647 92.3588 42.2031 92.2461 41.4308C91.9738 39.563 91.6923 37.6326 91.5522 35.7162M93.539 43.7073L93.4037 44.5544C95.449 44.8812 97.4548 45.1985 99.435 45.5117C103.034 46.0809 106.548 46.6368 110.063 47.2125C111.569 47.4591 112.022 47.645 112.275 47.9035C112.395 48.0264 112.521 48.2233 112.658 48.615C112.797 49.0161 112.925 49.5507 113.084 50.3108L113.085 50.316C113.156 50.6457 113.276 50.9375 113.387 51.1856C113.436 51.2944 113.479 51.3879 113.521 51.4776C113.587 51.6189 113.648 51.7509 113.719 51.9193L113.982 52.5456L114.662 52.5317C119.349 52.4359 123.92 53.2531 128.607 54.0908C129.517 54.2535 130.431 54.417 131.351 54.5747M91.5522 35.7162C91.4886 34.8516 91.215 34.3536 90.8704 34.0276C90.5021 33.679 89.9471 33.4271 89.1541 33.2628L89.1527 33.2625C88.6654 33.1607 88.1808 33.0578 87.6982 32.9553C85.1392 32.4116 82.6385 31.8804 80.1019 31.6076L80.0991 31.6073C79.5422 31.5459 78.9928 31.4793 78.4497 31.4134C75.3691 31.0399 72.4892 30.6907 69.5745 31.4469L69.5741 31.447C69.4825 31.4707 69.3966 31.4928 69.3159 31.5136C68.9173 31.6162 68.6441 31.6865 68.4255 31.7607C68.1744 31.846 68.1201 31.8981 68.111 31.9071L68.1109 31.9072C68.108 31.9099 68.0609 31.9528 67.9977 32.1733C67.9286 32.4141 67.8678 32.7628 67.7876 33.3243M91.5522 35.7162L67.7876 33.3243M91.5522 35.7162L161.347 102.893C161.312 103.226 161.226 103.526 161.141 103.794C161.112 103.884 161.084 103.971 161.055 104.058C160.992 104.25 160.929 104.444 160.859 104.688L160.204 106.974L159.028 104.907C158.909 104.698 158.814 104.552 158.723 104.411C158.693 104.365 158.663 104.319 158.633 104.272L158.631 104.269C158.531 104.112 158.354 103.835 158.299 103.478C158.012 101.605 157.737 99.7454 157.462 97.888C157.123 95.6015 156.786 93.319 156.427 91.0219M131.351 54.5747C132.962 54.8549 133.742 55.1757 134.23 55.6583C134.719 56.1424 135.07 56.9437 135.382 58.6222M135.382 58.6222C135.668 60.1728 135.862 61.7023 136.06 63.2641C136.187 64.2649 136.316 65.2789 136.471 66.3202L136.472 66.321C136.55 66.8411 136.622 67.2987 136.724 67.6613C136.83 68.0356 137.004 68.4457 137.376 68.7611C137.734 69.0645 138.154 69.174 138.494 69.237C138.736 69.2818 139.038 69.3182 139.362 69.3572C139.482 69.3716 139.605 69.3864 139.729 69.4021M139.729 69.4021C143.707 69.9302 147.659 70.6083 151.628 71.3014L151.63 71.3017C152.464 71.4458 152.871 71.8363 153.145 72.3633C153.464 72.9766 153.599 73.7627 153.764 74.7259L153.764 74.7273L153.764 74.7289C154.701 80.1444 155.576 85.5773 156.427 91.0219M187.12 74.9127C188.407 75.1024 189.28 75.5484 189.868 76.1742C190.459 76.8035 190.857 77.7156 191.002 79.0123M191.002 79.0123C191.25 81.2746 191.526 83.5177 191.801 85.7527C192.299 89.8111 192.795 93.8429 193.118 97.9141M193.118 97.9141C193.308 100.33 193.496 102.747 193.684 105.164C195.309 126.022 196.937 146.92 199.666 167.71M199.666 167.71C201.096 178.628 202.83 189.612 206.221 200.237L206.221 200.239C207.224 203.366 208.457 206.44 209.674 209.473C210.123 210.592 210.569 211.704 211.001 212.812M211.001 212.812C211.128 213.139 211.185 213.368 211.201 213.519C211.204 213.539 211.205 213.556 211.206 213.571M211.206 213.571C211.108 213.601 210.928 213.633 210.628 213.635L210.627 213.635C207.766 213.66 204.894 213.579 202.02 213.403M211.206 213.571C211.208 213.617 211.204 213.64 211.203 213.645C211.204 213.642 211.208 213.629 211.218 213.611C211.244 213.563 211.274 213.545 211.274 213.545C211.273 213.544 211.264 213.55 211.239 213.559C211.229 213.563 211.218 213.567 211.206 213.571ZM202.02 213.403C200.264 213.292 198.51 213.134 196.739 212.975L196.734 212.974C194.97 212.816 193.19 212.656 191.405 212.543L191.404 212.543C190.425 212.483 189.652 212.368 189.014 212.069C188.416 211.788 187.873 211.314 187.425 210.393L186.024 207.512L185.537 210.678C185.469 211.124 185.401 211.568 185.334 212.011C185.134 213.326 184.935 214.633 184.715 215.947M1.98978 6.30706C1.94452 4.98347 1.92788 4.1235 1.97697 3.5325C2.02687 2.93157 2.1326 2.83112 2.13471 2.82911L2.13474 2.82908C2.15182 2.81166 2.24541 2.72865 2.80186 2.62231C2.99841 2.58476 3.21601 2.54968 3.47745 2.50754C3.56305 2.49375 3.65334 2.4792 3.74913 2.46355C4.12774 2.40171 4.56634 2.32673 5.06572 2.22331C6.67873 1.89156 8.2778 1.95761 9.9456 2.15028C10.5174 2.21633 11.1178 2.30091 11.7322 2.38747C12.8409 2.54365 13.9954 2.70628 15.1101 2.77818C16.9903 2.90517 18.8362 3.32369 20.761 3.76008C21.4017 3.90534 22.0511 4.05258 22.7134 4.19171C23.3606 4.32765 23.7823 4.42962 24.0776 4.5378C24.3622 4.64203 24.4253 4.71625 24.4399 4.73473C24.4556 4.7546 24.5131 4.83498 24.5515 5.13813C24.5912 5.45202 24.5977 5.88184 24.5932 6.5352L1.98978 6.30706ZM24.5932 6.53534C24.5851 7.59222 24.624 8.66183 24.6642 9.76883C24.6817 10.2506 24.6995 10.7395 24.7137 11.2375L24.7368 12.0445L25.5306 12.192C28.1892 12.6862 30.7843 13.1722 33.3806 13.6585C33.7258 13.7231 34.071 13.7878 34.4163 13.8525M24.5932 6.53534L34.4163 13.8525" fill="#EFEFEF" stroke="#3C65F7" stroke-width="2"/>
</svg>
