<svg width="193" height="206" viewBox="0 0 193 206" fill="none" xmlns="http://www.w3.org/2000/svg">
<path d="M192.192 197.544C188.047 198.632 183.836 197.42 179.677 197.867C178.918 197.954 178.156 197.916 177.068 197.934C176.612 200.315 176.16 202.641 175.614 205.417C173.614 205.523 171.565 205.721 169.531 205.74C165.338 205.767 161.131 205.807 156.94 205.653C154.067 205.558 151.177 205.336 148.337 204.854C146.443 204.537 144.979 203.437 144.326 201.335C143.229 197.763 141.873 194.279 140.632 190.763C137.127 189.765 132.786 189.584 127.829 190.241C127.236 193.069 126.641 195.925 125.958 199.163C122.766 199.207 119.803 199.34 116.858 199.281C111.327 199.164 105.799 198.867 100.279 198.793C96.8857 198.75 94.2483 197.215 93.2543 194.221C91.895 190.139 89.0731 189.77 85.5535 189.744C80.1266 189.72 74.7068 189.293 69.2901 189.312C65.3638 189.32 63.2308 187.424 61.9319 183.932C60.2059 179.261 59.2798 178.861 54.4213 179.025C51.3505 179.121 48.2622 178.938 45.1948 178.673C44.3105 178.596 43.104 178.061 42.6915 177.357C41.3729 175.059 39.323 174.618 37.0193 174.697C31.5066 174.86 26.0099 174.677 20.5257 174.189C17.5826 173.935 17.0832 173.752 16.5578 170.813C15.1037 162.674 13.5505 154.555 12.5608 146.359C8.77503 114.953 5.18517 83.5363 1.55379 52.1159C1.05457 47.7463 0.725892 43.3357 0.394863 38.9527C0.167921 35.9421 0.224406 35.9331 3.25768 35.305C3.69676 35.2177 4.14367 35.2007 4.57132 35.0847C5.91072 34.7275 6.50258 33.9996 6.49573 32.4687C6.44991 27.8461 6.5447 23.2078 6.70733 18.5893C6.80603 15.6764 7.31898 15.5399 10.187 14.7306C15.0376 13.3692 19.8372 14.3684 24.6647 14.5632C25.4144 14.5863 26.1701 14.5403 27.118 14.5249C27.1601 11.301 27.1891 8.22907 27.2721 5.17569C27.3575 2.09469 27.6115 2.21405 30.6339 1.39023C35.6239 0.0270282 40.5694 0.788381 45.4392 1.45979C48.5764 1.88403 51.6234 2.06405 54.587 1.27688C59.4743 -0.0256435 64.2679 1.04256 69.1008 1.33517C71.5236 1.48897 73.9316 1.97545 76.3329 2.37781C78.5143 2.74724 80.8645 2.93646 81.2163 5.79094C90.3716 5.35821 99.1605 6.10409 107.832 8.6901C108.144 7.97976 108.355 6.66255 109.125 5.97782C109.849 5.33093 111.182 5.36276 112.227 5.03571C117.519 3.39261 122.783 4.82143 128.052 5.22131C130.141 5.37406 132.214 5.87328 134.289 6.17793C136.408 6.47235 138.397 6.96435 139.389 9.66545C139.773 5.86831 141.641 3.58594 144.992 2.81841C149.296 1.82712 153.542 2.94544 157.809 3.18907C160.662 3.35229 163.505 3.9598 166.341 4.48323C168.753 4.92821 169.045 5.41255 169.19 7.76223C170.119 22.6167 170.881 37.4707 172.077 52.3064C173.251 66.9038 174.746 81.4873 176.356 96.0389C179.357 123.162 183.061 150.192 188.176 177.011C189.325 183.05 190.685 189.053 191.961 195.062C192.001 195.246 192.239 195.392 192.393 195.544L192.221 197.532L192.192 197.544Z" fill="#FEFF8B"/>
</svg>
