<svg width="183" height="208" viewBox="0 0 183 208" fill="none" xmlns="http://www.w3.org/2000/svg">
<path d="M35.7192 15.4747L40.0429 16.0455C40.1345 14.398 40.169 12.8886 40.3178 11.3943C40.5118 9.41103 40.6554 9.49791 42.4508 9.03619C45.5293 8.24893 48.5473 8.94822 51.5693 9.25014C53.9984 9.49319 56.3948 10.1298 58.7911 10.6209C59.9416 10.8601 60.5636 11.3595 60.5976 12.7906C60.7199 19.0567 61.0269 25.3181 61.266 31.5802C61.3353 33.4042 61.4344 35.2223 61.8896 37.0584C62.0417 34.4388 62.1829 31.8274 62.354 29.2102C62.7753 22.5695 63.1979 15.9192 63.6586 9.27399C63.7692 7.62905 64.1518 7.44662 65.7771 7.09832C69.4753 6.31522 73.0838 7.09249 76.7084 7.60013C78.6011 7.86941 80.4685 8.32944 82.3448 8.72272C83.5226 8.97527 84.1168 9.53895 84.1247 10.9472C84.1276 14.2278 84.3628 17.51 84.5206 20.7917C84.5246 20.9087 84.6643 21.0242 84.9931 21.5431C85.2527 18.5495 85.4632 15.9278 85.7022 13.3099C85.8766 11.4017 86.1094 9.49146 86.2946 7.57494C86.4031 6.38586 87.0666 5.91057 88.2192 5.69394C92.1364 4.93976 95.9535 5.53106 99.7885 6.27998C101.215 6.55568 102.663 6.66921 104.397 6.89804C104.624 5.61787 104.856 4.29954 105.107 2.98373C105.465 1.08029 105.517 1.12599 107.418 0.746123C111.18 -0.00910328 114.854 0.640905 118.53 1.34938C119.73 1.57583 120.951 1.7272 122.146 1.9918C123.182 2.21595 124.185 2.55205 125.455 2.91382C125.418 5.39342 125.427 7.74326 125.34 10.0901C125.195 13.9819 124.991 17.8758 124.806 21.7721C124.795 21.926 124.703 22.108 124.766 22.2229C124.99 22.6505 125.266 23.0557 125.523 23.4584C125.867 23.1254 126.43 22.8308 126.5 22.4422C126.767 20.9344 126.883 19.3969 127.056 17.8669C127.137 17.1789 127.19 16.4871 127.288 15.8111C127.527 14.1539 127.793 14.0435 129.459 13.6812C133.001 12.9066 136.46 13.6446 139.926 14.1022C141.745 14.3424 143.536 14.7924 145.338 15.1661C147.601 15.6395 147.844 16.0016 147.613 18.2615C147.523 19.0939 147.471 19.9217 147.396 20.8628C148.024 20.9458 148.566 21.1726 149.018 21.0479C152.091 20.1628 155.095 21.1125 158.115 21.356C160.091 21.51 162.034 22.0577 163.978 22.4503C166.498 22.9577 166.769 23.2554 166.757 25.7674C166.733 30.5002 166.66 35.2363 166.615 39.9761C166.614 40.6456 166.692 41.3061 166.734 42.088C172.002 42.8418 177.184 43.225 182.261 44.9143C182.217 49.7997 182.223 54.4492 182.132 59.1052C181.884 72.7952 181.608 86.4815 181.353 100.161C181.086 114.295 180.837 128.431 180.58 142.566C180.36 154.649 179.918 166.731 178.631 178.76C177.788 186.685 176.544 194.566 175.405 202.461C175.18 204.013 174.528 205.509 174.105 206.947C170.938 207.888 167.96 207.107 165.001 206.988C162.091 206.866 159.202 206.368 156.301 206.247C153.632 206.137 152.253 204.761 151.736 202.296C151.17 199.611 150.645 196.911 150.1 194.209C149.955 193.472 149.821 192.726 149.666 191.92C144.044 191.566 138.51 191.214 132.725 190.848C132.433 192.032 132.162 193.277 131.807 194.502C131.14 196.762 130.546 199.062 129.703 201.26C128.636 204.06 127.463 204.798 124.564 204.59C119.822 204.255 115.102 203.748 110.36 203.413C107.547 203.217 105.888 201.833 105.051 199.151C104.24 196.559 104.145 196.692 101.539 196.542C98.03 196.331 94.5217 196.043 91.0386 195.564C90.0387 195.432 89.1502 194.528 88.0348 193.876C87.1196 195.231 85.4421 194.873 83.8245 194.796C80.6966 194.635 77.5707 194.533 74.4434 194.295C72.6106 194.16 70.758 193.954 68.9845 193.516C67.6155 193.17 66.4883 192.167 66.2258 190.706C65.6434 187.485 65.1625 184.228 64.7483 180.981C64.4947 178.938 64.389 176.877 64.3036 174.808C64.2658 173.92 64.0219 173.199 63.1204 173.128C60.7612 172.943 58.3965 172.873 56.0413 172.805C55.6065 172.796 55.17 173.02 54.7879 173.125C54.4208 174.144 54.039 175.054 53.7594 175.997C53.3066 177.52 52.2206 178.259 50.7516 178.23C47.6981 178.167 44.6394 177.996 41.5966 177.779C39.7828 177.646 39.7675 177.615 39.3708 179.445C39.0601 180.918 38.6269 182.365 38.1957 184.016C36.4665 184.05 34.8935 184.075 33.0869 184.109C32.9232 185.349 32.7481 186.674 32.5731 188C32.5227 188.382 32.5485 188.773 32.4994 189.145C32.1593 192.235 31.711 192.622 28.6192 192.408C25.1904 192.179 21.7507 191.958 18.3187 191.679C16.7944 191.556 15.2687 191.296 13.7607 191.048C12.2147 190.796 11.8443 190.446 11.7238 188.79C11.2331 182.378 10.7221 175.973 10.3387 169.556C8.86597 144.896 7.38369 120.234 5.99917 95.5662C4.61645 70.8109 2.62692 46.1016 0.353648 21.4131C-0.0498001 16.983 -0.0850169 12.5529 0.519603 8.11994C0.695905 6.78453 1.19369 6.31646 2.44905 6.05518C6.1447 5.29116 9.7645 5.98255 13.3708 6.55571C14.4718 6.73017 15.3926 7.09436 16.2242 5.93281C16.5094 5.53375 17.2952 5.45311 17.86 5.28506C20.8236 4.41468 23.799 5.06952 26.7411 5.38999C29.1771 5.65337 31.5899 6.166 33.9774 6.72382C36.4493 7.30249 36.4056 7.92754 36.1593 9.71955C35.9113 11.5987 35.8536 13.5029 35.7053 15.434L35.7192 15.4747Z" fill="#3C65F6"/>
</svg>
