<svg width="177" height="207" viewBox="0 0 177 207" fill="none" xmlns="http://www.w3.org/2000/svg">
<path d="M14.5045 13.2667C14.77 10.9585 15.014 8.83678 15.2581 6.71508C15.3654 5.78247 15.4726 4.84984 15.6369 3.93559C16.1096 1.36772 16.1981 1.62593 18.8129 0.887245C22.5027 -0.15302 26.0799 0.813617 29.6818 1.05075C32.5564 1.23965 35.4213 1.92352 38.2593 2.53343C40.5193 3.02962 40.6545 3.29321 40.6017 5.60227C40.5695 6.9097 40.4193 8.21538 40.3405 9.51744C40.1849 11.8974 40.3964 12.217 42.8134 12.684C44.2818 12.971 45.7936 13.0859 47.2632 13.3612C49.9603 13.8604 50.1874 14.1464 50.1604 16.8482C50.1412 18.1453 50.0754 19.4371 50.007 21.0592C52.7611 21.5768 55.3894 22.0563 58.0268 22.5605C59.7388 22.8873 61.4336 22.9523 62.5222 24.8966C62.9627 25.6914 64.8286 25.8115 66.0703 26.0134C70.1337 26.658 74.2119 27.1743 78.2793 27.7839C79.6274 27.9862 80.321 28.7392 80.5178 30.2147C80.9135 33.2487 81.5597 36.2642 82.0995 39.2792C82.2723 40.2441 82.4437 41.2206 83.0705 42.1431C83.4942 38.4593 83.9063 34.7741 84.3417 31.0916C84.6202 28.7731 84.9117 26.4442 85.2719 24.1351C85.5869 22.1161 85.918 22.0124 87.9159 21.4981C91.3755 20.6085 94.812 21.051 98.2369 21.4922C101.487 21.9133 104.731 22.4872 107.958 23.1064C109.681 23.4346 111.204 24.0705 111.033 26.3778C110.929 27.7004 111.831 28.383 113.138 28.5334C117.782 29.0675 122.437 29.6029 127.372 30.1706C127.509 29.702 127.776 29.0241 127.868 28.3259C128.191 25.8236 128.388 23.2947 128.746 20.7964C129.032 18.8213 129.915 18.1315 131.824 17.6777C136.308 16.6108 140.742 17.4279 145.172 17.9728C147.397 18.2525 149.596 18.7652 151.809 19.1614C153.43 19.4542 154.459 20.0687 154.624 22.0248C155.043 27.1167 155.807 32.1892 156.261 37.2851C158.238 59.5653 160.155 81.8505 162.109 104.128C163.097 115.369 164.17 126.595 165.064 137.837C165.199 139.541 165.87 140.185 167.319 140.435C169.347 140.786 171.417 140.989 173.404 141.489C176.357 142.23 175.981 142.518 176.008 144.647C176.16 155.555 176.561 166.456 176.501 177.364C176.472 182.853 175.733 188.355 175.186 193.832C175 195.653 174.381 197.436 173.872 199.598C167.387 199.349 161.068 199.094 154.49 198.834C153.358 201.278 153.95 204.559 151.158 206.837C148.257 206.775 144.992 206.789 141.748 206.629C138.21 206.458 134.684 205.97 131.143 205.917C128.181 205.871 126.56 204.244 125.864 201.766C124.567 197.105 123.456 192.382 122.512 187.631C121.569 182.881 120.929 178.07 120.144 173.279C120.087 172.954 119.921 172.651 119.294 172.343C118.895 175.604 118.497 178.866 118.087 182.114C117.893 183.698 117.712 185.272 117.473 186.839C117.172 188.836 116.809 189.326 114.833 189.335C111.473 189.362 108.102 189.175 104.747 189.049C98.4034 188.803 92.057 188.581 85.7228 188.254C83.5716 188.149 81.4212 187.83 79.3008 187.457C77.5628 187.15 76.5481 185.9 76.1861 184.216C75.7041 182.035 75.2235 179.841 74.9232 177.622C74.7287 176.229 74.0643 175.633 72.7442 175.599C71.1517 175.57 69.5632 175.505 67.9666 175.51C66.8421 175.523 66.7343 176.255 66.6464 177.225C66.4298 179.621 66.0966 182.004 65.6947 184.368C65.3989 186.117 64.2457 187.201 62.5402 187.23C59.8398 187.273 57.1372 187.234 54.4363 187.077C50.5256 186.852 46.6103 186.46 42.701 186.223C41.0232 186.113 39.7881 185.546 39.3107 183.837C38.6864 181.557 37.0546 180.944 34.8761 180.87C31.6147 180.755 28.3618 180.464 25.1089 180.172C22.4407 179.936 21.3149 178.932 20.7465 176.268C20.2636 173.992 19.747 171.7 19.5041 169.393C19.3414 167.827 18.5173 167.283 17.1782 167.105C16.2448 166.998 15.3074 166.926 14.3741 166.818C11.8629 166.553 11.1159 165.853 10.8491 163.342C10.6486 161.488 10.5791 159.625 10.4266 157.765C8.31718 131.808 6.1247 105.853 4.13325 79.8977C2.84599 63.2366 1.73643 46.5723 0.805894 29.8931C0.547136 25.2567 1.27419 20.5802 1.39683 15.9168C1.44495 14.1624 2.33005 13.6617 3.81702 13.4784C6.31086 13.1747 8.75065 12.4158 11.3204 13.302C12.139 13.5852 13.1557 13.2769 14.5345 13.2111L14.5045 13.2667Z" fill="#231F1C"/>
</svg>
