<svg width="322" height="241" viewBox="0 0 322 241" fill="none" xmlns="http://www.w3.org/2000/svg">
<path d="M224.741 197.145C225.903 197.72 227.065 198.301 228.234 198.875C229.592 199.544 230.957 200.206 232.315 200.875C233.579 201.497 234.863 202.084 236.113 202.74C237.12 203.267 238.086 203.855 239.065 204.422C239.951 204.936 240.843 205.456 241.721 205.983C242.579 206.503 243.437 207.024 244.282 207.564C245.147 208.118 246.012 208.679 246.856 209.26C247.782 209.902 248.681 210.571 249.593 211.226C250.437 211.841 251.302 212.436 252.133 213.071C253.005 213.74 253.856 214.429 254.694 215.132C255.491 215.801 256.282 216.477 257.046 217.186C257.809 217.896 258.532 218.652 259.275 219.382C259.404 219.51 259.552 219.625 259.701 219.72C260.769 220.409 260.856 222.321 260.519 223.477C260.133 224.794 259.106 224.436 258.383 224.815C258.174 224.923 257.823 224.713 257.539 224.727C255.931 224.794 254.323 224.875 252.714 224.97C251.302 225.051 249.897 225.2 248.485 225.213C248.059 225.22 247.512 224.983 247.248 224.666C247.079 224.456 247.241 223.869 247.404 223.517C247.829 222.625 247.849 222.125 247.113 221.402C244.653 218.99 242.12 216.666 239.363 214.571C234.903 211.179 230.167 208.24 225.329 205.449C222.579 203.862 219.694 202.497 216.775 201.233C211.511 198.963 206.187 196.828 200.876 194.672C199.862 194.26 198.781 194.024 197.734 193.699C197.673 193.767 197.619 193.828 197.558 193.895C197.903 194.402 198.227 194.929 198.605 195.415C198.984 195.909 199.43 196.355 199.815 196.848C200.524 197.747 201.213 198.659 201.903 199.571C202.504 200.361 203.078 201.172 203.693 201.949C204.322 202.747 204.97 203.524 205.626 204.301C206.328 205.139 207.045 205.963 207.761 206.794C208.443 207.585 209.119 208.368 209.808 209.145C210.518 209.943 211.227 210.74 211.97 211.51C212.673 212.24 213.416 212.922 214.146 213.632C214.538 214.017 214.93 214.409 215.322 214.787C216.16 215.598 217.004 216.402 217.835 217.227C218.572 217.963 219.268 218.747 220.031 219.456C220.775 220.146 221.585 220.767 222.349 221.429C223.099 222.078 223.829 222.747 224.586 223.396C225.403 224.092 226.227 224.767 227.065 225.436C227.822 226.044 228.572 226.666 229.369 227.213C229.998 227.639 230.68 228.004 231.383 228.294C231.829 228.484 232.133 228.666 232.153 229.186C232.174 229.774 231.782 229.943 231.336 229.99C229.309 230.193 227.275 230.396 225.248 230.544C223.64 230.659 222.018 230.673 220.41 230.761C219.646 230.801 219.004 230.632 218.396 230.125C214.626 226.956 210.734 223.916 207.072 220.625C204.112 217.97 201.342 215.098 198.619 212.199C196.322 209.76 194.18 207.179 192.024 204.605C190.254 202.49 188.531 200.341 186.875 198.138C184.983 195.618 183.146 193.057 181.362 190.463C180.592 189.341 179.652 188.767 178.301 188.53C175.058 187.969 171.862 187.152 168.618 186.625C159.226 185.098 149.78 184.145 140.246 184.165C137.787 184.172 135.327 184.077 132.874 184.125C132.064 184.138 131.26 184.49 130.449 184.638C129.962 184.726 129.462 184.733 128.969 184.76C127.388 184.848 125.807 184.915 124.226 185.01C122.786 185.091 121.354 185.206 119.915 185.273C119.638 185.287 119.259 185.24 119.09 185.064C118.55 184.49 117.901 184.51 117.219 184.584C112.05 185.145 106.867 185.679 101.705 186.28C99.0631 186.591 96.4279 186.99 93.8062 187.442C91.5359 187.834 89.2926 188.368 87.0291 188.821C85.2182 189.186 83.3871 189.483 81.5898 189.888C80.1641 190.206 78.7722 190.652 77.36 191.023C75.9546 191.395 74.5424 191.74 73.1369 192.125C71.7248 192.51 70.3261 192.942 68.9206 193.341C67.9071 193.632 66.826 193.767 65.8868 194.213C64.6908 194.78 63.1841 194.699 62.2922 195.922C61.9949 196.334 61.6097 196.679 61.3327 197.105C60.7583 197.976 60.2583 198.902 59.6705 199.767C59.3326 200.267 58.8664 200.679 58.4813 201.138C58.1907 201.49 57.9002 201.848 57.6502 202.226C57.0758 203.098 56.5623 204.01 55.9474 204.848C55.3393 205.686 54.6163 206.436 53.9744 207.253C53.6028 207.726 53.3123 208.267 52.9677 208.76C52.7042 209.132 52.4271 209.49 52.1231 209.821C51.7177 210.267 51.2717 210.672 50.8595 211.112C50.5284 211.456 50.1973 211.808 49.9136 212.193C49.5554 212.679 49.2919 213.24 48.9068 213.7C48.5081 214.172 48.0014 214.558 47.5622 215.004C47.2446 215.321 46.9405 215.659 46.6703 216.017C46.3054 216.497 46.0148 217.044 45.6229 217.49C45.2175 217.956 44.704 218.335 44.2648 218.774C43.9675 219.071 43.6837 219.389 43.4202 219.72C43.0553 220.186 42.7242 220.693 42.3594 221.159C42.035 221.571 41.7242 222.024 41.3188 222.342C40.6837 222.842 40.1769 223.416 39.7039 224.065C39.3458 224.551 38.7715 224.869 38.312 225.288C38.0012 225.571 37.7174 225.882 37.4471 226.2C37.062 226.646 36.7174 227.132 36.3187 227.571C35.9133 228.004 35.4741 228.402 35.0349 228.808C34.6025 229.2 34.1498 229.571 33.7241 229.97C33.1835 230.463 32.6362 230.957 32.1227 231.477C31.7038 231.896 31.3524 232.382 30.92 232.788C30.4403 233.24 29.9065 233.632 29.3862 234.051C28.9808 234.376 28.5416 234.666 28.1632 235.024C27.5889 235.565 27.1024 236.159 26.3118 236.484C25.778 236.7 25.4266 237.322 24.9334 237.68C24.4469 238.024 23.8928 238.274 23.359 238.551C22.8658 238.808 22.2982 238.957 21.886 239.308C21.055 240.018 20.0617 239.984 19.0955 240.058C17.19 240.207 15.2913 240.355 13.3859 240.443C12.0413 240.504 10.6832 240.545 9.34529 240.409C8.92637 240.369 8.36554 239.801 8.23041 239.362C8.03446 238.734 8.65609 238.484 9.2034 238.308C10.9872 237.734 12.5345 236.727 14.0008 235.592C15.1359 234.713 16.2711 233.849 17.3657 232.93C18.136 232.281 18.8319 231.551 19.5617 230.855C20.3455 230.105 21.136 229.362 21.9063 228.598C22.9401 227.571 23.9604 226.538 24.9739 225.49C26.0077 224.429 27.0415 223.362 28.0483 222.274C29.0146 221.227 29.947 220.139 30.893 219.071C31.5957 218.281 32.3187 217.497 33.0146 216.7C33.6971 215.929 34.3592 215.139 35.0282 214.362C35.7174 213.558 36.3998 212.754 37.0823 211.943C37.7106 211.193 38.3458 210.449 38.9607 209.693C39.6093 208.889 40.2647 208.085 40.8864 207.253C41.8256 206.003 42.7445 204.733 43.6702 203.47C43.8391 203.24 44.0351 203.024 44.2175 202.801C44.1837 202.72 44.1499 202.645 44.1229 202.564C43.8324 202.666 43.5351 202.747 43.2513 202.868C42.6702 203.125 42.0891 203.395 41.5148 203.666C41.008 203.902 40.481 204.112 39.9877 204.375C39.4472 204.659 38.9472 205.01 38.4066 205.301C37.7444 205.666 37.0755 206.01 36.3931 206.335C35.8255 206.605 35.2309 206.821 34.6633 207.091C34.2579 207.28 33.8525 207.49 33.4741 207.733C32.9876 208.044 32.5484 208.436 32.0551 208.726C31.5349 209.031 30.9605 209.247 30.4267 209.531C29.9402 209.787 29.4537 210.064 29.001 210.375C28.5078 210.72 28.0686 211.139 27.5821 211.483C26.9605 211.922 26.3253 212.348 25.6767 212.747C25.1699 213.058 24.6091 213.301 24.1091 213.625C23.6361 213.929 23.2104 214.314 22.7577 214.645C22.1969 215.051 21.6158 215.429 21.0685 215.841C20.6022 216.193 20.163 216.578 19.7103 216.956C19.2509 217.335 18.8049 217.727 18.3387 218.098C17.8117 218.524 17.2711 218.936 16.7373 219.348C16.2305 219.733 15.717 220.112 15.2103 220.504C14.8657 220.781 14.5143 221.058 14.2035 221.369C13.8521 221.727 13.44 222.092 13.2508 222.531C13.0548 222.983 12.8589 223.125 12.3791 223.152C10.1696 223.267 7.96689 223.436 5.75739 223.585C4.29115 223.679 2.83166 223.828 1.36542 223.835C0.932983 223.835 0.372163 223.531 0.108644 223.186C-0.195415 222.788 0.203241 222.416 0.514057 222.031C2.16273 219.977 4.25737 218.443 6.32497 216.875C8.50744 215.227 10.6359 213.49 12.8994 211.943C15.3184 210.287 17.8184 208.72 20.3658 207.274C23.109 205.72 25.9672 204.368 28.7443 202.889C33.1835 200.524 37.8525 198.679 42.5418 196.882C44.731 196.044 46.927 195.213 49.1568 194.496C50.2514 194.145 50.9136 193.388 51.5082 192.537C52.6501 190.902 53.7515 189.233 54.8393 187.557C55.8529 185.996 56.8326 184.408 57.8394 182.841C58.6299 181.604 59.461 180.395 60.2313 179.158C61.2178 177.577 62.1705 175.969 63.1435 174.381C63.88 173.172 64.6368 171.976 65.3733 170.766C66.1503 169.489 66.9206 168.212 67.6841 166.928C68.6639 165.3 69.6504 163.685 70.6099 162.05C71.5558 160.435 72.468 158.807 73.3869 157.178C74.1032 155.894 74.8059 154.604 75.5086 153.313C76.2113 152.023 76.914 150.732 77.6032 149.442C78.2654 148.192 78.9276 146.935 79.5695 145.671C80.4479 143.935 81.306 142.178 82.1776 140.435C82.7993 139.191 83.4344 137.955 84.056 136.712C84.7115 135.394 85.3466 134.07 85.9885 132.745C86.6507 131.374 87.3129 130.002 87.9548 128.617C88.7521 126.894 89.5426 125.171 90.3197 123.441C91.2454 121.367 92.1711 119.286 93.063 117.191C93.9684 115.076 94.8468 112.941 95.7184 110.813C96.59 108.684 97.4684 106.556 98.2995 104.407C99.1374 102.258 99.9279 100.096 100.725 97.934C101.516 95.7718 102.333 93.6163 103.056 91.4271C103.739 89.3663 104.354 87.2784 104.942 85.1838C105.57 82.9607 106.151 80.7242 106.719 78.4877C107.171 76.6904 107.59 74.8863 107.989 73.0822C108.401 71.2241 108.8 69.3659 109.158 67.4943C109.502 65.6767 109.806 63.8523 110.09 62.0212C110.381 60.1428 110.665 58.2576 110.894 56.3657C111.171 54.0481 111.401 51.7237 111.624 49.3993C111.847 47.075 112.09 44.7506 112.205 42.4263C112.307 40.3316 112.225 38.2302 112.259 36.1356C112.313 33.1828 112.394 30.2233 112.516 27.2706C112.53 26.9463 112.827 26.4665 113.104 26.3584C114.003 26.0138 114.942 25.6489 115.888 25.5949C117.665 25.4935 119.455 25.6016 121.239 25.6422C122.205 25.6624 123.172 25.6962 124.138 25.7435C125.516 25.8111 125.753 26.0476 125.739 27.3854C125.719 29.6693 125.685 31.9463 125.631 34.2302C125.618 34.7504 125.786 34.9734 126.307 34.9869C126.732 35.0004 127.165 35.068 127.584 35.1626C127.773 35.2099 128.037 35.3586 128.084 35.514C128.53 37.0005 129.78 37.8586 130.706 38.9735C131.368 39.7708 131.929 40.6492 132.584 41.4533C133.219 42.2371 133.942 42.9533 134.591 43.7236C135.226 44.4803 135.82 45.2777 136.435 46.0547C137.125 46.9331 137.82 47.8047 138.51 48.6831C139.111 49.4399 139.706 50.2034 140.307 50.9602C141.023 51.8521 141.76 52.7237 142.462 53.6224C143.104 54.44 143.692 55.3049 144.341 56.1157C144.99 56.9265 145.679 57.7036 146.348 58.5009C146.665 58.8792 146.969 59.2711 147.28 59.6563C148.321 60.9266 149.361 62.1901 150.395 63.4672C151.307 64.6023 152.172 65.7848 153.118 66.8929C154.064 68.001 155.105 69.0281 156.078 70.1159C156.767 70.893 157.375 71.7443 158.071 72.5214C158.753 73.2714 159.503 73.9538 160.213 74.6836C160.922 75.4133 161.584 76.1836 162.307 76.8931C163.051 77.6161 163.848 78.2917 164.618 78.9877C165.355 79.6566 166.078 80.3323 166.828 80.9877C167.652 81.704 168.497 82.3932 169.335 83.0959C170.098 83.731 170.848 84.3797 171.639 84.9946C172.483 85.65 173.362 86.2716 174.227 86.9C175.037 87.4879 175.841 88.0757 176.659 88.6433C177.517 89.2446 178.382 89.8392 179.267 90.4068C180.152 90.9812 181.058 91.5217 181.956 92.069C182.835 92.6096 183.706 93.1501 184.598 93.6704C185.558 94.2312 186.524 94.7853 187.504 95.2988C188.659 95.9069 189.815 96.5083 191.004 97.0421C192.321 97.6367 193.659 98.1907 195.017 98.6772C196.815 99.3259 198.619 99.961 200.457 100.475C205.173 101.799 209.997 102.319 214.883 101.948C217.91 101.718 220.856 100.941 223.673 99.8259C226.761 98.6029 229.802 97.238 232.795 95.7988C234.619 94.9204 236.376 93.8663 238.072 92.7447C240.005 91.4676 241.863 90.0825 243.701 88.6703C245.505 87.2851 247.235 85.7986 249.012 84.3797C250.066 83.5351 250.485 82.4945 250.512 81.1229C250.566 78.6566 250.931 76.2377 251.795 73.8795C252.498 71.9606 253.491 70.2173 254.863 68.7848C257.971 65.5483 261.87 63.8726 266.363 63.8591C269.296 63.8523 272.228 64.1226 275.167 64.2172C276.1 64.251 276.688 64.8118 277.296 65.3591C277.445 65.4942 277.546 65.8321 277.492 66.0213C277.174 67.0821 277.073 68.2172 276.235 69.1024C275.843 69.5213 275.681 70.1497 275.363 70.6497C275.066 71.1227 274.708 71.5551 274.363 71.9943C273.904 72.5822 273.444 73.1768 272.944 73.7241C272.526 74.1836 272.032 74.5822 271.586 75.0147C271.262 75.3255 270.938 75.6431 270.661 75.9944C270.289 76.4674 269.985 76.9877 269.607 77.4539C269.275 77.8593 268.897 78.2242 268.525 78.5958C267.998 79.1364 267.478 79.6837 266.931 80.1904C266.478 80.6094 265.965 80.954 265.519 81.3661C265.086 81.7648 264.701 82.2175 264.289 82.6432C264.147 82.7918 263.965 82.9202 263.856 83.0891C263.708 83.3189 263.519 83.5824 263.512 83.8324C263.478 85.4 263.438 86.9676 263.492 88.5352C263.559 90.346 263.701 92.1501 263.863 93.9542C263.992 95.3596 264.181 96.7583 264.404 98.1502C264.701 100.042 265.032 101.934 265.377 103.819C265.701 105.603 266.046 107.38 266.424 109.15C266.735 110.603 267.1 112.049 267.451 113.488C267.796 114.88 268.14 116.272 268.512 117.657C268.897 119.09 269.309 120.515 269.715 121.948C269.998 122.948 270.282 123.941 270.586 124.934C270.884 125.921 271.194 126.907 271.505 127.894C271.836 128.928 272.161 129.968 272.505 130.995C272.972 132.374 273.444 133.745 273.924 135.124C274.269 136.124 274.613 137.124 274.978 138.124C275.33 139.09 275.708 140.05 276.073 141.016C276.438 141.982 276.789 142.955 277.168 143.915C277.553 144.894 277.972 145.86 278.37 146.833C278.749 147.759 279.12 148.692 279.505 149.617C279.931 150.638 280.364 151.651 280.796 152.665C281.195 153.611 281.593 154.563 282.005 155.503C282.404 156.421 282.816 157.34 283.228 158.253C283.674 159.239 284.12 160.219 284.58 161.192C285.005 162.097 285.451 162.989 285.904 163.881C286.37 164.8 286.857 165.699 287.316 166.618C287.553 167.091 287.688 167.631 287.992 168.037C288.141 168.233 288.607 168.293 288.904 168.246C290.823 167.935 292.722 167.368 294.648 167.28C297.952 167.138 301.276 167.273 304.587 167.341C305.499 167.361 306.405 167.557 307.31 167.685C307.837 167.76 308.04 168.104 308.013 168.604C307.986 169.104 307.661 169.131 307.236 169.199C303.209 169.82 299.181 170.462 295.168 171.138C293.769 171.374 292.391 171.699 291.006 171.983C290.316 172.124 290.249 172.361 290.593 172.996C291.087 173.922 291.492 174.902 291.985 175.827C292.465 176.726 293.026 177.584 293.539 178.469C294.026 179.307 294.492 180.165 294.985 181.003C295.553 181.976 296.127 182.935 296.702 183.902C297.235 184.8 297.756 185.713 298.317 186.598C298.864 187.456 299.465 188.273 300.033 189.125C300.614 189.996 301.154 190.888 301.742 191.76C302.323 192.625 302.945 193.463 303.546 194.314C304.154 195.165 304.742 196.03 305.371 196.861C305.979 197.672 306.628 198.449 307.263 199.24C307.938 200.071 308.6 200.909 309.296 201.72C309.959 202.49 310.648 203.233 311.344 203.97C312.04 204.706 312.756 205.436 313.479 206.152C313.938 206.605 314.418 207.044 314.905 207.47C315.634 208.098 316.378 208.72 317.128 209.328C318.08 210.098 319.053 210.801 320.344 210.943C321.621 211.085 322.047 211.74 321.567 212.672C321.472 212.855 321.236 213.051 321.04 213.078C320.202 213.2 319.357 213.267 318.513 213.335C317.466 213.422 316.418 213.51 315.371 213.564C313.898 213.639 312.418 213.598 310.959 213.774C309.236 213.983 307.864 213.274 306.513 212.409C303.817 210.679 301.472 208.537 299.337 206.179C297.465 204.112 295.567 202.057 293.857 199.861C291.925 197.375 290.154 194.76 288.377 192.159C286.6 189.557 284.85 186.936 283.188 184.253C281.978 182.307 280.938 180.253 279.83 178.239C279.431 177.516 279.093 176.753 278.627 176.07C278.438 175.793 277.924 175.496 277.647 175.564C276.296 175.908 274.972 176.375 273.64 176.8C272.64 177.118 271.634 177.415 270.634 177.746C269.667 178.071 268.708 178.429 267.742 178.76C266.748 179.098 265.748 179.408 264.755 179.753C263.769 180.098 262.789 180.462 261.809 180.834C261.323 181.017 260.863 181.267 260.377 181.435C259.005 181.915 257.606 182.321 256.248 182.848C254.897 183.368 253.6 184.023 252.262 184.577C251.316 184.969 250.329 185.253 249.383 185.652C248.444 186.05 247.545 186.55 246.613 186.976C246.072 187.219 245.512 187.409 244.957 187.625C244.505 187.8 244.039 187.949 243.606 188.165C242.694 188.625 241.809 189.132 240.89 189.584C240.363 189.841 239.788 190.01 239.255 190.26C238.701 190.517 238.167 190.807 237.633 191.098C237.126 191.375 236.626 191.686 236.12 191.969C235.491 192.321 234.849 192.659 234.221 193.01C233.829 193.233 233.451 193.483 233.052 193.699C232.525 193.976 231.951 194.186 231.451 194.503C230.95 194.828 230.545 195.301 230.038 195.618C229.457 195.983 228.842 196.388 228.187 196.524C227.241 196.726 226.241 196.699 225.268 196.78C225.099 196.794 224.937 196.868 224.775 196.915C224.761 196.99 224.748 197.071 224.741 197.145ZM250.599 93.6501C250.066 93.988 249.681 94.2515 249.275 94.4812C248.789 94.7582 248.295 95.015 247.802 95.265C247.268 95.5421 246.708 95.7718 246.194 96.0758C245.674 96.3799 245.208 96.765 244.694 97.0826C244.316 97.3191 243.91 97.5353 243.505 97.711C242.944 97.9543 242.343 98.1097 241.795 98.3799C240.876 98.8259 240.005 99.38 239.072 99.7921C238.093 100.225 237.059 100.542 236.052 100.927C235.072 101.299 234.119 101.752 233.119 102.062C231.64 102.529 230.14 102.948 228.633 103.306C226.782 103.745 224.93 104.238 223.052 104.468C220.268 104.806 217.464 105.008 214.666 105.123C207.747 105.414 200.828 105.373 194.017 103.954C190.653 103.252 187.288 102.38 184.058 101.218C181.004 100.116 178.051 98.6705 175.2 97.1096C171.612 95.1434 168.105 93.0015 164.686 90.7447C160.226 87.7987 156.071 84.4337 152.165 80.785C150.165 78.9134 148.253 76.9471 146.361 74.9674C144.767 73.2984 143.24 71.5687 141.726 69.8321C140.246 68.1362 138.8 66.4064 137.361 64.6699C136.185 63.2442 135.043 61.7915 133.888 60.3522C132.651 58.8049 131.428 57.2508 130.192 55.7035C129.78 55.1968 129.334 54.717 128.901 54.2238C128.895 54.8116 128.969 55.2846 129.097 55.7441C129.476 57.1562 129.847 58.5684 130.26 59.9739C130.685 61.4198 131.151 62.8523 131.604 64.2915C131.908 65.251 132.219 66.2105 132.53 67.1699C132.861 68.2037 133.179 69.2375 133.516 70.2646C133.847 71.2714 134.199 72.2714 134.55 73.2714C134.875 74.1971 135.212 75.1093 135.55 76.0282C136.07 77.4404 136.591 78.8593 137.125 80.2715C137.496 81.258 137.875 82.2445 138.26 83.2243C138.638 84.1837 139.023 85.1432 139.408 86.0959C139.787 87.0284 140.158 87.9541 140.55 88.8798C140.962 89.8528 141.388 90.8257 141.8 91.7987C142.219 92.7988 142.638 93.7988 143.05 94.792C143.456 95.765 143.854 96.7448 144.28 97.7178C144.665 98.6097 145.077 99.4948 145.483 100.38C145.935 101.36 146.408 102.333 146.854 103.319C147.267 104.231 147.638 105.157 148.057 106.069C148.496 107.029 148.983 107.968 149.422 108.927C150.023 110.245 150.571 111.59 151.186 112.9C151.807 114.238 152.496 115.542 153.125 116.88C153.74 118.191 154.287 119.536 154.902 120.847C155.53 122.178 156.206 123.488 156.855 124.813C157.49 126.117 158.091 127.428 158.726 128.725C159.24 129.766 159.774 130.786 160.314 131.813C160.787 132.718 161.294 133.61 161.767 134.522C162.24 135.435 162.679 136.36 163.138 137.279C163.598 138.198 164.051 139.11 164.524 140.023C165.03 141.002 165.551 141.975 166.071 142.948C166.53 143.806 167.01 144.651 167.476 145.502C168.01 146.469 168.537 147.435 169.071 148.408C169.551 149.279 170.01 150.158 170.497 151.03C170.997 151.921 171.517 152.807 172.024 153.698C172.585 154.678 173.132 155.658 173.693 156.631C174.179 157.476 174.666 158.313 175.159 159.151C175.727 160.117 176.314 161.077 176.875 162.05C177.389 162.935 177.868 163.834 178.382 164.726C178.889 165.611 179.416 166.482 179.943 167.361C180.483 168.26 181.037 169.151 181.585 170.043C182.119 170.908 182.659 171.773 183.206 172.631C183.781 173.537 184.382 174.429 184.956 175.334C185.504 176.192 186.024 177.07 186.571 177.929C187.146 178.834 187.74 179.726 188.321 180.625C188.862 181.456 189.375 182.307 189.943 183.125C190.538 183.983 191.261 184.76 191.767 185.665C192.146 186.341 192.632 186.713 193.349 186.868C194.193 187.05 195.044 187.199 195.876 187.436C199.403 188.436 202.943 189.402 206.437 190.51C209.815 191.578 213.146 192.807 216.498 193.969C217.234 194.226 217.957 194.517 218.7 193.956C219.295 193.503 219.896 193.044 220.538 192.672C221.788 191.949 223.058 191.26 224.349 190.611C227.173 189.192 229.984 187.753 232.849 186.436C235.701 185.125 238.599 183.908 241.518 182.74C245.241 181.246 248.985 179.78 252.762 178.429C260.133 175.787 267.6 173.429 275.167 171.408C275.951 171.199 276.032 170.901 275.64 170.192C275.107 169.205 274.62 168.199 274.12 167.199C273.492 165.928 272.857 164.665 272.242 163.388C271.411 161.651 270.6 159.915 269.796 158.165C269.194 156.854 268.62 155.536 268.046 154.212C267.451 152.84 266.87 151.469 266.302 150.09C265.755 148.759 265.221 147.421 264.694 146.083C264.14 144.698 263.586 143.313 263.052 141.914C262.519 140.516 261.998 139.117 261.492 137.712C260.998 136.333 260.512 134.948 260.046 133.556C259.586 132.191 259.154 130.82 258.715 129.448C258.262 128.022 257.809 126.597 257.377 125.171C256.951 123.766 256.546 122.353 256.14 120.941C255.755 119.583 255.356 118.225 255.005 116.86C254.62 115.387 254.268 113.907 253.931 112.421C253.518 110.623 253.106 108.826 252.748 107.022C252.37 105.137 252.032 103.245 251.708 101.353C251.451 99.8529 251.228 98.3462 251.012 96.8394C250.85 95.8799 250.748 94.9001 250.599 93.6501ZM116.144 92.319C116.043 92.2852 115.948 92.2447 115.847 92.2109C103.786 126.529 87.2588 158.597 67.1504 188.888C67.5625 188.909 67.8733 188.848 68.1774 188.767C69.6166 188.402 71.0423 187.963 72.495 187.665C79.7384 186.172 86.9683 184.584 94.3197 183.665C98.4685 183.145 102.61 182.55 106.773 182.131C110.401 181.767 114.043 181.577 117.678 181.334C118.28 181.294 118.611 181.165 118.57 180.442C118.462 178.388 118.428 176.334 118.347 174.28C118.226 171.151 118.043 168.023 117.969 164.895C117.881 161.3 117.861 157.705 117.847 154.111C117.834 150.57 117.908 147.023 117.888 143.482C117.867 139.516 117.807 135.543 117.746 131.576C117.705 128.847 117.665 126.117 117.57 123.387C117.442 119.853 117.259 116.326 117.104 112.792C116.982 109.873 116.888 106.961 116.746 104.042C116.57 100.13 116.347 96.2245 116.144 92.319ZM176.47 183.442C157.875 155.381 143.017 125.597 129.618 94.8055C129.462 95.1637 129.395 95.238 129.401 95.3056C129.55 97.6164 129.746 99.9273 129.854 102.245C129.962 104.562 129.969 106.887 130.07 109.204C130.185 111.921 130.381 114.63 130.489 117.353C130.604 120.495 130.672 123.644 130.739 126.786C130.807 129.712 130.868 132.644 130.895 135.57C130.928 138.502 130.908 141.435 130.928 144.367C130.949 147.516 131.003 150.665 131.003 153.813C131.003 156.536 130.895 159.259 130.949 161.976C131.016 165.314 131.192 168.645 131.341 171.983C131.462 174.726 131.651 177.462 131.706 180.206C131.719 180.908 131.949 180.935 132.483 180.942C138.341 181.003 144.206 181.003 150.057 181.179C154.746 181.321 159.442 181.584 164.118 181.99C167.875 182.321 171.605 182.949 175.348 183.442C175.632 183.476 175.923 183.442 176.47 183.442Z" fill="#231F1C"/>
<path d="M190.005 68.2785C187.052 68.0285 184.059 67.988 181.147 67.4812C178.133 66.9542 175.268 65.8325 172.457 64.5352C169.025 62.9541 165.856 60.9406 162.863 58.7108C159.261 56.0283 155.937 52.981 152.558 50.0079C150.558 48.2512 148.687 46.3525 146.795 44.4741C144.869 42.5619 142.991 40.6024 141.092 38.6631C138.876 36.3928 136.68 34.1023 134.457 31.8455C132.254 29.6022 130.058 27.3454 127.794 25.1629C125.335 22.7912 122.801 20.4939 120.301 18.156C117.058 15.1289 113.504 12.487 109.848 10.0005C106.139 7.48017 102.186 5.37878 97.9291 3.89902C95.9358 3.20307 93.875 3.06117 91.7871 3.07469C91.4492 3.07469 91.0573 3.03414 90.8006 2.85171C90.5573 2.68279 90.3073 2.29764 90.3208 2.02737C90.3411 1.77061 90.6519 1.43276 90.9222 1.30438C93.3952 0.0881467 96.0574 -0.00644962 98.7467 0.000307253C102.632 0.00706413 106.449 0.412477 110.112 1.79764C111.436 2.29764 112.747 2.85171 114.024 3.46658C115.456 4.14903 116.875 4.87201 118.233 5.68284C119.875 6.66934 121.457 7.77071 123.058 8.8383C124.274 9.65588 125.511 10.4532 126.686 11.3316C128.044 12.3451 129.369 13.4127 130.673 14.5006C131.95 15.5681 133.2 16.6763 134.423 17.8114C135.511 18.8182 136.551 19.879 137.605 20.9196C138.795 22.0885 139.964 23.271 141.166 24.4197C142.22 25.4264 143.335 26.3724 144.369 27.3927C145.106 28.1224 145.741 28.9603 146.464 29.7103C147.187 30.4535 147.991 31.1225 148.721 31.8657C149.45 32.609 150.099 33.4266 150.822 34.1766C151.545 34.9198 152.342 35.5955 153.072 36.3388C153.802 37.082 154.457 37.8929 155.187 38.6361C155.91 39.3794 156.694 40.0686 157.423 40.8051C158.153 41.5483 158.829 42.3456 159.552 43.0889C160.241 43.7984 160.971 44.4673 161.68 45.1565C162.167 45.6295 162.653 46.0957 163.133 46.5687C163.829 47.2376 164.511 47.9133 165.214 48.5755C166.025 49.3458 166.836 50.116 167.674 50.8593C168.417 51.5147 169.201 52.1364 169.971 52.7512C170.768 53.3864 171.579 54.008 172.39 54.6296C173.606 55.5621 174.822 56.5013 176.059 57.4135C176.903 58.0419 177.762 58.6635 178.66 59.2108C180.126 60.1095 181.593 61.0081 183.12 61.7919C184.471 62.4879 185.863 63.123 187.302 63.6095C188.775 64.1095 190.302 64.5082 191.836 64.7379C193.329 64.9609 194.566 64.1028 195.789 63.3595C196.066 63.1906 196.363 63.0352 196.573 62.8055C196.992 62.3325 197.492 61.8933 197.059 61.1095C196.789 60.6162 197.012 60.0959 197.606 59.9878C199.032 59.7176 200.323 58.8797 201.917 59.2649C202.789 59.4743 203.782 59.123 204.715 59.1567C206.215 59.2108 207.708 59.3594 209.208 59.4811C209.796 59.5284 209.978 59.8797 210.208 60.4338C210.58 61.346 210.411 62.069 209.945 62.8122C209.843 62.9744 209.668 63.1028 209.519 63.2379C209.363 63.3798 209.188 63.5082 209.026 63.6366C208.836 63.7852 208.647 63.9339 208.451 64.069C208.39 64.1095 208.255 64.0622 208.228 64.1028C207.647 64.8731 206.715 65.0555 205.951 65.5217C204.167 66.6163 202.194 67.1772 200.201 67.4542C197.539 67.8191 194.829 67.8664 192.133 68.0285C191.431 68.0691 190.728 68.0353 190.025 68.0353C190.019 68.1231 190.012 68.1974 190.005 68.2785Z" fill="#231F1C"/>
<path d="M266.526 95.0966C266.526 93.6034 266.431 92.0966 266.553 90.6168C266.668 89.2317 266.992 87.8668 267.262 86.5019C267.303 86.3127 267.546 86.0762 267.742 86.0154C268.762 85.6978 269.796 85.2451 270.837 85.1843C272.526 85.083 274.236 85.2586 275.938 85.3059C276.742 85.333 277.553 85.333 278.357 85.3667C280.425 85.4478 280.769 85.9546 280.134 87.9141C279.668 89.3668 279.486 90.8601 279.56 92.3871C279.621 93.7115 279.526 95.0629 279.715 96.3669C279.945 97.9886 280.628 99.4751 281.844 100.617C282.107 100.867 282.58 100.914 282.972 100.989C283.519 101.09 283.769 101.387 283.749 101.935C283.729 102.502 283.357 102.468 282.925 102.549C280.756 102.948 278.567 103.022 276.371 103.063C274.918 103.09 273.472 103.205 272.026 103.293C270.445 103.394 269.371 102.651 268.472 101.387C267.506 100.029 266.972 98.5156 266.58 96.9345C266.431 96.3467 266.458 95.7115 266.404 95.1034C266.438 95.0966 266.485 95.0966 266.526 95.0966Z" fill="#231F1C"/>
<path d="M295.377 86.7925C295.377 87.725 295.323 89.2926 295.397 90.8602C295.437 91.7724 295.613 92.6913 295.843 93.5764C296.025 94.2792 295.85 94.6305 295.073 94.7048C293.282 94.867 291.491 95.0697 289.694 95.1846C287.883 95.2994 286.072 95.34 284.262 95.4076C283.295 95.4481 283.039 95.1778 282.674 94.2927C282.153 93.0224 282.356 91.7183 282.329 90.421C282.302 89.0561 282.316 87.6912 282.282 86.3263C282.268 85.8331 282.289 85.3804 282.849 85.2182C283.876 84.9209 284.904 84.4614 285.944 84.4074C287.633 84.3128 289.343 84.4884 291.046 84.5425C291.985 84.5695 292.931 84.5493 293.87 84.6236C295.228 84.7317 295.579 84.8803 295.377 86.7925Z" fill="#231F1C"/>
</svg>
